<svg xmlns="http://www.w3.org/2000/svg" xmlns:xlink="http://www.w3.org/1999/xlink" width="1080" zoomAndPan="magnify" viewBox="0 0 810 809.999993" height="1080" preserveAspectRatio="xMidYMid meet" version="1.0"><path fill="#008080" d="M 400.078125 136.933594 C 394.394531 136.929688 388.71875 137.109375 383.046875 137.476562 C 377.375 137.84375 371.722656 138.398438 366.089844 139.140625 C 360.453125 139.882812 354.851562 140.8125 349.277344 141.921875 C 343.703125 143.035156 338.175781 144.332031 332.6875 145.808594 C 327.199219 147.285156 321.769531 148.945312 316.390625 150.78125 C 311.011719 152.617188 305.703125 154.628906 300.457031 156.816406 C 295.210938 159.007812 290.046875 161.363281 284.957031 163.894531 C 279.867188 166.425781 274.867188 169.117188 269.957031 171.980469 C 265.046875 174.839844 260.234375 177.859375 255.523438 181.035156 C 250.8125 184.214844 246.210938 187.542969 241.722656 191.027344 C 237.230469 194.507812 232.859375 198.136719 228.609375 201.90625 C 224.359375 205.679688 220.234375 209.585938 216.242188 213.628906 C 212.25 217.671875 208.394531 221.84375 204.675781 226.140625 C 200.960938 230.441406 197.390625 234.855469 193.964844 239.390625 C 190.539062 243.925781 187.265625 248.570312 184.148438 253.320312 C 181.03125 258.070312 178.074219 262.917969 175.273438 267.867188 C 172.476562 272.8125 169.84375 277.84375 167.378906 282.964844 C 164.914062 288.085938 162.621094 293.28125 160.5 298.554688 C 158.378906 303.828125 156.433594 309.164062 154.664062 314.5625 C 152.894531 319.964844 151.308594 325.417969 149.898438 330.921875 C 148.492188 336.425781 147.265625 341.972656 146.222656 347.558594 C 145.183594 353.148438 144.328125 358.761719 143.65625 364.40625 C 142.984375 370.046875 142.5 375.707031 142.203125 381.382812 C 141.910156 387.058594 141.800781 392.734375 141.878906 398.417969 C 141.957031 404.101562 142.222656 409.773438 142.679688 415.4375 C 143.132812 421.101562 143.773438 426.746094 144.597656 432.367188 C 145.425781 437.992188 146.4375 443.578125 147.632812 449.136719 C 148.832031 454.691406 150.210938 460.199219 151.769531 465.664062 C 153.332031 471.128906 155.070312 476.535156 156.988281 481.886719 C 158.90625 487.234375 161 492.515625 163.265625 497.726562 C 165.535156 502.9375 167.96875 508.066406 170.578125 513.117188 C 173.183594 518.167969 175.953125 523.125 178.886719 527.992188 L 142.476562 637.195312 C 142.324219 637.65625 142.199219 638.121094 142.101562 638.597656 C 142.003906 639.074219 141.933594 639.554688 141.894531 640.035156 C 141.851562 640.519531 141.839844 641.003906 141.855469 641.488281 C 141.875 641.976562 141.917969 642.457031 141.992188 642.9375 C 142.066406 643.417969 142.167969 643.890625 142.296875 644.359375 C 142.425781 644.828125 142.582031 645.285156 142.765625 645.734375 C 142.949219 646.183594 143.160156 646.621094 143.394531 647.046875 C 143.632812 647.46875 143.890625 647.878906 144.175781 648.273438 C 144.457031 648.667969 144.765625 649.042969 145.09375 649.398438 C 145.421875 649.757812 145.769531 650.09375 146.136719 650.410156 C 146.507812 650.726562 146.890625 651.019531 147.292969 651.289062 C 147.699219 651.5625 148.113281 651.808594 148.546875 652.027344 C 148.980469 652.25 149.421875 652.445312 149.878906 652.613281 C 150.332031 652.78125 150.796875 652.921875 151.269531 653.039062 C 151.742188 653.152344 152.21875 653.238281 152.699219 653.292969 C 153.179688 653.351562 153.664062 653.378906 154.148438 653.378906 C 155.480469 653.382812 156.777344 653.171875 158.039062 652.746094 L 267.242188 616.347656 C 271.488281 618.898438 275.804688 621.324219 280.1875 623.625 C 284.574219 625.929688 289.023438 628.101562 293.53125 630.148438 C 298.042969 632.195312 302.609375 634.109375 307.230469 635.890625 C 311.851562 637.675781 316.519531 639.324219 321.234375 640.839844 C 325.949219 642.351562 330.703125 643.730469 335.5 644.972656 C 340.292969 646.210938 345.121094 647.3125 349.980469 648.277344 C 354.835938 649.238281 359.71875 650.0625 364.625 650.742188 C 369.53125 651.425781 374.453125 651.964844 379.386719 652.363281 C 384.324219 652.761719 389.269531 653.019531 394.222656 653.132812 C 399.171875 653.246094 404.125 653.21875 409.074219 653.046875 C 414.023438 652.878906 418.964844 652.566406 423.894531 652.109375 C 428.828125 651.652344 433.742188 651.058594 438.640625 650.320312 C 443.535156 649.582031 448.410156 648.703125 453.257812 647.683594 C 458.101562 646.664062 462.917969 645.507812 467.695312 644.210938 C 472.476562 642.917969 477.214844 641.484375 481.914062 639.917969 C 486.613281 638.347656 491.261719 636.644531 495.859375 634.808594 C 500.460938 632.972656 505.003906 631.007812 509.492188 628.910156 C 513.976562 626.8125 518.398438 624.585938 522.757812 622.234375 C 527.117188 619.882812 531.40625 617.40625 535.621094 614.808594 C 539.835938 612.207031 543.976562 609.492188 548.035156 606.652344 C 552.09375 603.816406 556.070312 600.863281 559.957031 597.796875 C 563.847656 594.734375 567.648438 591.558594 571.355469 588.273438 C 575.0625 584.988281 578.671875 581.601562 582.183594 578.109375 C 585.695312 574.617188 589.101562 571.023438 592.40625 567.335938 C 595.714844 563.648438 598.910156 559.867188 601.996094 555.996094 C 605.085938 552.121094 608.058594 548.164062 610.917969 544.121094 C 613.777344 540.078125 616.519531 535.953125 619.140625 531.753906 C 621.765625 527.550781 624.265625 523.277344 626.640625 518.933594 C 629.015625 514.585938 631.265625 510.175781 633.390625 505.703125 C 635.511719 501.226562 637.503906 496.695312 639.367188 492.105469 C 641.230469 487.515625 642.957031 482.875 644.550781 478.1875 C 646.144531 473.5 647.605469 468.769531 648.925781 463.996094 C 650.25 459.222656 651.433594 454.414062 652.480469 449.574219 C 653.527344 444.734375 654.429688 439.867188 655.195312 434.972656 C 655.960938 430.078125 656.585938 425.167969 657.070312 420.238281 C 657.554688 415.308594 657.894531 410.371094 658.09375 405.421875 C 658.289062 400.472656 658.347656 395.523438 658.261719 390.570312 C 658.175781 385.617188 657.945312 380.671875 657.574219 375.734375 C 657.203125 370.792969 656.691406 365.871094 656.035156 360.960938 C 655.382812 356.050781 654.585938 351.164062 653.652344 346.300781 C 652.714844 341.4375 651.640625 336.605469 650.425781 331.804688 C 649.214844 327.003906 647.863281 322.238281 646.375 317.515625 C 644.886719 312.792969 643.265625 308.113281 641.507812 303.484375 C 639.75 298.851562 637.859375 294.277344 635.839844 289.753906 C 633.820312 285.234375 631.667969 280.773438 629.390625 276.375 C 627.113281 271.976562 624.714844 267.648438 622.1875 263.386719 C 619.660156 259.128906 617.011719 254.945312 614.246094 250.835938 C 611.476562 246.730469 608.59375 242.703125 605.597656 238.761719 C 602.597656 234.820312 599.488281 230.96875 596.265625 227.207031 C 593.046875 223.445312 589.71875 219.777344 586.289062 216.207031 C 582.855469 212.636719 579.324219 209.164062 575.691406 205.796875 C 572.0625 202.429688 568.335938 199.167969 564.515625 196.015625 C 560.695312 192.863281 556.789062 189.820312 552.796875 186.894531 C 548.800781 183.964844 544.726562 181.152344 540.570312 178.460938 C 536.414062 175.765625 532.183594 173.195312 527.878906 170.742188 C 523.578125 168.292969 519.207031 165.96875 514.765625 163.769531 C 510.328125 161.570312 505.832031 159.5 501.273438 157.5625 C 496.71875 155.621094 492.109375 153.8125 487.449219 152.140625 C 482.785156 150.464844 478.082031 148.925781 473.332031 147.519531 C 468.582031 146.117188 463.796875 144.851562 458.972656 143.722656 C 454.148438 142.59375 449.300781 141.605469 444.417969 140.757812 C 439.539062 139.90625 434.640625 139.199219 429.71875 138.632812 C 424.800781 138.066406 419.867188 137.640625 414.921875 137.359375 C 409.976562 137.074219 405.03125 136.933594 400.078125 136.933594 Z M 400.078125 628.789062 C 389.089844 628.78125 378.160156 628 367.285156 626.445312 C 356.40625 624.886719 345.695312 622.574219 335.148438 619.503906 C 324.597656 616.429688 314.320312 612.632812 304.308594 608.105469 C 294.300781 603.578125 284.65625 598.367188 275.382812 592.476562 C 273.375 591.203125 271.183594 590.566406 268.804688 590.566406 C 267.472656 590.566406 266.175781 590.777344 264.914062 591.203125 L 173.578125 621.644531 L 204.03125 530.320312 C 204.316406 529.457031 204.503906 528.570312 204.59375 527.660156 C 204.6875 526.753906 204.675781 525.847656 204.566406 524.945312 C 204.457031 524.039062 204.25 523.15625 203.941406 522.296875 C 203.636719 521.4375 203.242188 520.621094 202.757812 519.851562 C 200.476562 516.230469 198.296875 512.554688 196.214844 508.816406 C 194.136719 505.078125 192.160156 501.285156 190.289062 497.4375 C 188.417969 493.589844 186.65625 489.695312 185 485.75 C 183.339844 481.808594 181.792969 477.820312 180.355469 473.792969 C 178.917969 469.761719 177.59375 465.699219 176.378906 461.597656 C 175.164062 457.496094 174.0625 453.363281 173.074219 449.199219 C 172.089844 445.039062 171.214844 440.851562 170.460938 436.640625 C 169.703125 432.429688 169.0625 428.203125 168.535156 423.957031 C 168.011719 419.710938 167.605469 415.457031 167.3125 411.1875 C 167.023438 406.917969 166.851562 402.648438 166.792969 398.371094 C 166.738281 394.09375 166.800781 389.816406 166.980469 385.542969 C 167.160156 381.269531 167.453125 377.003906 167.867188 372.746094 C 168.28125 368.488281 168.8125 364.242188 169.460938 360.015625 C 170.105469 355.785156 170.867188 351.578125 171.746094 347.390625 C 172.625 343.207031 173.617188 339.046875 174.726562 334.914062 C 175.832031 330.78125 177.050781 326.683594 178.382812 322.617188 C 179.714844 318.554688 181.160156 314.527344 182.710938 310.542969 C 184.265625 306.554688 185.925781 302.617188 187.695312 298.722656 C 189.46875 294.828125 191.34375 290.984375 193.324219 287.191406 C 195.304688 283.402344 197.390625 279.667969 199.574219 275.992188 C 201.761719 272.3125 204.046875 268.699219 206.433594 265.148438 C 208.816406 261.597656 211.300781 258.113281 213.875 254.699219 C 216.453125 251.285156 219.121094 247.945312 221.882812 244.675781 C 224.640625 241.40625 227.488281 238.21875 230.425781 235.105469 C 233.359375 231.996094 236.378906 228.964844 239.480469 226.019531 C 242.582031 223.074219 245.765625 220.21875 249.023438 217.445312 C 252.28125 214.675781 255.617188 211.996094 259.023438 209.410156 C 262.429688 206.820312 265.902344 204.328125 269.445312 201.933594 C 272.992188 199.535156 276.597656 197.238281 280.265625 195.039062 C 283.9375 192.84375 287.664062 190.746094 291.449219 188.753906 C 295.234375 186.761719 299.070312 184.871094 302.960938 183.089844 C 306.847656 181.308594 310.78125 179.632812 314.765625 178.066406 C 318.746094 176.5 322.765625 175.042969 326.828125 173.699219 C 330.886719 172.355469 334.980469 171.121094 339.109375 170 C 343.238281 168.882812 347.394531 167.875 351.578125 166.984375 C 355.761719 166.09375 359.96875 165.316406 364.195312 164.65625 C 368.421875 163.996094 372.664062 163.453125 376.917969 163.023438 C 381.175781 162.597656 385.441406 162.285156 389.714844 162.09375 C 393.988281 161.902344 398.261719 161.824219 402.539062 161.867188 C 406.816406 161.910156 411.089844 162.070312 415.359375 162.347656 C 419.628906 162.625 423.886719 163.019531 428.132812 163.527344 C 432.378906 164.039062 436.609375 164.667969 440.824219 165.410156 C 445.035156 166.15625 449.226562 167.011719 453.390625 167.988281 C 457.554688 168.960938 461.691406 170.046875 465.796875 171.25 C 469.902344 172.449219 473.972656 173.765625 478.003906 175.1875 C 482.039062 176.613281 486.03125 178.148438 489.980469 179.792969 C 493.929688 181.4375 497.828125 183.1875 501.683594 185.046875 C 505.535156 186.90625 509.335938 188.871094 513.078125 190.9375 C 516.824219 193.003906 520.511719 195.171875 524.136719 197.445312 C 527.761719 199.714844 531.320312 202.082031 534.816406 204.546875 C 538.3125 207.011719 541.738281 209.574219 545.09375 212.226562 C 548.449219 214.882812 551.726562 217.625 554.929688 220.460938 C 558.136719 223.292969 561.257812 226.214844 564.300781 229.222656 C 567.347656 232.226562 570.304688 235.316406 573.179688 238.484375 C 576.050781 241.652344 578.835938 244.898438 581.53125 248.21875 C 584.226562 251.539062 586.828125 254.933594 589.339844 258.398438 C 591.847656 261.863281 594.257812 265.394531 596.574219 268.992188 C 598.886719 272.589844 601.101562 276.25 603.214844 279.96875 C 605.332031 283.6875 607.339844 287.460938 609.246094 291.289062 C 611.152344 295.121094 612.953125 299 614.644531 302.925781 C 616.339844 306.855469 617.921875 310.828125 619.394531 314.84375 C 620.871094 318.859375 622.234375 322.914062 623.484375 327.003906 C 624.738281 331.09375 625.875 335.214844 626.902344 339.367188 C 627.925781 343.523438 628.835938 347.699219 629.632812 351.902344 C 630.429688 356.105469 631.109375 360.328125 631.671875 364.570312 C 632.234375 368.808594 632.679688 373.0625 633.011719 377.328125 C 633.339844 381.59375 633.554688 385.863281 633.648438 390.140625 C 633.742188 394.417969 633.71875 398.691406 633.582031 402.96875 C 633.441406 407.242188 633.183594 411.511719 632.808594 415.773438 C 632.433594 420.035156 631.941406 424.28125 631.332031 428.515625 C 630.726562 432.75 630 436.964844 629.160156 441.160156 C 628.320312 445.355469 627.367188 449.523438 626.296875 453.664062 C 625.230469 457.808594 624.046875 461.917969 622.753906 465.992188 C 621.457031 470.070312 620.050781 474.109375 618.535156 478.109375 C 617.019531 482.109375 615.390625 486.0625 613.65625 489.972656 C 611.921875 493.886719 610.082031 497.746094 608.136719 501.554688 C 606.191406 505.363281 604.140625 509.117188 601.988281 512.8125 C 599.835938 516.507812 597.582031 520.144531 595.230469 523.71875 C 592.878906 527.289062 590.429688 530.796875 587.882812 534.234375 C 585.339844 537.671875 582.699219 541.039062 579.96875 544.332031 C 577.238281 547.625 574.421875 550.839844 571.515625 553.976562 C 568.605469 557.117188 565.617188 560.171875 562.539062 563.144531 C 559.464844 566.121094 556.3125 569.007812 553.078125 571.808594 C 549.84375 574.609375 546.535156 577.316406 543.152344 579.9375 C 539.769531 582.554688 536.320312 585.078125 532.796875 587.507812 C 529.277344 589.9375 525.691406 592.265625 522.039062 594.496094 C 518.390625 596.730469 514.683594 598.859375 510.917969 600.886719 C 507.148438 602.914062 503.332031 604.839844 499.457031 606.65625 C 495.585938 608.472656 491.667969 610.183594 487.699219 611.785156 C 483.734375 613.390625 479.726562 614.882812 475.679688 616.265625 C 471.628906 617.648438 467.546875 618.917969 463.429688 620.074219 C 459.3125 621.230469 455.164062 622.277344 450.988281 623.207031 C 446.8125 624.136719 442.617188 624.949219 438.394531 625.648438 C 434.175781 626.347656 429.9375 626.929688 425.6875 627.398438 C 421.433594 627.863281 417.171875 628.210938 412.902344 628.445312 C 408.628906 628.675781 404.355469 628.792969 400.078125 628.789062 Z M 301.707031 395.15625 C 301.707031 395.964844 301.667969 396.765625 301.585938 397.570312 C 301.507812 398.371094 301.390625 399.167969 301.234375 399.957031 C 301.078125 400.746094 300.882812 401.527344 300.648438 402.296875 C 300.414062 403.066406 300.140625 403.824219 299.835938 404.570312 C 299.527344 405.3125 299.183594 406.039062 298.800781 406.75 C 298.421875 407.460938 298.007812 408.152344 297.5625 408.820312 C 297.113281 409.492188 296.636719 410.136719 296.125 410.757812 C 295.613281 411.382812 295.074219 411.976562 294.503906 412.546875 C 293.933594 413.117188 293.335938 413.65625 292.714844 414.167969 C 292.09375 414.679688 291.445312 415.160156 290.777344 415.605469 C 290.105469 416.054688 289.417969 416.46875 288.707031 416.847656 C 287.996094 417.226562 287.269531 417.570312 286.523438 417.878906 C 285.78125 418.1875 285.023438 418.457031 284.253906 418.691406 C 283.480469 418.925781 282.703125 419.121094 281.910156 419.277344 C 281.121094 419.433594 280.324219 419.554688 279.523438 419.632812 C 278.722656 419.710938 277.917969 419.75 277.113281 419.75 C 276.308594 419.75 275.503906 419.710938 274.703125 419.632812 C 273.902344 419.554688 273.105469 419.433594 272.316406 419.277344 C 271.527344 419.121094 270.746094 418.925781 269.976562 418.691406 C 269.203125 418.457031 268.445312 418.1875 267.703125 417.878906 C 266.957031 417.570312 266.230469 417.226562 265.519531 416.847656 C 264.808594 416.46875 264.121094 416.054688 263.449219 415.605469 C 262.78125 415.160156 262.132812 414.679688 261.511719 414.167969 C 260.890625 413.65625 260.292969 413.117188 259.722656 412.546875 C 259.15625 411.976562 258.613281 411.382812 258.101562 410.757812 C 257.59375 410.136719 257.113281 409.492188 256.664062 408.820312 C 256.21875 408.152344 255.804688 407.460938 255.425781 406.75 C 255.046875 406.039062 254.699219 405.3125 254.394531 404.570312 C 254.085938 403.824219 253.8125 403.066406 253.578125 402.296875 C 253.347656 401.527344 253.152344 400.746094 252.992188 399.957031 C 252.835938 399.167969 252.71875 398.371094 252.640625 397.570312 C 252.558594 396.765625 252.519531 395.964844 252.519531 395.15625 C 252.519531 394.351562 252.558594 393.550781 252.640625 392.746094 C 252.71875 391.945312 252.835938 391.148438 252.992188 390.359375 C 253.152344 389.570312 253.347656 388.789062 253.578125 388.019531 C 253.8125 387.25 254.085938 386.492188 254.394531 385.746094 C 254.699219 385.003906 255.046875 384.277344 255.425781 383.566406 C 255.804688 382.855469 256.21875 382.164062 256.664062 381.496094 C 257.113281 380.824219 257.59375 380.179688 258.101562 379.558594 C 258.613281 378.933594 259.15625 378.339844 259.722656 377.769531 C 260.292969 377.199219 260.890625 376.660156 261.511719 376.148438 C 262.132812 375.636719 262.78125 375.15625 263.449219 374.710938 C 264.121094 374.261719 264.808594 373.847656 265.519531 373.46875 C 266.230469 373.089844 266.957031 372.746094 267.703125 372.4375 C 268.445312 372.128906 269.203125 371.859375 269.976562 371.625 C 270.746094 371.390625 271.527344 371.195312 272.316406 371.039062 C 273.105469 370.882812 273.902344 370.761719 274.703125 370.683594 C 275.503906 370.605469 276.308594 370.566406 277.113281 370.566406 C 277.917969 370.566406 278.722656 370.605469 279.523438 370.683594 C 280.324219 370.761719 281.121094 370.882812 281.910156 371.039062 C 282.703125 371.195312 283.480469 371.390625 284.253906 371.625 C 285.023438 371.859375 285.78125 372.128906 286.523438 372.4375 C 287.269531 372.746094 287.996094 373.089844 288.707031 373.46875 C 289.417969 373.847656 290.105469 374.261719 290.777344 374.710938 C 291.445312 375.15625 292.09375 375.636719 292.714844 376.148438 C 293.335938 376.660156 293.933594 377.199219 294.503906 377.769531 C 295.074219 378.339844 295.613281 378.933594 296.125 379.558594 C 296.636719 380.179688 297.113281 380.824219 297.5625 381.496094 C 298.007812 382.164062 298.421875 382.855469 298.800781 383.566406 C 299.183594 384.277344 299.527344 385.003906 299.835938 385.746094 C 300.140625 386.492188 300.414062 387.25 300.648438 388.019531 C 300.882812 388.789062 301.078125 389.570312 301.234375 390.359375 C 301.390625 391.148438 301.507812 391.945312 301.585938 392.746094 C 301.667969 393.550781 301.707031 394.351562 301.707031 395.15625 Z M 424.667969 395.15625 C 424.667969 395.964844 424.628906 396.765625 424.550781 397.570312 C 424.472656 398.371094 424.355469 399.167969 424.195312 399.957031 C 424.039062 400.746094 423.84375 401.527344 423.609375 402.296875 C 423.375 403.066406 423.105469 403.824219 422.796875 404.570312 C 422.488281 405.3125 422.144531 406.039062 421.765625 406.75 C 421.386719 407.460938 420.972656 408.152344 420.523438 408.820312 C 420.078125 409.492188 419.597656 410.136719 419.085938 410.757812 C 418.574219 411.382812 418.035156 411.976562 417.464844 412.546875 C 416.898438 413.117188 416.300781 413.65625 415.679688 414.167969 C 415.054688 414.679688 414.410156 415.160156 413.738281 415.605469 C 413.070312 416.054688 412.378906 416.46875 411.667969 416.847656 C 410.960938 417.226562 410.230469 417.570312 409.488281 417.878906 C 408.742188 418.1875 407.984375 418.457031 407.214844 418.691406 C 406.445312 418.925781 405.664062 419.121094 404.875 419.277344 C 404.085938 419.433594 403.289062 419.554688 402.488281 419.632812 C 401.6875 419.710938 400.882812 419.75 400.078125 419.75 C 399.269531 419.75 398.46875 419.710938 397.667969 419.632812 C 396.863281 419.554688 396.070312 419.433594 395.277344 419.277344 C 394.488281 419.121094 393.707031 418.925781 392.9375 418.691406 C 392.167969 418.457031 391.410156 418.1875 390.664062 417.878906 C 389.921875 417.570312 389.195312 417.226562 388.484375 416.847656 C 387.773438 416.46875 387.082031 416.054688 386.414062 415.605469 C 385.742188 415.160156 385.097656 414.679688 384.476562 414.167969 C 383.851562 413.65625 383.257812 413.117188 382.6875 412.546875 C 382.117188 411.976562 381.578125 411.382812 381.066406 410.757812 C 380.554688 410.136719 380.074219 409.492188 379.628906 408.820312 C 379.179688 408.152344 378.769531 407.460938 378.386719 406.75 C 378.007812 406.039062 377.664062 405.3125 377.355469 404.570312 C 377.046875 403.824219 376.777344 403.066406 376.542969 402.296875 C 376.308594 401.527344 376.113281 400.746094 375.957031 399.957031 C 375.800781 399.167969 375.679688 398.371094 375.601562 397.570312 C 375.523438 396.765625 375.484375 395.964844 375.484375 395.15625 C 375.484375 394.351562 375.523438 393.550781 375.601562 392.746094 C 375.679688 391.945312 375.800781 391.148438 375.957031 390.359375 C 376.113281 389.570312 376.308594 388.789062 376.542969 388.019531 C 376.777344 387.25 377.046875 386.492188 377.355469 385.746094 C 377.664062 385.003906 378.007812 384.277344 378.386719 383.566406 C 378.769531 382.855469 379.179688 382.164062 379.628906 381.496094 C 380.074219 380.824219 380.554688 380.179688 381.066406 379.558594 C 381.578125 378.933594 382.117188 378.339844 382.6875 377.769531 C 383.257812 377.199219 383.851562 376.660156 384.476562 376.148438 C 385.097656 375.636719 385.742188 375.15625 386.414062 374.710938 C 387.082031 374.261719 387.773438 373.847656 388.484375 373.46875 C 389.195312 373.089844 389.921875 372.746094 390.664062 372.4375 C 391.410156 372.128906 392.167969 371.859375 392.9375 371.625 C 393.707031 371.390625 394.488281 371.195312 395.277344 371.039062 C 396.070312 370.882812 396.863281 370.761719 397.667969 370.683594 C 398.46875 370.605469 399.269531 370.566406 400.078125 370.566406 C 400.882812 370.566406 401.6875 370.605469 402.488281 370.683594 C 403.289062 370.761719 404.085938 370.882812 404.875 371.039062 C 405.664062 371.195312 406.445312 371.390625 407.214844 371.625 C 407.984375 371.859375 408.742188 372.128906 409.488281 372.4375 C 410.230469 372.746094 410.960938 373.089844 411.667969 373.46875 C 412.378906 373.847656 413.070312 374.261719 413.738281 374.710938 C 414.410156 375.15625 415.054688 375.636719 415.679688 376.148438 C 416.300781 376.660156 416.898438 377.199219 417.464844 377.769531 C 418.035156 378.339844 418.574219 378.933594 419.085938 379.558594 C 419.597656 380.179688 420.078125 380.824219 420.523438 381.496094 C 420.972656 382.164062 421.386719 382.855469 421.765625 383.566406 C 422.144531 384.277344 422.488281 385.003906 422.796875 385.746094 C 423.105469 386.492188 423.375 387.25 423.609375 388.019531 C 423.84375 388.789062 424.039062 389.570312 424.195312 390.359375 C 424.355469 391.148438 424.472656 391.945312 424.550781 392.746094 C 424.628906 393.550781 424.667969 394.351562 424.667969 395.15625 Z M 547.632812 395.15625 C 547.632812 395.964844 547.59375 396.765625 547.515625 397.570312 C 547.433594 398.371094 547.316406 399.167969 547.160156 399.957031 C 547.003906 400.746094 546.808594 401.527344 546.574219 402.296875 C 546.339844 403.066406 546.070312 403.824219 545.761719 404.570312 C 545.453125 405.3125 545.109375 406.039062 544.730469 406.75 C 544.347656 407.460938 543.933594 408.152344 543.488281 408.820312 C 543.039062 409.492188 542.5625 410.136719 542.050781 410.757812 C 541.539062 411.382812 541 411.976562 540.429688 412.546875 C 539.859375 413.117188 539.265625 413.65625 538.640625 414.167969 C 538.019531 414.679688 537.371094 415.160156 536.703125 415.605469 C 536.03125 416.054688 535.34375 416.46875 534.632812 416.847656 C 533.921875 417.226562 533.195312 417.570312 532.449219 417.878906 C 531.707031 418.1875 530.949219 418.457031 530.179688 418.691406 C 529.40625 418.925781 528.628906 419.121094 527.835938 419.277344 C 527.046875 419.433594 526.25 419.554688 525.449219 419.632812 C 524.648438 419.710938 523.84375 419.75 523.039062 419.75 C 522.234375 419.75 521.429688 419.710938 520.628906 419.632812 C 519.828125 419.554688 519.03125 419.433594 518.242188 419.277344 C 517.453125 419.121094 516.671875 418.925781 515.902344 418.691406 C 515.128906 418.457031 514.371094 418.1875 513.628906 417.878906 C 512.882812 417.570312 512.15625 417.226562 511.445312 416.847656 C 510.738281 416.46875 510.046875 416.054688 509.375 415.605469 C 508.707031 415.160156 508.0625 414.679688 507.4375 414.167969 C 506.816406 413.65625 506.21875 413.117188 505.648438 412.546875 C 505.082031 411.976562 504.539062 411.382812 504.03125 410.757812 C 503.519531 410.136719 503.039062 409.492188 502.589844 408.820312 C 502.144531 408.152344 501.730469 407.460938 501.351562 406.75 C 500.972656 406.039062 500.628906 405.3125 500.320312 404.570312 C 500.011719 403.824219 499.738281 403.066406 499.507812 402.296875 C 499.273438 401.527344 499.078125 400.746094 498.917969 399.957031 C 498.761719 399.167969 498.644531 398.371094 498.566406 397.570312 C 498.488281 396.765625 498.445312 395.964844 498.445312 395.15625 C 498.445312 394.351562 498.488281 393.550781 498.566406 392.746094 C 498.644531 391.945312 498.761719 391.148438 498.917969 390.359375 C 499.078125 389.570312 499.273438 388.789062 499.507812 388.019531 C 499.738281 387.25 500.011719 386.492188 500.320312 385.746094 C 500.628906 385.003906 500.972656 384.277344 501.351562 383.566406 C 501.730469 382.855469 502.144531 382.164062 502.589844 381.496094 C 503.039062 380.824219 503.519531 380.179688 504.03125 379.558594 C 504.539062 378.933594 505.082031 378.339844 505.648438 377.769531 C 506.21875 377.199219 506.816406 376.660156 507.4375 376.148438 C 508.0625 375.636719 508.707031 375.15625 509.375 374.710938 C 510.046875 374.261719 510.738281 373.847656 511.445312 373.46875 C 512.15625 373.089844 512.882812 372.746094 513.628906 372.4375 C 514.371094 372.128906 515.128906 371.859375 515.902344 371.625 C 516.671875 371.390625 517.453125 371.195312 518.242188 371.039062 C 519.03125 370.882812 519.828125 370.761719 520.628906 370.683594 C 521.429688 370.605469 522.234375 370.566406 523.039062 370.566406 C 523.84375 370.566406 524.648438 370.605469 525.449219 370.683594 C 526.25 370.761719 527.046875 370.882812 527.835938 371.039062 C 528.628906 371.195312 529.40625 371.390625 530.179688 371.625 C 530.949219 371.859375 531.707031 372.128906 532.449219 372.4375 C 533.195312 372.746094 533.921875 373.089844 534.632812 373.46875 C 535.34375 373.847656 536.03125 374.261719 536.703125 374.710938 C 537.371094 375.15625 538.019531 375.636719 538.640625 376.148438 C 539.265625 376.660156 539.859375 377.199219 540.429688 377.769531 C 541 378.339844 541.539062 378.933594 542.050781 379.558594 C 542.5625 380.179688 543.039062 380.824219 543.488281 381.496094 C 543.933594 382.164062 544.347656 382.855469 544.730469 383.566406 C 545.109375 384.277344 545.453125 385.003906 545.761719 385.746094 C 546.070312 386.492188 546.339844 387.25 546.574219 388.019531 C 546.808594 388.789062 547.003906 389.570312 547.160156 390.359375 C 547.316406 391.148438 547.433594 391.945312 547.515625 392.746094 C 547.59375 393.550781 547.632812 394.351562 547.632812 395.15625 Z M 547.632812 395.15625 " fill-opacity="1" fill-rule="nonzero"/></svg>