<svg xmlns="http://www.w3.org/2000/svg" xmlns:xlink="http://www.w3.org/1999/xlink" width="1080" zoomAndPan="magnify" viewBox="0 0 810 809.999993" height="1080" preserveAspectRatio="xMidYMid meet" version="1.0"><path fill="#ffffff" d="M 458.988281 318.304688 C 446.207031 318.304688 435.847656 328.664062 435.847656 341.441406 L 435.847656 504.945312 C 435.847656 517.722656 446.207031 528.082031 458.988281 528.082031 C 471.765625 528.082031 482.125 517.722656 482.125 504.945312 L 482.125 341.441406 C 482.125 328.664062 471.765625 318.304688 458.988281 318.304688 Z M 458.988281 318.304688 " fill-opacity="1" fill-rule="nonzero"/><path fill="#ffffff" d="M 405 81 C 226.058594 81 81 226.058594 81 405 C 81 583.941406 226.058594 729 405 729 C 583.941406 729 729 583.941406 729 405 C 729 226.058594 583.941406 81 405 81 Z M 543.824219 287.457031 L 543.824219 543.507812 C 543.824219 569.0625 523.105469 589.78125 497.550781 589.78125 L 312.453125 589.78125 C 286.894531 589.78125 266.179688 569.0625 266.179688 543.507812 L 266.179688 287.457031 C 249.140625 287.457031 235.328125 273.644531 235.328125 256.605469 C 235.328125 239.566406 249.140625 225.757812 266.179688 225.757812 L 329.203125 225.757812 C 333.292969 225.757812 337.214844 224.128906 340.109375 221.238281 L 361.921875 199.421875 C 364.816406 196.53125 368.738281 194.90625 372.832031 194.90625 L 437.175781 194.90625 C 441.265625 194.90625 445.191406 196.53125 448.082031 199.421875 L 469.898438 221.238281 C 472.789062 224.128906 476.710938 225.757812 480.804688 225.757812 L 543.828125 225.757812 C 560.863281 225.757812 574.675781 239.566406 574.675781 256.605469 C 574.675781 273.644531 560.859375 287.457031 543.824219 287.457031 Z M 543.824219 287.457031 " fill-opacity="1" fill-rule="nonzero"/><path fill="#ffffff" d="M 351.011719 318.304688 C 338.234375 318.304688 327.875 328.664062 327.875 341.441406 L 327.875 504.945312 C 327.875 517.722656 338.234375 528.082031 351.011719 528.082031 C 363.792969 528.082031 374.148438 517.722656 374.148438 504.945312 L 374.148438 341.441406 C 374.148438 328.664062 363.792969 318.304688 351.011719 318.304688 Z M 351.011719 318.304688 " fill-opacity="1" fill-rule="nonzero"/></svg>