<svg width="16" height="16" viewBox="0 0 16 16" fill="none" xmlns="http://www.w3.org/2000/svg">
<path d="M4.66683 1.33301C2.82588 1.33301 1.3335 2.82539 1.3335 4.66634V11.333C1.3335 13.174 2.82588 14.6663 4.66683 14.6663H11.3335C13.1744 14.6663 14.6668 13.174 14.6668 11.333V7.99967C14.6668 7.63148 14.3684 7.33301 14.0002 7.33301C13.632 7.33301 13.3335 7.63148 13.3335 7.99967V11.333C13.3335 12.4376 12.4381 13.333 11.3335 13.333H4.66683C3.56226 13.333 2.66683 12.4376 2.66683 11.333V4.66634C2.66683 3.56177 3.56226 2.66634 4.66683 2.66634H8.00016C8.36835 2.66634 8.66683 2.36786 8.66683 1.99967C8.66683 1.63148 8.36835 1.33301 8.00016 1.33301H4.66683Z" fill="#DF6129"/>
<path d="M10.5288 2.52842C11.3414 1.71579 12.6589 1.71579 13.4716 2.52842C14.2842 3.34105 14.2842 4.65859 13.4716 5.47123L8.73272 10.2101C8.47641 10.4664 8.15525 10.6482 7.80358 10.7362L5.4952 11.3133C5.26802 11.3701 5.02769 11.3035 4.86211 11.1379C4.69652 10.9723 4.62995 10.732 4.68675 10.5048L5.26384 8.19642C5.35176 7.84476 5.5336 7.5236 5.78992 7.26728L10.5288 2.52842Z" fill="#DF6129"/>
</svg>
