<svg width="151" height="151" viewBox="0 0 151 151" fill="none" xmlns="http://www.w3.org/2000/svg">
    <circle cx="75.5" cy="75.5" r="75.5" fill="#fff"/>
    <path d="M63.309 34.28 52.413 49.157a12.747 12.747 0 0 0-1.869 3.633c-1.668 5.136.03 10.985 4.584 14.36l.005.003 6.197 4.54-7.66.038c-5.68.032-10.485 3.752-12.154 8.89a12.904 12.904 0 0 0-.629 4.032l.064 18.463a12.832 12.832 0 0 0 8.85 12.168c1.268.411 2.622.63 4.022.623l38.01-.192c5.68-.032 10.486-3.751 12.155-8.891.413-1.27.633-2.627.629-4.031l-.058-17.009 10.107-13.835.004-.006a12.93 12.93 0 0 0 1.825-3.585 12.874 12.874 0 0 0-4.624-14.363L81.265 31.521a12.963 12.963 0 0 0-3.666-1.885 12.787 12.787 0 0 0-14.29 4.644zm38.394 68.53a9.944 9.944 0 0 1-.485 3.116c-1.29 3.967-5.005 6.852-9.396 6.87l-38.01.193a9.87 9.87 0 0 1-3.108-.482 9.917 9.917 0 0 1-6.84-9.405l-.063-18.463a9.948 9.948 0 0 1 .485-3.116c1.29-3.967 5.004-6.85 9.396-6.872l11.927-.06c.137.017.275.019.41-.003l25.673-.13a9.864 9.864 0 0 1 3.109.481 9.917 9.917 0 0 1 6.839 9.406l.063 18.465zM79.54 33.879l30.605 22.473a9.952 9.952 0 0 1 2.167 13.88L104.19 81.35a12.834 12.834 0 0 0-8.489-9.185 12.8 12.8 0 0 0-4.021-.624l-25.444.129-9.383-6.874.005.004c-3.52-2.597-4.834-7.147-3.546-11.11a9.84 9.84 0 0 1 1.441-2.8l.002-.004 10.898-14.882a9.869 9.869 0 0 1 11.039-3.59c.994.322 1.953.807 2.848 1.465z" fill="#199A8E" stroke="#199A8E" stroke-width="1.3"/>
    <rect x="51.351" y="84.363" width="35.532" height="2.961" rx="1.481" fill="#199A8E" stroke="#199A8E" stroke-width="1.3"/>
    <rect x="51.351" y="93.247" width="31.091" height="2.961" rx="1.481" fill="#199A8E" stroke="#199A8E" stroke-width="1.3"/>
    <rect x="51.351" y="102.13" width="45.156" height="2.961" rx="1.481" fill="#199A8E" stroke="#199A8E" stroke-width="1.3"/>
</svg>
