<svg xmlns="http://www.w3.org/2000/svg" xmlns:xlink="http://www.w3.org/1999/xlink" width="1080" zoomAndPan="magnify" viewBox="0 0 810 809.999993" height="1080" preserveAspectRatio="xMidYMid meet" version="1.0"><path fill="#ffffff" d="M 436.117188 307.828125 L 436.117188 360.507812 L 502.445312 360.507812 L 493.164062 432.570312 L 436.117188 432.570312 L 436.117188 597.707031 L 363.785156 597.707031 L 363.785156 432.570312 L 301.820312 432.570312 L 301.820312 360.507812 L 363.785156 360.507812 L 363.785156 307.828125 C 363.785156 250.777344 409.914062 212.292969 466.960938 212.292969 C 492.074219 212.292969 507.90625 216.113281 507.90625 216.113281 L 507.90625 276.984375 L 466.960938 276.984375 C 450.039062 276.984375 436.117188 290.902344 436.117188 307.828125 Z M 436.117188 307.828125 " fill-opacity="1" fill-rule="nonzero"/><path fill="#ffffff" d="M 405 729 C 226.484375 729 81 583.785156 81 405 C 81 226.214844 226.484375 81 405 81 C 583.785156 81 729 226.484375 729 405 C 729 583.515625 583.785156 729 405 729 Z M 405 98.742188 C 236.039062 98.742188 98.742188 236.039062 98.742188 405 C 98.742188 573.960938 236.039062 711.257812 405 711.257812 C 573.960938 711.257812 711.257812 573.960938 711.257812 405 C 711.257812 236.039062 573.960938 98.742188 405 98.742188 Z M 405 98.742188 " fill-opacity="1" fill-rule="nonzero"/></svg>