<svg width="36" height="36" viewBox="0 0 36 36" fill="none" xmlns="http://www.w3.org/2000/svg">
<path d="M27 10.8674C27 5.43336 22.732 1 17.5 1C12.268 1 8 5.43323 8 10.8674C8 15.9084 11.6831 20.0912 16.3985 20.6633V27.5275H12.6122C11.9928 27.5275 11.5106 28.028 11.5106 28.6717C11.5106 29.3151 11.9925 29.8159 12.6122 29.8159H16.3985V33.8558C16.3985 34.4992 16.8804 35 17.5001 35C18.1196 35 18.6017 34.4995 18.6017 33.8558L18.6015 29.7799H22.3878C23.0072 29.7799 23.4894 29.2794 23.4894 28.6357C23.4894 27.9923 23.0075 27.4916 22.3878 27.4916H18.6015V20.6273C23.317 20.0552 27 15.908 27 10.8672L27 10.8674ZM10.2029 10.8674C10.2029 6.68447 13.4728 3.28809 17.5 3.28809C21.5272 3.28809 24.7971 6.6844 24.7971 10.8674C24.7971 15.0503 21.5272 18.4109 17.5 18.4109C13.4728 18.4109 10.2029 15.0146 10.2029 10.8674Z" fill="#909196"/>
</svg>
