<?xml version="1.0" ?>
<!-- Uploaded to: SVG Repo, www.svgrepo.com, Generator: SVG Repo Mixer Tools -->
<svg width="800px" height="800px" viewBox="0 0 512 512" id="Layer_1" version="1.1" xml:space="preserve" xmlns="http://www.w3.org/2000/svg" xmlns:xlink="http://www.w3.org/1999/xlink">
<style type="text/css">
	.st0{fill:#333333;}
</style>
<g>
<circle class="st0" cx="218.4" cy="91.8" r="39.7"/>
<path class="st0" d="M468.3,383.3L431,278.5c-2.7-7.6-9.8-12.8-17.9-12.9l-67.7-1.4c4.1,5.7,6.5,12.6,6.5,20c0,2.2-0.2,4.4-0.6,6.5   h35.3l48.4,125.8L457,408C466.8,404.2,471.8,393.3,468.3,383.3z"/>
<path class="st0" d="M240.9,173.6c-1,0-2.1,0.1-3.1,0.2c0,0-0.1,0-0.1,0c0,0,0,0-0.1,0c-13.5,1.9-22.4,15.2-19,28.5l22.8,88.4h95.4   c0.7-2,1.1-4.3,1.1-6.5c0-11.1-8.9-20.3-20-20.5h-0.1l-29.4-0.6l-25.8-74c0,0,0-0.1,0-0.1C259.3,179.6,250.5,173.6,240.9,173.6z"/>
<path class="st0" d="M421.8,421.6l-44.9-116.9h-31.8c0,0,0,0,0,0H230.6l0,0h-3.6L179.8,182l-28.6-74.4c-5.9-15.4-23.2-23-38.5-17.1   l0,0c-15.4,5.9-23,23.2-17.1,38.5l8.9,23l0,0l35.7,92.9l22.9,59.7l22.9,59.6h150l27.5,71.5l2.7,7.1c5.2,13.5,20.4,20.3,34,15.1   l6.6-2.5C420.3,450.3,427,435.1,421.8,421.6L421.8,421.6z"/>
<path class="st0" d="M176.3,378.3L150,309.7L127,250.1l-37.7-97.9H42.6v283.7h305.8l-22.1-57.5H176.3z M108.4,395.3H77.6v-56.8   h30.8V395.3z M108.4,304.7H77.6v-56.8h30.8V304.7z M293.1,402.3h-107c-3.9,0-7-3.1-7-7c0-3.9,3.1-7,7-7h107c3.9,0,7,3.1,7,7   C300.1,399.1,297,402.3,293.1,402.3z"/>
</g>
</svg>