<svg width="22" height="22" viewBox="0 0 22 22" fill="none" xmlns="http://www.w3.org/2000/svg">
    <path fill-rule="evenodd" clip-rule="evenodd" d="M11 5.5a3.667 3.667 0 1 0 0 7.333A3.667 3.667 0 0 0 11 5.5zM9.167 9.167a1.833 1.833 0 1 1 3.666 0 1.833 1.833 0 0 1-3.666 0z" fill="#909196"/>
    <path fill-rule="evenodd" clip-rule="evenodd" d="M10.922 1.833a7.252 7.252 0 0 0-7.256 7.25c0 1.431.424 2.83 1.218 4.02l3.928 5.893a2.63 2.63 0 0 0 4.376 0l3.928-5.893a7.246 7.246 0 0 0-2.304-10.235 7.262 7.262 0 0 0-3.734-1.035h-.155zM8.133 4.44a5.429 5.429 0 0 1 2.79-.773h.155A5.419 5.419 0 0 1 16.5 9.084a5.413 5.413 0 0 1-.908 3.002l-3.928 5.893a.797.797 0 0 1-1.325 0l-3.929-5.893A5.413 5.413 0 0 1 8.131 4.44z" fill="#909196"/>
</svg>
