<svg width="34" height="34" viewBox="0 0 34 34" fill="none" xmlns="http://www.w3.org/2000/svg">
    <path d="M25.062 28.505c.114-13.15.052-21.828.052-23.096-.009-1.16-.023-2.6-1.463-3.036-1.032-.314-2.023-.055-3.037-.055h-9.277c-.137 0-.296-.01-.464-.023-.223-.013-.459-.032-.7-.032-.386 0-1.56 0-1.827 1.119-.373 1.545-.148 24.868-.148 24.955-.018 3.936 1.278 3.55 3.523 3.55 7.323 0 7.26 0 9.623.004.896 0 2.505.4 3.305-.422.709-.728.413-2.018.413-2.964zm-9.84-25.087 3.24.067a.341.341 0 0 1-.006.682h-.008l-3.24-.068a.341.341 0 0 1-.334-.348.338.338 0 0 1 .348-.333zm1.872 27.414c-.893.47-1.653-.35-1.319-1.24.15-.405.478-.692.846-.741.504-.073.995.318 1.077.822.073.455-.172.932-.604 1.16zm5.968-3.118c-.045 0-.145.087-.636.087-.5 0-1.01-.082-1.523-.082-10.559-.005-10.487.104-10.627-.096-.546-.773-.076-21.464-.08-21.51-.05-.918.927-.736 1.531-.736 12.155 0 9.1-.086 10.264-.086 1.114 0 1.105 1.231 1.146 1.995.631 11.305-.12 18.073-.034 19.587-.023.264.009.69-.041.84v.001z" fill="#199A8E"/>
    <path d="M21.699 18.936c-.037.155-.1.232-.132.273-1.096 1.319-2.895 2.105-4.81 2.105-.713 0-1.408-.11-2.063-.323-.104-.032-2.55-.832-2.832-1.963-.3-1.191 1.355-1.414 1.755-1.633.023-.013.454-.304.89-.577.028.041.064.087.096.128.137.172.491.55.814.859.505.477 1.041.718 1.586.718.887 0 1.619-.632 2.169-1.55.4.232.831.463 1.127.577.563.204 1.504.555 1.4 1.386z" fill="#199A8E"/>
    <path d="M19.52 13.99c-.426 2.38-1.86 4.99-3.636 3.319a9.275 9.275 0 0 1-.746-.786c-1.432-1.79-1.178-4.066-.118-5.587.39-.559 1.091-.882 1.923-.882.809 0 1.59.319 2.036.837.605.7.787 1.745.541 3.1z" fill="#199A8E"/>
</svg>
