<svg width="50" height="28" viewBox="0 0 50 28" fill="none" xmlns="http://www.w3.org/2000/svg">
<path d="M23.1572 0C23.275 0.0444944 23.3921 0.0911486 23.5107 0.13309C23.9096 0.274133 24.3267 0.374162 24.7052 0.560359C26.2833 1.33655 27.3141 2.6236 27.8106 4.36862C27.9065 4.76342 27.9685 5.16644 27.9958 5.57285C28.015 5.75642 28.0703 5.82346 28.2454 5.81781C28.5529 5.80787 28.861 5.81978 29.1687 5.81511C29.3078 5.813 29.3697 5.86861 29.3638 6.0176C29.3575 6.17502 29.3629 6.33295 29.3629 6.49065C29.3627 12.032 29.3624 17.5734 29.3621 23.1148C29.3587 23.1864 29.3591 23.2581 29.3632 23.3297C29.3834 23.5177 29.3097 23.576 29.1295 23.5751C27.8093 23.5679 26.4891 23.5678 25.1688 23.5746C24.9956 23.5756 24.935 23.5081 24.9375 23.3421C24.9387 23.2561 24.934 23.1701 24.934 23.0841C24.9338 20.9909 24.9336 18.8976 24.9337 16.8044C24.9336 16.3924 24.955 16.4407 24.5968 16.4404C23.0508 16.4392 21.5048 16.4435 19.9588 16.4351C19.76 16.434 19.7077 16.4928 19.7084 16.6996C19.7155 18.886 19.7129 21.0724 19.7126 23.2589C19.7126 23.57 19.7118 23.5707 19.4096 23.5707C18.1235 23.571 16.8374 23.567 15.5514 23.575C15.3501 23.5762 15.2806 23.5235 15.2808 23.2993C15.2859 17.5787 15.2868 11.8581 15.2836 6.1375C15.2836 5.82149 15.284 5.8196 15.5928 5.81623C15.8527 5.81338 16.1128 5.81068 16.3725 5.8175C16.5232 5.82145 16.5813 5.77436 16.595 5.60028C16.7585 3.51489 17.6986 1.92473 19.3978 0.828607C19.939 0.492306 20.5287 0.250437 21.1439 0.112464C21.2048 0.0848917 21.2609 0.0468857 21.31 2.95753e-06L23.1572 0ZM19.712 9.03894H19.7127C19.7127 10.0065 19.7127 10.9741 19.7127 11.9417C19.7126 12.256 19.7124 12.2562 20.0136 12.2561C21.5661 12.2556 23.1187 12.2553 24.6712 12.2549C24.9517 12.255 24.9509 12.2566 24.9509 11.9547C24.9504 10.0482 24.9507 8.14168 24.9516 6.23517C24.9524 5.77683 24.8904 5.81887 25.3425 5.81698C25.9376 5.81449 26.5327 5.80928 27.1276 5.81878C27.3131 5.82174 27.3655 5.7498 27.3558 5.56622C27.325 4.99298 27.193 4.43069 26.9666 3.90783C26.3145 2.38601 25.2337 1.35621 23.7021 0.883245C22.9831 0.665103 22.2269 0.616712 21.4879 0.741555C20.7489 0.866397 20.0455 1.16137 19.4283 1.60524C18.8111 2.04911 18.2955 2.63084 17.9186 3.30857C17.5416 3.98629 17.3128 4.74315 17.2484 5.52468C17.2256 5.81388 17.238 5.81537 17.5078 5.81557C18.1438 5.81605 18.7799 5.81635 19.416 5.81646C19.7108 5.81678 19.7117 5.8175 19.7119 6.13618C19.7123 7.10377 19.7124 8.07135 19.712 9.03894ZM16.6131 6.95885C16.6068 7.06638 16.641 7.17222 16.7083 7.25366C16.7756 7.3351 16.8706 7.38567 16.9731 7.39451C17.0259 7.398 17.0788 7.39048 17.1289 7.37236C17.1789 7.35425 17.225 7.32592 17.2644 7.289C17.3039 7.25209 17.336 7.20733 17.3589 7.15732C17.3817 7.10731 17.3949 7.05304 17.3976 6.99766C17.395 6.89346 17.3564 6.79378 17.2888 6.71727C17.2213 6.64077 17.1294 6.59268 17.0305 6.58201C16.9276 6.57458 16.826 6.60998 16.7479 6.68054C16.6697 6.75109 16.6213 6.8511 16.6131 6.95885H16.6131ZM28.0017 6.99737C28.005 6.94353 27.9976 6.88955 27.98 6.83885C27.9624 6.78814 27.935 6.7418 27.8995 6.70273C27.864 6.66366 27.8212 6.63272 27.7737 6.61184C27.7262 6.59096 27.6751 6.5806 27.6236 6.58141C27.5726 6.58199 27.5222 6.59311 27.4752 6.61412C27.4283 6.63513 27.3857 6.66562 27.35 6.70386C27.3143 6.74209 27.2862 6.78732 27.2672 6.83697C27.2481 6.88661 27.2386 6.93969 27.2392 6.99318C27.2398 7.04667 27.2504 7.09952 27.2704 7.14872C27.2905 7.19791 27.3196 7.24249 27.356 7.2799C27.3925 7.31731 27.4357 7.34682 27.4831 7.36675C27.5304 7.38668 27.5811 7.39664 27.6321 7.39605C27.6818 7.39683 27.7311 7.38696 27.777 7.36705C27.8229 7.34714 27.8644 7.31762 27.899 7.28028C27.9336 7.24295 27.9606 7.19859 27.9783 7.14994C27.9959 7.10129 28.0039 7.04938 28.0017 6.99737Z" fill="white"/>
<path d="M39.5064 11.5063C39.0956 11.5429 38.7185 11.5501 38.3502 11.6138C36.7714 11.8867 35.6182 13.1541 35.3815 14.8104C35.0883 16.8615 36.2767 18.6949 38.1369 19.1674C39.0488 19.411 40.0152 19.2766 40.8348 18.7921C41.6545 18.3077 42.2643 17.5106 42.5371 16.5668C42.6573 16.1418 42.7217 15.7018 42.7286 15.2586C42.7454 13.3232 42.7232 11.3875 42.7293 9.45192C42.7319 8.62189 42.7262 7.78768 42.8014 6.9631C42.8967 5.91763 43.2536 4.9472 43.7772 4.04982C44.6322 2.58438 45.7987 1.49143 47.3221 0.837289C48.1139 0.496824 48.9573 0.307111 49.8126 0.277062C49.9637 0.271419 50.0003 0.326607 49.9998 0.471489C49.9963 1.64005 49.9964 2.80862 50.0001 3.97719C50.0006 4.11616 49.9526 4.16108 49.8249 4.17528C48.3166 4.3431 47.258 5.16467 46.6911 6.63254C46.5338 7.04442 46.45 7.48306 46.4438 7.92664C46.4207 10.3424 46.4276 12.7585 46.435 15.1745C46.4397 16.7529 46.0936 18.227 45.2724 19.5593C44.2043 21.2919 42.7227 22.4551 40.8061 22.9404C38.873 23.43 37.0163 23.1631 35.2885 22.1072C34.3555 21.5378 33.5526 20.7616 32.9359 19.8329C32.3192 18.9042 31.9036 17.8454 31.7183 16.7308C31.533 15.6161 31.5824 14.4725 31.8631 13.38C32.1438 12.2875 32.6489 11.2724 33.3432 10.4059C34.0813 9.4723 35.0154 8.79952 36.0454 8.26127C37.0077 7.75836 38.0285 7.6009 39.09 7.65909C39.0968 7.65946 39.1036 7.65937 39.1105 7.65968C39.489 7.67696 39.4878 7.67697 39.4896 8.07195C39.4946 9.13291 39.5001 10.1939 39.5063 11.2548C39.5068 11.3392 39.5064 11.4236 39.5064 11.5063Z" fill="white"/>
<path d="M8.45124 16.7284C8.45135 18.9005 8.45135 21.0726 8.45126 23.2447C8.45123 23.5674 8.45069 23.5701 8.13508 23.5704C6.90377 23.5718 5.67246 23.5721 4.44114 23.5714C4.15488 23.5714 4.15328 23.5712 4.15327 23.2758C4.15307 18.9818 4.15326 14.6877 4.15383 10.3937C4.15392 9.88446 4.15608 9.88446 3.66304 9.88447C2.52748 9.88448 1.3919 9.88014 0.256401 9.88869C0.0635243 9.89014 -0.00166748 9.83997 3.22702e-05 9.62727C0.00954029 8.43735 0.00975359 7.24738 0.000672208 6.05734C-0.000545733 5.86885 0.0503221 5.81278 0.231186 5.81298C4.26035 5.81745 8.28952 5.81697 12.3187 5.81152C12.5338 5.8112 12.5824 5.89296 12.5811 6.10101C12.5736 7.27662 12.5739 8.45226 12.5819 9.62793C12.5835 9.84446 12.5068 9.88933 12.3182 9.88816C11.128 9.88084 9.93766 9.88436 8.74738 9.8846C8.45204 9.88466 8.45129 9.88518 8.45125 10.1905C8.45103 12.3698 8.45102 14.5491 8.45124 16.7284Z" fill="white"/>
<path d="M43.5895 25.626C43.5899 25.842 43.5497 26.0559 43.4711 26.2556C43.3926 26.4552 43.2773 26.6367 43.1318 26.7896C42.9862 26.9426 42.8134 27.064 42.6231 27.1469C42.4328 27.2297 42.2288 27.2725 42.0227 27.2727C41.8166 27.273 41.6125 27.2306 41.422 27.1481C41.2316 27.0656 41.0585 26.9446 40.9127 26.792C40.7669 26.6394 40.6512 26.4581 40.5723 26.2587C40.4933 26.0592 40.4527 25.8453 40.4526 25.6293C40.4544 25.195 40.6203 24.779 40.9139 24.4723C41.2075 24.1657 41.605 23.9933 42.0195 23.9929C42.434 23.9924 42.8319 24.164 43.1261 24.47C43.4203 24.776 43.5869 25.1916 43.5895 25.626Z" fill="white"/>
<path d="M37.2921 25.6326C37.335 26.4862 36.6257 27.2671 35.7388 27.2695C35.5335 27.2689 35.3304 27.226 35.1409 27.1432C34.9515 27.0604 34.7795 26.9393 34.6347 26.7868C34.4899 26.6343 34.3752 26.4535 34.2972 26.2545C34.2191 26.0556 34.1792 25.8425 34.1797 25.6274C34.1802 25.4123 34.2211 25.1994 34.3002 25.0009C34.3792 24.8024 34.4948 24.6221 34.6403 24.4704C34.7858 24.3187 34.9584 24.1985 35.1482 24.1167C35.338 24.0349 35.5414 23.9931 35.7466 23.9936C35.9519 23.9909 36.1555 24.0316 36.3454 24.1133C36.5353 24.195 36.7075 24.3159 36.8517 24.4689C36.996 24.6219 37.1093 24.8038 37.185 25.0038C37.2607 25.2037 37.2971 25.4176 37.2921 25.6326Z" fill="white"/>
<path d="M16.613 6.95887C16.6212 6.85112 16.6697 6.75111 16.7478 6.68056C16.826 6.61 16.9275 6.5746 17.0304 6.58203C17.1294 6.5927 17.2212 6.64079 17.2888 6.71729C17.3563 6.7938 17.395 6.89348 17.3975 6.99768C17.3948 7.05306 17.3817 7.10733 17.3588 7.15734C17.336 7.20735 17.3039 7.25211 17.2644 7.28902C17.2249 7.32594 17.1788 7.35427 17.1288 7.37238C17.0788 7.39049 17.0259 7.39802 16.9731 7.39453C16.8706 7.38569 16.7755 7.33512 16.7082 7.25368C16.6409 7.17224 16.6068 7.0664 16.613 6.95887Z" fill="white"/>
<path d="M28.0018 6.99744C28.004 7.04944 27.996 7.10136 27.9783 7.15001C27.9607 7.19865 27.9337 7.24301 27.8991 7.28034C27.8645 7.31767 27.823 7.3472 27.7771 7.36711C27.7312 7.38702 27.6819 7.39689 27.6322 7.39611C27.5812 7.39669 27.5305 7.38674 27.4831 7.36681C27.4358 7.34688 27.3926 7.31737 27.3561 7.27996C27.3196 7.24255 27.2905 7.19797 27.2705 7.14878C27.2504 7.09958 27.2398 7.04673 27.2393 6.99324C27.2387 6.93975 27.2482 6.88667 27.2672 6.83703C27.2863 6.78738 27.3144 6.74215 27.3501 6.70392C27.3858 6.66568 27.4284 6.63518 27.4753 6.61418C27.5222 6.59317 27.5727 6.58205 27.6237 6.58146C27.6752 6.58066 27.7263 6.59102 27.7738 6.61189C27.8212 6.63277 27.8641 6.66372 27.8996 6.70279C27.9351 6.74186 27.9625 6.7882 27.9801 6.83891C27.9977 6.88961 28.0051 6.94359 28.0018 6.99744Z" fill="white"/>
</svg>
