<svg width="35" height="34" viewBox="0 0 35 34" fill="none" xmlns="http://www.w3.org/2000/svg">
    <rect x=".9" y=".4" width="33.2" height="33.2" rx="7.6" stroke="#F7773F" stroke-width=".8"/>
    <path fill-rule="evenodd" clip-rule="evenodd" d="M15 8.667a4.167 4.167 0 0 0-4.167 4.166v10.834H10a.833.833 0 1 0 0 1.666h15a.833.833 0 0 0 0-1.666h-.833V12.833A4.167 4.167 0 0 0 20 8.667h-5zm5.833 15a3.333 3.333 0 1 0-6.666 0h6.666zM14.167 13.25a1.25 1.25 0 1 1 2.5 0 1.25 1.25 0 0 1-2.5 0zm1.25 2.917a1.25 1.25 0 1 0 0 2.5 1.25 1.25 0 0 0 0-2.5zm2.916-2.917a1.25 1.25 0 1 1 2.5 0 1.25 1.25 0 0 1-2.5 0zm1.25 2.917a1.25 1.25 0 1 0 0 2.5 1.25 1.25 0 0 0 0-2.5z" fill="#F7773F"/>
</svg>
