<svg width="22" height="22" viewBox="0 0 22 22" fill="none" xmlns="http://www.w3.org/2000/svg">
<g id="icon_recommend 1">
<path id="Union" fill-rule="evenodd" clip-rule="evenodd" d="M11 20.7778C10.5997 20.7778 10.2025 20.6739 9.84502 20.4692L8.89779 19.9222C8.73279 19.8275 8.5464 19.7756 8.35391 19.7756H7.26002C6.43807 19.7756 5.67113 19.3325 5.26168 18.6206L4.71474 17.6734C4.62002 17.5084 4.48252 17.3709 4.31752 17.2761L3.37029 16.7292C2.65835 16.3197 2.21529 15.5528 2.21529 14.7309V13.637C2.21529 13.4475 2.16641 13.2581 2.06863 13.0931L1.52168 12.1459C1.11224 11.4339 1.11224 10.5509 1.52168 9.83891L2.06863 8.89169C2.16335 8.72669 2.21529 8.5403 2.21529 8.3478V7.25391C2.21529 6.43197 2.65835 5.66502 3.37029 5.25558L4.31752 4.70864C4.48252 4.61391 4.62002 4.47641 4.71474 4.31141L5.26168 3.36419C5.67113 2.65225 6.43807 2.20919 7.26002 2.20919H8.35391C8.54335 2.20919 8.73279 2.1603 8.89779 2.06252L9.84502 1.51558C10.557 1.10613 11.44 1.10613 12.152 1.51558L13.0992 2.06252C13.2642 2.15725 13.4506 2.20919 13.6431 2.20919H14.737C15.5589 2.20919 16.3259 2.65225 16.7353 3.36419L17.2822 4.31141C17.377 4.47641 17.5145 4.61391 17.6795 4.70864L18.6267 5.25558C19.3386 5.66502 19.7817 6.43197 19.7817 7.25391V8.3478C19.7817 8.53725 19.8306 8.72669 19.9284 8.89169L20.4753 9.83891C20.8847 10.5509 20.8847 11.4339 20.4753 12.1459L19.9284 13.0931C19.8336 13.2581 19.7817 13.4445 19.7817 13.637V14.7309C19.7817 15.5528 19.3386 16.3197 18.6267 16.7292L17.6795 17.2761C17.5145 17.3709 17.377 17.5084 17.2822 17.6734L16.7353 18.6206C16.3259 19.3325 15.5589 19.7756 14.737 19.7756H13.6431C13.4536 19.7756 13.2642 19.8275 13.1022 19.9222L12.155 20.4692C11.8006 20.6739 11.4003 20.7778 11 20.7778ZM7.26613 3.44669C6.88113 3.44669 6.52057 3.65447 6.32502 3.99058L5.77807 4.9378C5.57641 5.28919 5.28307 5.57947 4.93474 5.78114L3.98752 6.32808C3.65141 6.52058 3.44363 6.88114 3.44363 7.26919V8.36308C3.44363 8.76641 3.33668 9.16669 3.13502 9.51502L2.58807 10.4622C2.39557 10.7984 2.39557 11.2139 2.58807 11.547L3.13502 12.4942C3.33668 12.8456 3.44363 13.2428 3.44363 13.6492V14.7431C3.44363 15.1281 3.65141 15.4886 3.98752 15.6842L4.93474 16.2311C5.28613 16.4328 5.57641 16.7261 5.77807 17.0775L6.32502 18.0247C6.51752 18.3578 6.87807 18.5686 7.26613 18.5686H8.36002C8.76335 18.5686 9.16363 18.6756 9.51502 18.8772L10.4622 19.4242C10.7953 19.6167 11.2139 19.6167 11.547 19.4242L12.4942 18.8772C12.8456 18.6756 13.2428 18.5686 13.6492 18.5686H14.7431C15.1311 18.5686 15.4886 18.3609 15.6842 18.0247L16.2311 17.0775C16.4328 16.7261 16.7261 16.4359 17.0745 16.2342L18.0217 15.6872C18.3578 15.4947 18.5656 15.1342 18.5656 14.7461V13.6522C18.5656 13.2489 18.6725 12.8486 18.8742 12.4972L19.4211 11.55C19.6136 11.2139 19.6136 10.7984 19.4211 10.4653L18.8742 9.51808C18.6725 9.16669 18.5656 8.76947 18.5656 8.36308V7.26919C18.5656 6.88419 18.3578 6.52363 18.0217 6.32808L17.0745 5.78114C16.7231 5.57947 16.4328 5.28614 16.2311 4.9378L15.6842 3.99058C15.4917 3.65447 15.1311 3.44669 14.7431 3.44669H13.6492C13.2458 3.44669 12.8456 3.33975 12.4942 3.13808L11.547 2.59113C11.2139 2.39863 10.7953 2.39863 10.4622 2.59113L9.51502 3.13808C9.16363 3.33975 8.76641 3.44669 8.36002 3.44669H7.26613ZM8.50363 14.1595V10.3522H7.21113V14.1595H8.50363ZM9.72585 10.0925V14.1595H14.3917C14.6972 14.1595 14.957 13.9517 15.0211 13.6522L15.7178 10.5081C15.7606 10.3156 15.7147 10.117 15.5925 9.96419C15.4703 9.81141 15.287 9.7228 15.0884 9.7228H12.8853C12.5492 9.7228 12.2742 9.4478 12.2742 9.11169V7.54113C12.2742 7.28447 12.1733 7.04308 11.9931 6.8628C11.8128 6.68252 11.5714 6.58169 11.3147 6.58169H10.9817V7.70919C10.9817 8.6778 10.5081 9.5578 9.72585 10.0925ZM9.17586 15.3817H14.3917C15.2747 15.3817 16.0233 14.7797 16.2158 13.9181L16.9156 10.7739C17.0378 10.2178 16.9064 9.64641 16.5489 9.2003C16.1914 8.75419 15.6597 8.50058 15.0914 8.50058H13.4995V7.54113C13.4995 6.95752 13.2733 6.41058 12.8608 5.99808C12.4483 5.58558 11.9014 5.35947 11.3178 5.35947H10.3736C10.0375 5.35947 9.76252 5.63447 9.76252 5.97058V7.70919C9.76252 8.3 9.45886 8.83272 8.95956 9.13308H6.60002C6.26391 9.13308 5.9889 9.40808 5.9889 9.74419V14.7706C5.9889 15.1067 6.26391 15.3817 6.60002 15.3817L9.11474 15.3817L9.11474 15.3847C9.13536 15.3847 9.15575 15.3837 9.17586 15.3817Z" fill="#F6F6F6"/>
</g>
</svg>
