<svg width="29" height="29" viewBox="0 0 29 29" fill="none" xmlns="http://www.w3.org/2000/svg">
    <path fill-rule="evenodd" clip-rule="evenodd" d="M8.458 4.833a6.042 6.042 0 0 0-6.042 6.042v7.25a6.042 6.042 0 0 0 6.042 6.042h7.25c3 0 5.49-2.187 5.961-5.053.07.051.14.1.213.149l1.614 1.076c.199.132.432.203.67.203a2.417 2.417 0 0 0 2.417-2.417v-7.25a2.417 2.417 0 0 0-2.416-2.416c-.24 0-.472.07-.67.202l-1.615 1.077a5.762 5.762 0 0 0-.213.148 6.043 6.043 0 0 0-5.96-5.052h-7.25zm10.875 6.042a3.625 3.625 0 0 0-3.625-3.625h-7.25a3.625 3.625 0 0 0-3.625 3.625v7.25a3.625 3.625 0 0 0 3.625 3.625h7.25a3.625 3.625 0 0 0 3.625-3.625v-7.25z" fill="#199A8E"/>
</svg>
