<svg width="16" height="17" viewBox="0 0 16 17" fill="none" xmlns="http://www.w3.org/2000/svg">
<path d="M7.48544 6.76996C7.17405 6.89894 6.81562 6.82764 6.57729 6.58931L4.08229 4.09431C3.92852 3.94313 3.83317 3.73273 3.83317 3.50005C3.83317 3.26741 3.92851 3.05702 4.08224 2.90585L6.57735 0.410838C6.81569 0.172512 7.17412 0.101223 7.48551 0.230211C7.7969 0.359199 7.99993 0.663064 7.99993 1.00011L7.99991 2.66672C11.9119 2.66676 15.0832 5.83806 15.0832 9.75006C15.0832 13.6621 11.9119 16.8334 7.99984 16.8334C4.08782 16.8334 0.916504 13.6621 0.916504 9.75005V9.33339C0.916504 8.87315 1.2896 8.50005 1.74984 8.50005C2.21007 8.50005 2.58317 8.87315 2.58317 9.33339V9.75005C2.58317 12.7416 5.0083 15.1667 7.99984 15.1667C10.9914 15.1667 13.4165 12.7416 13.4165 9.75006C13.4165 6.75853 10.9914 4.33342 7.9999 4.33339L7.99988 6.00006C7.99988 6.33711 7.79684 6.64097 7.48544 6.76996Z" fill="#199A8E"/>
</svg>
