<svg width="36" height="36" viewBox="0 0 36 36" fill="none" xmlns="http://www.w3.org/2000/svg">
<path fill-rule="evenodd" clip-rule="evenodd" d="M3 18C3 9.71573 9.71573 3 18 3C26.2843 3 33 9.71573 33 18C33 26.2843 26.2843 33 18 33C9.71573 33 3 26.2843 3 18ZM21.4393 23.5607C22.0251 24.1464 22.9749 24.1464 23.5607 23.5607C24.1464 22.9749 24.1464 22.0251 23.5607 21.4393L20.1213 18L23.5607 14.5607C24.1464 13.9749 24.1464 13.0251 23.5607 12.4393C22.9749 11.8536 22.0251 11.8536 21.4393 12.4393L18 15.8787L14.5607 12.4393C13.9749 11.8536 13.0251 11.8536 12.4393 12.4393C11.8536 13.0251 11.8536 13.9749 12.4393 14.5607L15.8787 18L12.4393 21.4393C11.8536 22.0251 11.8536 22.9749 12.4393 23.5607C13.0251 24.1464 13.9749 24.1464 14.5607 23.5607L18 20.1213L21.4393 23.5607Z" fill="white" fill-opacity="0.63"/>
</svg>
