<svg width="33" height="32" viewBox="0 0 33 32" fill="none" xmlns="http://www.w3.org/2000/svg">
<path d="M12.7601 29.3333H20.7601C27.4267 29.3333 30.0934 26.6667 30.0934 20V12C30.0934 5.33334 27.4267 2.66667 20.7601 2.66667H12.7601C6.09339 2.66667 3.42673 5.33334 3.42673 12V20C3.42673 26.6667 6.09339 29.3333 12.7601 29.3333Z" stroke="#199A8E" stroke-width="2" stroke-linecap="round" stroke-linejoin="round"/>
<path d="M3.42673 16.9333L11.4267 16.9067C12.4267 16.9067 13.5467 17.6667 13.9201 18.6L15.4401 22.44C15.7867 23.3067 16.3334 23.3067 16.6801 22.44L19.7334 14.6933C20.0267 13.9467 20.5734 13.92 20.9467 14.6267L22.3334 17.2533C22.7467 18.04 23.8134 18.68 24.6934 18.68H30.1067" stroke="#199A8E" stroke-width="2" stroke-linecap="round" stroke-linejoin="round"/>
</svg>
