<svg xmlns="http://www.w3.org/2000/svg" xmlns:xlink="http://www.w3.org/1999/xlink" width="1080" zoomAndPan="magnify" viewBox="0 0 810 809.999993" height="1080" preserveAspectRatio="xMidYMid meet" version="1.0"><defs><clipPath id="822814d890"><path d="M 81 150.035156 L 726 150.035156 L 726 592 L 81 592 Z M 81 150.035156 " clip-rule="nonzero"/></clipPath></defs><g clip-path="url(#822814d890)"><path fill="#ffffff" d="M 454.265625 222.761719 L 454.265625 201.71875 C 454.265625 187.972656 448.839844 175.082031 439.503906 165.921875 C 430 156.238281 417.105469 150.816406 403.363281 150.816406 C 375.371094 150.816406 352.46875 173.730469 352.46875 201.71875 L 352.46875 222.761719 C 198.746094 247.191406 81 380.539062 81 541.050781 L 81.007812 574.976562 C 81.007812 584.308594 88.648438 591.953125 97.96875 591.953125 L 708.761719 591.953125 C 718.089844 591.953125 725.730469 584.3125 725.730469 574.976562 L 725.730469 541.050781 C 725.730469 380.539062 607.988281 247.191406 454.265625 222.761719 M 386.402344 201.71875 C 386.402344 192.386719 394.035156 184.753906 403.363281 184.753906 C 407.949219 184.75 412.015625 186.449219 415.414062 190.007812 C 418.640625 193.070312 420.335938 197.132812 420.335938 201.710938 L 420.335938 219.015625 C 414.730469 218.847656 408.972656 218.679688 403.371094 218.679688 C 397.777344 218.679688 392.011719 218.839844 386.402344 219.023438 Z M 691.796875 558.019531 L 114.933594 558.019531 L 114.933594 541.050781 C 114.933594 382.066406 244.386719 252.617188 403.363281 252.617188 C 562.347656 252.613281 691.796875 382.074219 691.796875 541.050781 Z M 691.796875 558.019531 " fill-opacity="1" fill-rule="evenodd"/></g><path fill="#ffffff" d="M 708.761719 659.816406 L 97.96875 659.816406 C 88.59375 659.816406 81 652.222656 81 642.847656 C 81.007812 633.480469 88.59375 625.886719 97.96875 625.886719 L 708.761719 625.878906 C 718.136719 625.878906 725.730469 633.488281 725.730469 642.847656 C 725.730469 652.210938 718.136719 659.816406 708.761719 659.816406 " fill-opacity="1" fill-rule="evenodd"/></svg>