<svg width="20" height="20" viewBox="0 0 20 20" fill="none" xmlns="http://www.w3.org/2000/svg">
<path d="M6.66675 9.99984C6.20651 9.99984 5.83342 10.3729 5.83342 10.8332C5.83342 11.2934 6.20651 11.6665 6.66675 11.6665H13.3334C13.7937 11.6665 14.1667 11.2934 14.1667 10.8332C14.1667 10.3729 13.7937 9.99984 13.3334 9.99984H6.66675Z" fill="#F0F0F4"/>
<path d="M5.83342 14.1665C5.83342 13.7063 6.20651 13.3332 6.66675 13.3332H10.0001C10.4603 13.3332 10.8334 13.7063 10.8334 14.1665C10.8334 14.6267 10.4603 14.9998 10.0001 14.9998H6.66675C6.20651 14.9998 5.83342 14.6267 5.83342 14.1665Z" fill="#F0F0F4"/>
<path fill-rule="evenodd" clip-rule="evenodd" d="M5.83342 1.6665C6.29365 1.6665 6.66675 2.0396 6.66675 2.49984V3.33317H13.3334V2.49984C13.3334 2.0396 13.7065 1.6665 14.1667 1.6665C14.627 1.6665 15.0001 2.0396 15.0001 2.49984V3.41652C16.9019 3.80258 18.3334 5.48404 18.3334 7.49984V14.1665C18.3334 16.4677 16.4679 18.3332 14.1667 18.3332H5.83342C3.53223 18.3332 1.66675 16.4677 1.66675 14.1665V7.49984C1.66675 5.48404 3.09821 3.80258 5.00008 3.41652V2.49984C5.00008 2.0396 5.37318 1.6665 5.83342 1.6665ZM16.6667 8.33317H3.33341V14.1665C3.33341 15.5472 4.4527 16.6665 5.83342 16.6665H14.1667C15.5475 16.6665 16.6667 15.5472 16.6667 14.1665V8.33317Z" fill="#F0F0F4"/>
</svg>
