<svg xmlns="http://www.w3.org/2000/svg" xmlns:xlink="http://www.w3.org/1999/xlink" width="1080" zoomAndPan="magnify" viewBox="0 0 810 809.999993" height="1080" preserveAspectRatio="xMidYMid meet" version="1.0"><defs><clipPath id="d3a4bc5d24"><path d="M 86 479 L 335 479 L 335 727.523438 L 86 727.523438 Z M 86 479 " clip-rule="nonzero"/></clipPath></defs><path fill="#57a29d" d="M 462.632812 597.539062 C 467.667969 597.539062 472.703125 597.386719 477.726562 597.082031 C 482.753906 596.777344 487.769531 596.316406 492.765625 595.699219 C 497.765625 595.085938 502.742188 594.320312 507.691406 593.398438 C 512.644531 592.480469 517.5625 591.410156 522.449219 590.1875 C 527.335938 588.964844 532.179688 587.59375 536.980469 586.078125 C 541.78125 584.558594 546.53125 582.890625 551.230469 581.082031 C 555.929688 579.269531 560.570312 577.316406 565.148438 575.222656 C 569.730469 573.125 574.238281 570.890625 578.683594 568.519531 C 583.125 566.144531 587.492188 563.640625 591.777344 561 C 596.066406 558.359375 600.269531 555.589844 604.390625 552.691406 C 608.507812 549.792969 612.535156 546.769531 616.464844 543.625 C 620.398438 540.476562 624.230469 537.214844 627.964844 533.832031 C 631.695312 530.453125 635.320312 526.957031 638.839844 523.355469 C 642.359375 519.75 645.761719 516.042969 649.050781 512.230469 C 652.34375 508.417969 655.511719 504.507812 658.5625 500.5 C 661.613281 496.492188 664.539062 492.394531 667.335938 488.207031 C 670.136719 484.019531 672.804688 479.75 675.339844 475.402344 C 677.875 471.050781 680.277344 466.625 682.542969 462.128906 C 684.808594 457.628906 686.933594 453.066406 688.917969 448.4375 C 690.902344 443.808594 692.742188 439.125 694.441406 434.382812 C 696.136719 429.640625 697.6875 424.851562 699.089844 420.015625 C 700.492188 415.175781 701.746094 410.300781 702.851562 405.386719 C 703.953125 400.472656 704.90625 395.53125 705.707031 390.558594 C 706.507812 385.585938 707.15625 380.59375 707.648438 375.582031 C 708.140625 370.570312 708.480469 365.546875 708.667969 360.515625 C 708.851562 355.480469 708.882812 350.449219 708.757812 345.414062 C 708.636719 340.378906 708.359375 335.351562 707.925781 330.335938 C 707.492188 325.316406 706.90625 320.316406 706.167969 315.335938 C 705.429688 310.355469 704.539062 305.398438 703.496094 300.472656 C 702.449219 295.546875 701.257812 290.65625 699.914062 285.800781 C 698.570312 280.949219 697.078125 276.140625 695.441406 271.378906 C 693.800781 266.617188 692.019531 261.90625 690.089844 257.253906 C 688.164062 252.601562 686.09375 248.011719 683.882812 243.488281 C 681.675781 238.960938 679.328125 234.507812 676.84375 230.128906 C 674.363281 225.746094 671.746094 221.445312 669 217.222656 C 666.253906 213.003906 663.378906 208.871094 660.378906 204.824219 C 657.375 200.78125 654.253906 196.832031 651.011719 192.980469 C 647.765625 189.125 644.410156 185.375 640.933594 181.730469 C 637.460938 178.082031 633.878906 174.546875 630.1875 171.117188 C 626.5 167.691406 622.707031 164.382812 618.8125 161.1875 C 614.917969 157.996094 610.929688 154.921875 606.847656 151.972656 C 602.765625 149.023438 598.59375 146.203125 594.339844 143.511719 C 590.082031 140.816406 585.75 138.257812 581.335938 135.832031 C 576.921875 133.402344 572.441406 131.113281 567.886719 128.960938 C 563.332031 126.8125 558.71875 124.800781 554.042969 122.933594 C 549.363281 121.0625 544.632812 119.339844 539.851562 117.761719 C 535.070312 116.183594 530.242188 114.753906 525.371094 113.472656 C 520.5 112.191406 515.597656 111.0625 510.65625 110.082031 C 505.714844 109.101562 500.75 108.273438 495.761719 107.597656 C 490.769531 106.921875 485.761719 106.398438 480.742188 106.03125 C 475.71875 105.664062 470.6875 105.449219 465.652344 105.390625 C 460.617188 105.332031 455.582031 105.425781 450.554688 105.675781 C 445.523438 105.925781 440.503906 106.328125 435.5 106.886719 C 430.496094 107.445312 425.511719 108.15625 420.550781 109.019531 C 415.589844 109.882812 410.65625 110.898438 405.757812 112.0625 C 400.859375 113.230469 396 114.546875 391.179688 116.011719 C 386.363281 117.476562 381.59375 119.085938 376.875 120.84375 C 372.15625 122.601562 367.492188 124.5 362.890625 126.546875 C 358.289062 128.589844 353.75 130.773438 349.28125 133.09375 C 344.8125 135.417969 340.417969 137.875 336.101562 140.464844 C 331.785156 143.058594 327.550781 145.78125 323.398438 148.632812 C 319.246094 151.484375 315.1875 154.460938 311.21875 157.5625 C 307.25 160.664062 303.382812 163.882812 299.613281 167.222656 C 295.839844 170.558594 292.175781 174.011719 288.617188 177.574219 C 286.480469 179.710938 284.382812 181.882812 282.328125 184.09375 C 280.269531 186.304688 278.253906 188.554688 276.28125 190.839844 C 274.304688 193.128906 272.375 195.449219 270.484375 197.804688 C 268.597656 200.164062 266.753906 202.554688 264.953125 204.980469 C 263.152344 207.40625 261.398438 209.863281 259.6875 212.351562 C 257.976562 214.839844 256.3125 217.363281 254.695312 219.914062 C 253.078125 222.464844 251.507812 225.042969 249.988281 227.652344 C 248.464844 230.261719 246.992188 232.898438 245.566406 235.5625 C 244.140625 238.222656 242.765625 240.914062 241.441406 243.625 C 240.113281 246.339844 238.839844 249.078125 237.613281 251.839844 C 236.390625 254.597656 235.214844 257.382812 234.09375 260.1875 C 232.96875 262.988281 231.898438 265.8125 230.882812 268.65625 C 229.863281 271.5 228.898438 274.363281 227.984375 277.242188 C 227.070312 280.121094 226.210938 283.015625 225.40625 285.925781 C 224.597656 288.835938 223.84375 291.761719 223.148438 294.699219 C 222.449219 297.640625 221.804688 300.589844 221.214844 303.550781 C 220.625 306.511719 220.089844 309.484375 219.609375 312.46875 C 219.128906 315.449219 218.703125 318.4375 218.332031 321.4375 C 217.960938 324.433594 217.648438 327.4375 217.386719 330.449219 C 217.128906 333.457031 216.921875 336.46875 216.773438 339.488281 C 216.625 342.503906 216.53125 345.523438 216.496094 348.542969 C 216.457031 351.5625 216.476562 354.582031 216.550781 357.601562 C 216.625 360.621094 216.753906 363.636719 216.9375 366.652344 C 217.125 369.667969 217.363281 372.679688 217.660156 375.683594 C 217.957031 378.691406 218.308594 381.6875 218.714844 384.683594 C 219.121094 387.675781 219.582031 390.660156 220.097656 393.636719 C 220.613281 396.613281 221.183594 399.578125 221.808594 402.53125 C 222.4375 405.488281 223.117188 408.429688 223.847656 411.359375 C 224.582031 414.289062 225.371094 417.203125 226.210938 420.105469 C 227.054688 423.007812 227.949219 425.890625 228.894531 428.757812 C 229.84375 431.625 230.84375 434.476562 231.898438 437.308594 C 232.949219 440.136719 234.054688 442.949219 235.210938 445.738281 C 236.367188 448.53125 237.574219 451.296875 238.832031 454.042969 C 240.089844 456.789062 241.398438 459.511719 242.757812 462.207031 C 244.117188 464.90625 245.523438 467.578125 246.980469 470.222656 C 248.4375 472.871094 249.941406 475.488281 251.496094 478.078125 C 253.046875 480.667969 254.648438 483.230469 256.296875 485.761719 C 257.945312 488.292969 259.636719 490.792969 261.378906 493.261719 C 263.117188 495.730469 264.902344 498.167969 266.734375 500.570312 C 268.5625 502.972656 270.433594 505.34375 272.351562 507.675781 C 274.269531 510.011719 276.226562 512.308594 278.230469 514.570312 C 280.230469 516.832031 282.273438 519.058594 284.355469 521.246094 C 286.441406 523.429688 288.5625 525.578125 290.726562 527.6875 C 292.890625 529.796875 295.089844 531.863281 297.328125 533.890625 C 299.566406 535.917969 301.84375 537.90625 304.15625 539.847656 C 306.464844 541.792969 308.8125 543.691406 311.195312 545.550781 C 313.578125 547.40625 315.992188 549.21875 318.441406 550.988281 C 320.890625 552.757812 323.371094 554.480469 325.882812 556.15625 C 328.394531 557.832031 330.9375 559.460938 333.507812 561.046875 C 336.082031 562.628906 338.683594 564.164062 341.3125 565.652344 C 343.941406 567.136719 346.59375 568.578125 349.277344 569.964844 C 351.960938 571.355469 354.664062 572.695312 357.398438 573.984375 C 360.128906 575.277344 362.882812 576.515625 365.660156 577.703125 C 368.4375 578.890625 371.234375 580.027344 374.050781 581.113281 C 376.871094 582.199219 379.707031 583.230469 382.566406 584.210938 C 385.421875 585.191406 388.296875 586.121094 391.1875 586.996094 C 394.078125 587.871094 396.984375 588.691406 399.90625 589.460938 C 402.828125 590.226562 405.761719 590.941406 408.707031 591.601562 C 411.65625 592.261719 414.613281 592.867188 417.585938 593.417969 C 420.554688 593.96875 423.53125 594.460938 426.519531 594.902344 C 429.507812 595.34375 432.503906 595.730469 435.507812 596.0625 C 438.507812 596.390625 441.515625 596.667969 444.527344 596.886719 C 447.542969 597.105469 450.558594 597.269531 453.574219 597.378906 C 456.59375 597.488281 459.613281 597.539062 462.632812 597.539062 Z M 462.632812 159.59375 C 466.300781 159.582031 469.96875 159.679688 473.628906 159.882812 C 477.292969 160.085938 480.945312 160.390625 484.589844 160.800781 C 488.238281 161.214844 491.867188 161.730469 495.484375 162.347656 C 499.097656 162.96875 502.691406 163.691406 506.265625 164.515625 C 509.839844 165.339844 513.390625 166.269531 516.910156 167.296875 C 520.429688 168.324219 523.921875 169.453125 527.375 170.683594 C 530.832031 171.910156 534.25 173.238281 537.632812 174.664062 C 541.011719 176.085938 544.347656 177.609375 547.640625 179.222656 C 550.933594 180.839844 554.179688 182.550781 557.375 184.351562 C 560.570312 186.152344 563.710938 188.042969 566.796875 190.027344 C 569.882812 192.007812 572.910156 194.078125 575.878906 196.230469 C 578.847656 198.386719 581.753906 200.625 584.59375 202.949219 C 587.433594 205.269531 590.203125 207.671875 592.90625 210.152344 C 595.609375 212.632812 598.238281 215.1875 600.792969 217.820312 C 603.347656 220.453125 605.828125 223.152344 608.226562 225.925781 C 610.628906 228.699219 612.949219 231.539062 615.1875 234.445312 C 617.425781 237.355469 619.578125 240.320312 621.644531 243.351562 C 623.714844 246.382812 625.691406 249.46875 627.582031 252.609375 C 629.472656 255.753906 631.273438 258.949219 632.980469 262.195312 C 634.691406 265.441406 636.304688 268.734375 637.824219 272.074219 C 639.34375 275.414062 640.765625 278.792969 642.089844 282.210938 C 643.414062 285.632812 644.640625 289.089844 645.769531 292.578125 C 646.898438 296.070312 647.921875 299.589844 648.847656 303.140625 C 649.773438 306.6875 650.597656 310.261719 651.320312 313.859375 C 652.039062 317.457031 652.65625 321.070312 653.171875 324.703125 C 653.683594 328.335938 654.09375 331.976562 654.398438 335.632812 C 654.703125 339.289062 654.902344 342.949219 655 346.617188 C 655.09375 350.285156 655.082031 353.953125 654.96875 357.617188 C 654.851562 361.285156 654.632812 364.945312 654.308594 368.597656 C 653.984375 372.253906 653.554688 375.894531 653.019531 379.523438 C 652.488281 383.152344 651.847656 386.761719 651.109375 390.355469 C 650.367188 393.949219 649.523438 397.515625 648.578125 401.0625 C 647.632812 404.605469 646.589844 408.121094 645.441406 411.605469 C 644.296875 415.089844 643.050781 418.539062 641.707031 421.949219 C 640.363281 425.363281 638.921875 428.734375 637.382812 432.066406 C 635.84375 435.398438 634.214844 438.679688 632.488281 441.917969 C 630.761719 445.15625 628.945312 448.339844 627.035156 451.472656 C 625.128906 454.605469 623.132812 457.679688 621.046875 460.699219 C 618.964844 463.71875 616.792969 466.671875 614.539062 469.566406 C 612.285156 472.460938 609.949219 475.289062 607.535156 478.050781 C 605.117188 480.808594 602.625 483.496094 600.054688 486.117188 C 597.484375 488.734375 594.84375 491.273438 592.125 493.738281 C 589.410156 496.207031 586.625 498.589844 583.773438 500.898438 C 580.921875 503.203125 578.003906 505.425781 575.023438 507.566406 C 572.042969 509.703125 569.003906 511.757812 565.90625 513.722656 C 562.808594 515.6875 559.660156 517.5625 556.453125 519.34375 C 553.25 521.128906 549.996094 522.820312 546.691406 524.417969 C 543.390625 526.015625 540.046875 527.519531 536.65625 528.925781 C 533.269531 530.332031 529.84375 531.636719 526.382812 532.847656 C 522.917969 534.058594 519.421875 535.167969 515.898438 536.175781 C 512.371094 537.1875 508.816406 538.09375 505.238281 538.898438 C 501.660156 539.707031 498.0625 540.40625 494.441406 541.007812 C 490.824219 541.605469 487.191406 542.101562 483.542969 542.492188 C 479.894531 542.886719 476.238281 543.171875 472.578125 543.351562 C 468.914062 543.535156 465.246094 543.613281 461.578125 543.582031 C 457.910156 543.554688 454.246094 543.421875 450.585938 543.183594 C 446.925781 542.945312 443.273438 542.601562 439.632812 542.152344 C 435.992188 541.707031 432.367188 541.15625 428.757812 540.5 C 425.148438 539.84375 421.5625 539.085938 417.996094 538.222656 C 414.429688 537.363281 410.890625 536.402344 407.382812 535.335938 C 403.871094 534.273438 400.394531 533.109375 396.949219 531.847656 C 393.503906 530.582031 390.101562 529.222656 386.734375 527.765625 C 383.367188 526.304688 380.046875 524.753906 376.769531 523.105469 C 373.492188 521.453125 370.265625 519.714844 367.089844 517.878906 C 363.914062 516.046875 360.789062 514.125 357.722656 512.109375 C 354.65625 510.097656 351.648438 508 348.703125 505.8125 C 345.757812 503.628906 342.875 501.363281 340.058594 499.011719 C 337.242188 496.660156 334.496094 494.234375 331.816406 491.726562 C 329.140625 489.21875 326.535156 486.636719 324.007812 483.980469 C 321.476562 481.320312 319.027344 478.59375 316.652344 475.796875 C 314.28125 473 311.988281 470.136719 309.78125 467.207031 C 307.570312 464.28125 305.449219 461.289062 303.410156 458.242188 C 301.375 455.191406 299.425781 452.085938 297.566406 448.921875 C 295.707031 445.761719 293.9375 442.546875 292.261719 439.285156 C 290.585938 436.019531 289.007812 432.710938 287.519531 429.359375 C 286.035156 426.003906 284.644531 422.609375 283.355469 419.175781 C 282.0625 415.742188 280.871094 412.277344 279.777344 408.773438 C 278.6875 405.273438 277.695312 401.742188 276.804688 398.183594 C 275.914062 394.625 275.128906 391.042969 274.441406 387.441406 C 273.757812 383.835938 273.175781 380.214844 272.699219 376.578125 C 272.222656 372.941406 271.847656 369.292969 271.578125 365.636719 C 271.3125 361.976562 271.148438 358.316406 271.089844 354.648438 C 271.03125 350.980469 271.078125 347.3125 271.230469 343.648438 C 271.382812 339.980469 271.636719 336.324219 272 332.675781 C 272.359375 329.023438 272.828125 325.386719 273.398438 321.761719 C 273.964844 318.140625 274.640625 314.535156 275.417969 310.949219 C 276.191406 307.363281 277.070312 303.804688 278.050781 300.269531 C 279.03125 296.734375 280.113281 293.230469 281.292969 289.757812 C 282.476562 286.285156 283.753906 282.847656 285.132812 279.449219 C 286.511719 276.050781 287.988281 272.691406 289.558594 269.378906 C 291.128906 266.0625 292.792969 262.796875 294.550781 259.574219 C 296.308594 256.355469 298.15625 253.191406 300.097656 250.078125 C 302.035156 246.960938 304.0625 243.90625 306.179688 240.910156 C 308.292969 237.914062 310.492188 234.976562 312.773438 232.105469 C 315.058594 229.234375 317.421875 226.429688 319.863281 223.695312 C 322.308594 220.960938 324.828125 218.296875 327.421875 215.703125 C 331.851562 211.273438 336.484375 207.070312 341.328125 203.09375 C 346.167969 199.121094 351.191406 195.390625 356.398438 191.910156 C 361.605469 188.425781 366.96875 185.207031 372.492188 182.25 C 378.015625 179.292969 383.667969 176.617188 389.453125 174.214844 C 395.238281 171.8125 401.128906 169.703125 407.121094 167.878906 C 413.113281 166.054688 419.179688 164.53125 425.324219 163.304688 C 431.464844 162.078125 437.65625 161.152344 443.886719 160.53125 C 450.121094 159.914062 456.371094 159.597656 462.632812 159.59375 Z M 462.632812 159.59375 " fill-opacity="1" fill-rule="nonzero"/><g clip-path="url(#d3a4bc5d24)"><path fill="#57a29d" d="M 113.789062 727.476562 C 115.5625 727.46875 117.320312 727.289062 119.054688 726.933594 C 120.792969 726.582031 122.480469 726.0625 124.117188 725.378906 C 125.75 724.695312 127.304688 723.859375 128.773438 722.867188 C 130.246094 721.878906 131.605469 720.753906 132.855469 719.496094 L 326.882812 525.605469 C 327.507812 524.980469 328.101562 524.324219 328.664062 523.640625 C 329.226562 522.953125 329.753906 522.242188 330.246094 521.507812 C 330.738281 520.769531 331.195312 520.011719 331.613281 519.230469 C 332.03125 518.449219 332.410156 517.648438 332.746094 516.828125 C 333.085938 516.011719 333.386719 515.175781 333.640625 514.328125 C 333.898438 513.480469 334.113281 512.621094 334.289062 511.753906 C 334.460938 510.882812 334.589844 510.007812 334.675781 509.125 C 334.765625 508.246094 334.808594 507.359375 334.808594 506.472656 C 334.808594 505.589844 334.765625 504.703125 334.675781 503.820312 C 334.589844 502.941406 334.460938 502.066406 334.289062 501.195312 C 334.113281 500.328125 333.898438 499.46875 333.640625 498.621094 C 333.386719 497.773438 333.085938 496.9375 332.746094 496.121094 C 332.410156 495.300781 332.03125 494.5 331.613281 493.71875 C 331.195312 492.9375 330.738281 492.179688 330.246094 491.441406 C 329.753906 490.707031 329.226562 489.996094 328.664062 489.308594 C 328.101562 488.625 327.507812 487.96875 326.882812 487.34375 C 326.253906 486.714844 325.601562 486.121094 324.914062 485.558594 C 324.230469 484.996094 323.519531 484.46875 322.78125 483.976562 C 322.046875 483.484375 321.285156 483.03125 320.503906 482.613281 C 319.722656 482.195312 318.921875 481.816406 318.105469 481.476562 C 317.285156 481.136719 316.453125 480.839844 315.605469 480.582031 C 314.757812 480.324219 313.898438 480.109375 313.027344 479.9375 C 312.160156 479.765625 311.285156 479.632812 310.402344 479.546875 C 309.519531 479.460938 308.636719 479.417969 307.75 479.417969 C 306.863281 479.417969 305.980469 479.460938 305.097656 479.546875 C 304.214844 479.632812 303.339844 479.765625 302.472656 479.9375 C 301.601562 480.109375 300.742188 480.324219 299.894531 480.582031 C 299.046875 480.839844 298.214844 481.136719 297.394531 481.476562 C 296.578125 481.816406 295.777344 482.195312 294.996094 482.613281 C 294.214844 483.03125 293.453125 483.484375 292.71875 483.976562 C 291.980469 484.46875 291.269531 484.996094 290.585938 485.558594 C 289.898438 486.121094 289.246094 486.714844 288.617188 487.34375 L 94.726562 681.367188 C 93.792969 682.308594 92.929688 683.3125 92.144531 684.378906 C 91.355469 685.445312 90.652344 686.566406 90.027344 687.734375 C 89.40625 688.90625 88.875 690.117188 88.429688 691.363281 C 87.984375 692.613281 87.632812 693.886719 87.375 695.1875 C 87.117188 696.488281 86.957031 697.800781 86.894531 699.125 C 86.828125 700.449219 86.863281 701.773438 86.992188 703.089844 C 87.125 704.410156 87.351562 705.714844 87.671875 707 C 87.992188 708.285156 88.40625 709.542969 88.914062 710.765625 C 89.421875 711.992188 90.015625 713.171875 90.695312 714.3125 C 91.375 715.449219 92.136719 716.53125 92.976562 717.558594 C 93.8125 718.582031 94.722656 719.542969 95.703125 720.433594 C 96.683594 721.328125 97.726562 722.144531 98.828125 722.882812 C 99.925781 723.621094 101.074219 724.277344 102.273438 724.847656 C 103.46875 725.417969 104.703125 725.894531 105.96875 726.285156 C 107.238281 726.675781 108.527344 726.96875 109.835938 727.167969 C 111.148438 727.367188 112.464844 727.46875 113.789062 727.476562 Z M 113.789062 727.476562 " fill-opacity="1" fill-rule="nonzero"/></g></svg>