<svg width="18" height="18" viewBox="0 0 18 18" fill="none" xmlns="http://www.w3.org/2000/svg">
<path fill-rule="evenodd" clip-rule="evenodd" d="M9 18C11.3869 18 13.6761 17.0518 15.364 15.364C17.0518 13.6761 18 11.3869 18 9C18 6.61305 17.0518 4.32387 15.364 2.63604C13.6761 0.948212 11.3869 0 9 0C6.61305 0 4.32387 0.948212 2.63604 2.63604C0.948212 4.32387 0 6.61305 0 9C0 11.3869 0.948212 13.6761 2.63604 15.364C4.32387 17.0518 6.61305 18 9 18ZM10.125 5.625C10.125 5.32663 10.0065 5.04048 9.7955 4.8295C9.58452 4.61853 9.29837 4.5 9 4.5C8.70163 4.5 8.41548 4.61853 8.2045 4.8295C7.99353 5.04048 7.875 5.32663 7.875 5.625V7.875H5.625C5.32663 7.875 5.04048 7.99353 4.8295 8.2045C4.61853 8.41548 4.5 8.70163 4.5 9C4.5 9.29837 4.61853 9.58452 4.8295 9.7955C5.04048 10.0065 5.32663 10.125 5.625 10.125H7.875V12.375C7.875 12.6734 7.99353 12.9595 8.2045 13.1705C8.41548 13.3815 8.70163 13.5 9 13.5C9.29837 13.5 9.58452 13.3815 9.7955 13.1705C10.0065 12.9595 10.125 12.6734 10.125 12.375V10.125H12.375C12.6734 10.125 12.9595 10.0065 13.1705 9.7955C13.3815 9.58452 13.5 9.29837 13.5 9C13.5 8.70163 13.3815 8.41548 13.1705 8.2045C12.9595 7.99353 12.6734 7.875 12.375 7.875H10.125V5.625Z" fill="#DF6129"/>
</svg>
