<svg width="20" height="20" viewBox="0 0 20 20" fill="none" xmlns="http://www.w3.org/2000/svg">
    <path d="M17.348 7.508c.92-1.845-.009-3.882-1.776-4.942a1.922 1.922 0 0 0-2.538.511L11.73 4.853a2.5 2.5 0 0 0-.22 2.596l.342.683a.685.685 0 0 1 .013.623c-.184.358-.576.993-1.332 1.748-.756.756-1.39 1.148-1.748 1.332a.685.685 0 0 1-.623-.013l-.683-.341a2.5 2.5 0 0 0-2.596.22l-1.776 1.302a1.921 1.921 0 0 0-.512 2.538c1.061 1.768 3.098 2.695 4.943 1.776 1.555-.775 3.542-2.057 5.647-4.162 2.104-2.105 3.387-4.092 4.162-5.647z" fill="#6461FB"/>
</svg>
