<svg width="31" height="30" viewBox="0 0 31 30" fill="none" xmlns="http://www.w3.org/2000/svg">
    <circle cx="15.5" cy="15" r="15" fill="#CFD0D1"/>
    <path fill-rule="evenodd" clip-rule="evenodd" d="M17.265 9.705a3.53 3.53 0 1 1 .597 1.965l-4.429 1.898c.194.437.302.922.302 1.431 0 .395-.064.774-.184 1.128l4.335 2.167a3.53 3.53 0 1 1-.606 1.67l-4.702-2.351a3.53 3.53 0 1 1-.299-5.47L17.277 10a3.605 3.605 0 0 1-.012-.295zm3.53-1.765a1.765 1.765 0 1 0 0 3.53 1.765 1.765 0 0 0 0-3.53zm0 10.589a1.765 1.765 0 1 0 0 3.529 1.765 1.765 0 0 0 0-3.53zM8.44 14.999a1.765 1.765 0 1 1 3.53 0 1.765 1.765 0 0 1-3.53 0z" fill="#67696C"/>
</svg>
