<svg width="27" height="27" viewBox="0 0 27 27" fill="none" xmlns="http://www.w3.org/2000/svg">
    <path fill-rule="evenodd" clip-rule="evenodd" d="M2.25 6.268A4.018 4.018 0 0 1 6.268 2.25h.461a4.48 4.48 0 0 1 4.159 2.816l.842 2.105a3.43 3.43 0 0 1-.76 3.7l-.232.232a.724.724 0 0 0-.136.836 9.97 9.97 0 0 0 4.459 4.459c.279.14.616.085.836-.136l.232-.233a3.43 3.43 0 0 1 3.7-.759l2.105.842a4.48 4.48 0 0 1 2.816 4.159v.461a4.018 4.018 0 0 1-4.018 4.018C10.525 24.75 2.25 16.475 2.25 6.268zM6.268 4.5c-.976 0-1.768.792-1.768 1.768 0 8.965 7.267 16.232 16.232 16.232.977 0 1.768-.791 1.768-1.768v-.461c0-.912-.555-1.731-1.401-2.07l-2.105-.842a1.18 1.18 0 0 0-1.273.261l-.233.233a2.974 2.974 0 0 1-3.433.557 12.22 12.22 0 0 1-5.465-5.465 2.974 2.974 0 0 1 .557-3.433l.233-.233a1.18 1.18 0 0 0 .26-1.273L8.8 5.901A2.23 2.23 0 0 0 6.729 4.5h-.461z" fill="#199A8E"/>
</svg>
