<svg xmlns="http://www.w3.org/2000/svg" xmlns:xlink="http://www.w3.org/1999/xlink" width="1080" zoomAndPan="magnify" viewBox="0 0 810 809.999993" height="1080" preserveAspectRatio="xMidYMid meet" version="1.0"><path stroke-linecap="butt" transform="matrix(0.75, 0, 0, 0.75, 0.0000035, 0.00002)" fill="none" stroke-linejoin="miter" d="M -0.00000466667 -0.0000266667 L 1080.00005 -0.0000266667 L 1080.00005 1080.000028 L -0.00000466667 1080.000028 Z M -0.00000466667 -0.0000266667 " stroke="#ffffff" stroke-width="24" stroke-opacity="1" stroke-miterlimit="4"/><path fill="#ffffff" d="M 404.996094 740.988281 C 399.113281 740.988281 394.347656 736.222656 394.347656 730.339844 L 394.347656 415.644531 L 79.648438 415.644531 C 73.769531 415.644531 69 410.875 69 404.996094 C 69 399.113281 73.769531 394.347656 79.648438 394.347656 L 394.347656 394.347656 L 394.347656 79.648438 C 394.347656 73.769531 399.113281 69 404.996094 69 C 410.875 69 415.644531 73.769531 415.644531 79.648438 L 415.644531 394.347656 L 730.339844 394.347656 C 736.222656 394.347656 740.988281 399.113281 740.988281 404.996094 C 740.988281 410.875 736.222656 415.644531 730.339844 415.644531 L 415.644531 415.644531 L 415.644531 730.339844 C 415.644531 736.222656 410.875 740.988281 404.996094 740.988281 Z M 404.996094 740.988281 " fill-opacity="1" fill-rule="nonzero"/></svg>