<svg width="26" height="26" viewBox="0 0 26 26" fill="none" xmlns="http://www.w3.org/2000/svg">
<path fill-rule="evenodd" clip-rule="evenodd" d="M5.58082 5.5809C5.8246 5.33718 6.1552 5.20027 6.49992 5.20027C6.84463 5.20027 7.17523 5.33718 7.41902 5.5809L12.9999 11.1618L18.5808 5.5809C18.7007 5.45673 18.8442 5.3577 19.0028 5.28956C19.1614 5.22143 19.332 5.18557 19.5046 5.18407C19.6772 5.18257 19.8484 5.21546 20.0082 5.28083C20.1679 5.34619 20.3131 5.44272 20.4351 5.56478C20.5572 5.68684 20.6537 5.83199 20.7191 5.99176C20.7844 6.15152 20.8173 6.3227 20.8158 6.49532C20.8143 6.66793 20.7785 6.83852 20.7103 6.99712C20.6422 7.15573 20.5432 7.29917 20.419 7.4191L14.8381 13L20.419 18.5809C20.6558 18.8261 20.7869 19.1545 20.7839 19.4953C20.7809 19.8362 20.6442 20.1622 20.4032 20.4033C20.1622 20.6443 19.8361 20.781 19.4952 20.784C19.1544 20.7869 18.826 20.6559 18.5808 20.4191L12.9999 14.8382L7.41902 20.4191C7.17383 20.6559 6.84545 20.7869 6.5046 20.784C6.16374 20.781 5.83768 20.6443 5.59665 20.4033C5.35562 20.1622 5.2189 19.8362 5.21594 19.4953C5.21298 19.1545 5.34401 18.8261 5.58082 18.5809L11.1617 13L5.58082 7.4191C5.33711 7.17531 5.2002 6.84471 5.2002 6.5C5.2002 6.15528 5.33711 5.82468 5.58082 5.5809Z" fill="white"/>
</svg>
