<svg width="22" height="22" viewBox="0 0 22 22" fill="none" xmlns="http://www.w3.org/2000/svg">
<g id="icon_review 1">
<path id="Union" fill-rule="evenodd" clip-rule="evenodd" d="M2.75003 19.8611H11.6111C11.9472 19.8611 12.2222 19.5861 12.2222 19.25C12.2222 18.9139 11.9472 18.6389 11.6111 18.6389H3.36114V3.36114H18.6389V11.6111C18.6389 11.9472 18.9139 12.2222 19.25 12.2222C19.5861 12.2222 19.8611 11.9472 19.8611 11.6111V2.75003C19.8611 2.41392 19.5861 2.13892 19.25 2.13892H2.75003C2.41392 2.13892 2.13892 2.41392 2.13892 2.75003V19.25C2.13892 19.5861 2.41392 19.8611 2.75003 19.8611ZM15.7942 19.6809C15.9134 19.8 16.0692 19.8611 16.225 19.8611C16.3809 19.8611 16.5367 19.8 16.6559 19.6809L19.6809 16.6559C19.797 16.5428 19.8611 16.387 19.8611 16.225C19.8611 16.0631 19.797 15.9103 19.6809 15.7942L17.8112 13.9246C17.7937 13.901 17.7742 13.8784 17.7528 13.857C17.7314 13.8356 17.7088 13.8161 17.6852 13.7985L12.9949 9.10822C12.98 9.08931 12.9638 9.07107 12.9464 9.05364C12.929 9.03621 12.9107 9.02005 12.8918 9.00516L12.702 8.81531C12.6286 8.74197 12.5339 8.68697 12.4331 8.65947L8.26225 7.51364C8.05142 7.45558 7.82531 7.51669 7.66947 7.66947C7.51364 7.82225 7.45558 8.05142 7.51364 8.26225L8.65947 12.4331C8.68697 12.5339 8.73892 12.6256 8.81531 12.702L9.05593 12.9426C9.05619 12.9429 9.05644 12.9431 9.05669 12.9434C9.05695 12.9436 9.05721 12.9439 9.05746 12.9441L15.7942 19.6809ZM10.3523 12.5125L14.2924 16.4527L16.4527 14.2924L12.5125 10.3522L10.3523 12.5125ZM9.66132 11.474L11.474 9.66132L8.97419 8.97419L9.66132 11.474ZM18.3853 16.225L17.3174 15.1571L15.1571 17.3174L16.225 18.3853L18.3853 16.225Z" fill="#F6F6F6"/>
</g>
</svg>
