<svg xmlns="http://www.w3.org/2000/svg" xmlns:xlink="http://www.w3.org/1999/xlink" width="1080" zoomAndPan="magnify" viewBox="0 0 810 809.999993" height="1080" preserveAspectRatio="xMidYMid meet" version="1.0"><defs><clipPath id="5750023c5f"><path d="M 144 95 L 666.402344 95 L 666.402344 715 L 144 715 Z M 144 95 " clip-rule="nonzero"/></clipPath></defs><g clip-path="url(#5750023c5f)"><path fill="#57a29d" d="M 406.03125 714.894531 L 164.992188 714.894531 C 153.589844 714.894531 144.332031 705.640625 144.332031 694.234375 L 144.332031 115.761719 C 144.332031 104.359375 153.589844 95.101562 164.992188 95.101562 L 647.066406 95.101562 C 658.472656 95.101562 667.726562 104.359375 667.726562 115.761719 L 667.726562 405 C 667.726562 416.402344 658.472656 425.660156 647.066406 425.660156 C 635.664062 425.660156 626.40625 416.402344 626.40625 405 L 626.40625 136.421875 C 626.40625 136.421875 185.652344 136.421875 185.652344 136.421875 C 185.652344 136.421875 185.652344 673.574219 185.652344 673.574219 C 185.652344 673.574219 406.03125 673.574219 406.03125 673.574219 C 417.433594 673.574219 426.691406 682.832031 426.691406 694.234375 C 426.691406 705.640625 417.433594 714.894531 406.03125 714.894531 Z M 656.734375 568.644531 C 664.8125 576.722656 664.8125 589.800781 656.734375 597.878906 L 598.308594 656.304688 C 590.234375 664.382812 577.15625 664.382812 569.097656 656.304688 L 364.566406 451.792969 C 362.3125 449.519531 360.597656 446.753906 359.585938 443.714844 L 330.355469 356.054688 C 327.894531 348.640625 329.816406 340.457031 335.351562 334.921875 C 340.890625 329.382812 349.070312 327.441406 356.488281 329.921875 L 444.148438 359.132812 C 447.183594 360.148438 449.953125 361.863281 452.226562 364.132812 Z M 539.882812 568.644531 L 569.097656 539.433594 L 426.460938 396.796875 C 426.460938 396.796875 382.621094 382.191406 382.621094 382.191406 C 382.621094 382.191406 397.230469 426.011719 397.230469 426.011719 Z M 569.097656 597.878906 L 583.703125 612.484375 L 612.917969 583.273438 L 598.308594 568.644531 Z M 569.097656 597.878906 " fill-opacity="1" fill-rule="evenodd"/></g></svg>