<svg xmlns="http://www.w3.org/2000/svg" xmlns:xlink="http://www.w3.org/1999/xlink" width="750" zoomAndPan="magnify" viewBox="0 0 562.5 809.999993" height="1080" preserveAspectRatio="xMidYMid meet" version="1.0"><defs><clipPath id="573d05daee"><path d="M 9.894531 28.15625 L 552.09375 28.15625 L 552.09375 781.84375 L 9.894531 781.84375 Z M 9.894531 28.15625 " clip-rule="nonzero"/></clipPath></defs><g clip-path="url(#573d05daee)"><path fill="#ffffff" d="M 551.960938 411.765625 C 551.960938 518.917969 552.574219 626.078125 551.246094 733.21875 C 551.066406 748.132812 545.53125 768.019531 535.085938 776.621094 C 518.46875 790.292969 502.527344 774.054688 488.726562 763.019531 C 427.617188 714.171875 365.992188 665.941406 305.867188 615.902344 C 289.265625 602.089844 279.1875 600.539062 261.582031 614.9375 C 198.132812 666.800781 133.472656 717.238281 67.984375 766.492188 C 57.117188 774.667969 37.402344 780.300781 26.207031 775.878906 C 17.28125 772.359375 10.664062 751.738281 10.605469 738.675781 C 9.679688 520.648438 9.855469 302.609375 10.039062 84.574219 C 10.074219 44.53125 25.996094 28.417969 65.84375 28.347656 C 209.285156 28.082031 352.726562 28.101562 496.164062 28.332031 C 535.839844 28.394531 551.613281 44.433594 551.714844 84.710938 C 551.972656 193.730469 551.800781 302.746094 551.800781 411.765625 C 551.855469 411.765625 551.90625 411.765625 551.960938 411.765625 " fill-opacity="1" fill-rule="nonzero"/></g></svg>