<svg width="22" height="22" viewBox="0 0 22 22" fill="none" xmlns="http://www.w3.org/2000/svg">
<g id="icon_add 1">
<path id="Union" fill-rule="evenodd" clip-rule="evenodd" d="M19.8611 19.25C19.8611 19.5861 19.5861 19.8611 19.25 19.8611H2.75003C2.41392 19.8611 2.13892 19.5861 2.13892 19.25V2.75003C2.13892 2.41392 2.41392 2.13892 2.75003 2.13892H19.25C19.5861 2.13892 19.8611 2.41392 19.8611 2.75003V19.25ZM3.36114 18.6389H18.6389V3.36114H3.36114V18.6389ZM10.3889 11.6111H6.2303C5.89419 11.6111 5.61919 11.3361 5.61919 11C5.61919 10.6639 5.89419 10.3889 6.2303 10.3889H10.3889V6.2303C10.3889 5.89419 10.6639 5.61919 11 5.61919C11.3361 5.61919 11.6111 5.89419 11.6111 6.2303V10.3889H15.7667C16.1028 10.3889 16.3778 10.6639 16.3778 11C16.3778 11.3361 16.1028 11.6111 15.7667 11.6111H11.6111V15.7667C11.6111 16.1028 11.3361 16.3778 11 16.3778V16.3809C10.6639 16.3809 10.3889 16.1059 10.3889 15.7697V11.6111Z" fill="#F6F6F6"/>
</g>
</svg>
