<svg width="24" height="24" viewBox="0 0 24 24" fill="none" xmlns="http://www.w3.org/2000/svg">
    <path fill-rule="evenodd" clip-rule="evenodd" d="M7 2a5 5 0 0 0-5 5v10a5 5 0 0 0 5 5h10a5 5 0 0 0 5-5v-6a5.002 5.002 0 0 0-4.084-4.916A5.001 5.001 0 0 0 13 2H7zm8.83 4A3.001 3.001 0 0 0 13 4H7a3.001 3.001 0 0 0-2.83 2h11.66zM4 17V8h13a3 3 0 0 1 3 3v6a3 3 0 0 1-3 3H7a3 3 0 0 1-3-3z" fill="#909196"/>
    <path d="m17.916 6.084-.246.045.032.17.169.03.045-.245zM15.83 6v.25h.354l-.118-.333-.236.083zM4.171 6l-.236-.083-.118.333h.354V6zM4 8v-.25h-.25V8H4zM2.25 7A4.75 4.75 0 0 1 7 2.25v-.5A5.25 5.25 0 0 0 1.75 7h.5zm0 10V7h-.5v10h.5zM7 21.75A4.75 4.75 0 0 1 2.25 17h-.5c0 2.9 2.35 5.25 5.25 5.25v-.5zm10 0H7v.5h10v-.5zM21.75 17A4.75 4.75 0 0 1 17 21.75v.5c2.9 0 5.25-2.35 5.25-5.25h-.5zm0-6v6h.5v-6h-.5zm-3.88-4.67A4.752 4.752 0 0 1 21.75 11h.5a5.252 5.252 0 0 0-4.288-5.162l-.091.492zM13 2.25a4.751 4.751 0 0 1 4.67 3.88l.492-.092A5.252 5.252 0 0 0 13 1.75v.5zm-6 0h6v-.5H7v.5zm9.065 3.667A3.251 3.251 0 0 0 13 3.75v.5c1.197 0 2.216.765 2.594 1.833l.471-.166zM13 3.75H7v.5h6v-.5zm-6 0a3.251 3.251 0 0 0-3.065 2.167l.471.166A2.751 2.751 0 0 1 7 4.25v-.5zm-2.83 2.5h11.66v-.5H4.17v.5zM3.75 8v9h.5V8h-.5zM17 7.75H4v.5h13v-.5zM20.25 11A3.25 3.25 0 0 0 17 7.75v.5A2.75 2.75 0 0 1 19.75 11h.5zm0 6v-6h-.5v6h.5zM17 20.25A3.25 3.25 0 0 0 20.25 17h-.5A2.75 2.75 0 0 1 17 19.75v.5zm-10 0h10v-.5H7v.5zM3.75 17A3.25 3.25 0 0 0 7 20.25v-.5A2.75 2.75 0 0 1 4.25 17h-.5z" fill="#fff"/>
    <path d="M18 14a2 2 0 1 1-4 0 2 2 0 0 1 4 0z" fill="#909196"/>
</svg>
