<svg width="20" height="21" viewBox="0 0 20 21" fill="none" xmlns="http://www.w3.org/2000/svg">
    <path d="M13.09 13.59a.833.833 0 0 1-1.18 0L10 11.677 8.09 13.59a.833.833 0 0 1-1.18-1.178L8.823 10.5 6.91 8.59a.833.833 0 1 1 1.178-1.18L10 9.322l1.91-1.91a.833.833 0 1 1 1.18 1.178l-1.911 1.91 1.91 1.912a.833.833 0 0 1 0 1.178z" fill="#DB202B"/>
    <path fill-rule="evenodd" clip-rule="evenodd" d="M10 2.167a8.333 8.333 0 1 0 0 16.666 8.333 8.333 0 0 0 0-16.666zM3.333 10.5a6.667 6.667 0 1 1 13.334 0 6.667 6.667 0 0 1-13.334 0z" fill="#DB202B"/>
</svg>
