<svg width="30" height="30" viewBox="0 0 30 30" fill="none" xmlns="http://www.w3.org/2000/svg">
    <circle cx="15" cy="15" r="15" fill="#CFD0D1"/>
    <path d="M15 7.941c.487 0 .882.395.882.883v6.693l1.141-1.14a.882.882 0 0 1 1.248 1.247l-2.647 2.647a.882.882 0 0 1-1.248 0l-2.647-2.647a.882.882 0 1 1 1.248-1.248l1.14 1.141V8.824c0-.488.396-.883.883-.883z" fill="#67696C"/>
    <path d="M9.706 16.765a.882.882 0 0 0-1.765 0v.882a4.412 4.412 0 0 0 4.412 4.412h5.294a4.412 4.412 0 0 0 4.412-4.412v-.882a.882.882 0 1 0-1.765 0v.882a2.647 2.647 0 0 1-2.647 2.647h-5.294a2.647 2.647 0 0 1-2.647-2.647v-.882z" fill="#67696C"/>
</svg>
