<svg xmlns="http://www.w3.org/2000/svg" xmlns:xlink="http://www.w3.org/1999/xlink" width="1080" zoomAndPan="magnify" viewBox="0 0 810 809.999993" height="1080" preserveAspectRatio="xMidYMid meet" version="1.0"><defs><clipPath id="973b0b80bd"><path d="M 84 502.402344 L 723.769531 502.402344 L 723.769531 520 L 84 520 Z M 84 502.402344 " clip-rule="nonzero"/></clipPath><clipPath id="ca1148bea2"><path d="M 84 502.402344 L 723.769531 502.402344 L 723.769531 623 L 84 623 Z M 84 502.402344 " clip-rule="nonzero"/></clipPath><clipPath id="d471b9f522"><path d="M 84 545 L 723.769531 545 L 723.769531 726 L 84 726 Z M 84 545 " clip-rule="nonzero"/></clipPath></defs><path fill="#57a29d" d="M 89.410156 263.917969 L 398.492188 418.457031 C 400.296875 419.359375 402.277344 419.808594 404.25 419.808594 C 406.21875 419.808594 408.203125 419.359375 410.007812 418.457031 L 719.089844 263.917969 C 723.457031 261.726562 726.210938 257.269531 726.210938 252.390625 C 726.210938 247.507812 723.457031 243.054688 719.089844 240.863281 L 410.007812 86.324219 C 406.386719 84.507812 402.113281 84.507812 398.480469 86.324219 L 89.398438 240.863281 C 85.042969 243.054688 82.289062 247.507812 82.289062 252.390625 C 82.289062 257.269531 85.042969 261.726562 89.410156 263.917969 Z M 404.25 112.246094 L 684.535156 252.390625 L 404.25 392.535156 L 123.960938 252.390625 Z M 404.25 112.246094 " fill-opacity="1" fill-rule="nonzero"/><path fill="#57a29d" d="M 707.578125 343.890625 L 404.25 495.5625 L 100.921875 343.890625 C 94.546875 340.699219 86.820312 343.300781 83.640625 349.648438 C 80.460938 356.011719 83.035156 363.75 89.398438 366.929688 L 398.480469 521.472656 C 400.296875 522.386719 402.277344 522.839844 404.25 522.839844 C 406.21875 522.839844 408.203125 522.386719 410.007812 521.484375 L 719.089844 366.945312 C 725.453125 363.761719 728.027344 356.023438 724.847656 349.660156 C 721.652344 343.300781 713.9375 340.722656 707.578125 343.890625 Z M 707.578125 343.890625 " fill-opacity="1" fill-rule="nonzero"/><path fill="#57a29d" d="M 707.578125 446.917969 L 404.25 598.589844 L 100.921875 446.917969 C 94.546875 443.75 86.820312 446.328125 83.640625 452.675781 C 80.460938 459.039062 83.035156 466.777344 89.398438 469.960938 L 398.480469 624.5 C 400.296875 625.414062 402.277344 625.867188 404.25 625.867188 C 406.21875 625.867188 408.203125 625.414062 410.007812 624.511719 L 719.089844 469.972656 C 725.453125 466.789062 728.027344 459.050781 724.847656 452.6875 C 721.652344 446.328125 713.9375 443.75 707.578125 446.917969 Z M 707.578125 446.917969 " fill-opacity="1" fill-rule="nonzero"/><g clip-path="url(#973b0b80bd)"><path fill="#57a29d" d="M 91.632812 363.75 L 400.714844 518.292969 C 402.519531 519.195312 404.503906 519.644531 406.472656 519.644531 C 408.441406 519.644531 410.425781 519.195312 412.230469 518.292969 L 721.3125 363.75 C 725.679688 361.5625 728.433594 357.105469 728.433594 352.226562 C 728.433594 347.34375 725.679688 342.886719 721.3125 340.699219 L 412.230469 186.15625 C 408.609375 184.339844 404.335938 184.339844 400.703125 186.15625 L 91.621094 340.699219 C 87.265625 342.886719 84.511719 347.34375 84.511719 352.226562 C 84.511719 357.105469 87.265625 361.5625 91.632812 363.75 Z M 406.472656 212.082031 L 686.757812 352.226562 L 406.472656 492.367188 L 126.1875 352.226562 Z M 406.472656 212.082031 " fill-opacity="1" fill-rule="nonzero"/></g><g clip-path="url(#ca1148bea2)"><path fill="#57a29d" d="M 709.800781 443.726562 L 406.472656 595.398438 L 103.144531 443.726562 C 96.769531 440.53125 89.042969 443.132812 85.863281 449.484375 C 82.683594 455.84375 85.257812 463.585938 91.621094 466.765625 L 400.703125 621.308594 C 402.519531 622.222656 404.503906 622.671875 406.472656 622.671875 C 408.441406 622.671875 410.425781 622.222656 412.230469 621.320312 L 721.3125 466.78125 C 727.675781 463.597656 730.25 455.859375 727.070312 449.496094 C 723.875 443.132812 716.160156 440.558594 709.800781 443.726562 Z M 709.800781 443.726562 " fill-opacity="1" fill-rule="nonzero"/></g><g clip-path="url(#d471b9f522)"><path fill="#57a29d" d="M 709.800781 546.753906 L 406.472656 698.425781 L 103.144531 546.753906 C 96.769531 543.585938 89.042969 546.164062 85.863281 552.511719 C 82.683594 558.875 85.257812 566.613281 91.621094 569.792969 L 400.703125 724.335938 C 402.519531 725.25 404.503906 725.699219 406.472656 725.699219 C 408.441406 725.699219 410.425781 725.25 412.230469 724.347656 L 721.3125 569.808594 C 727.675781 566.625 730.25 558.886719 727.070312 552.523438 C 723.875 546.164062 716.160156 543.585938 709.800781 546.753906 Z M 709.800781 546.753906 " fill-opacity="1" fill-rule="nonzero"/></g></svg>