<svg width="18" height="18" viewBox="0 0 18 18" fill="none" xmlns="http://www.w3.org/2000/svg">
    <path d="M16.5 3.375a1.875 1.875 0 1 1-3.75 0 1.875 1.875 0 0 1 3.75 0z" fill="#199A8E"/>
    <path fill-rule="evenodd" clip-rule="evenodd" d="M5.25 3h6.02a3.375 3.375 0 0 0 5.19 3.207c.027.178.04.359.04.543v4.5A3.75 3.75 0 0 1 12.75 15h-7.5a3.75 3.75 0 0 1-3.75-3.75v-4.5A3.75 3.75 0 0 1 5.25 3zm.469 3.164a.75.75 0 1 0-.937 1.172L6.76 8.918a3.75 3.75 0 0 0 4.522.124l.779-.557a.75.75 0 0 0-.872-1.22l-.779.556a2.25 2.25 0 0 1-2.713-.074L5.719 6.164z" fill="#199A8E"/>
</svg>
