<svg xmlns="http://www.w3.org/2000/svg" xmlns:xlink="http://www.w3.org/1999/xlink" width="1080" zoomAndPan="magnify" viewBox="0 0 810 809.999993" height="1080" preserveAspectRatio="xMidYMid meet" version="1.0"><path fill="#ffffff" d="M 405 333.1875 C 365.445312 333.1875 333.1875 365.445312 333.1875 405 C 333.1875 444.554688 365.445312 476.8125 405 476.8125 C 444.554688 476.8125 476.8125 444.554688 476.8125 405 C 476.8125 365.445312 444.554688 333.1875 405 333.1875 Z M 405 333.1875 " fill-opacity="1" fill-rule="nonzero"/><path fill="#ffffff" d="M 501.5 228.832031 L 308.5 228.832031 C 264.742188 228.832031 228.832031 264.460938 228.832031 308.5 L 228.832031 501.5 C 228.832031 545.257812 264.460938 581.167969 308.5 581.167969 L 501.5 581.167969 C 545.257812 581.167969 581.167969 545.539062 581.167969 501.5 L 581.167969 308.5 C 580.886719 264.460938 545.257812 228.832031 501.5 228.832031 Z M 405 513 C 345.25 513 296.71875 464.46875 296.71875 404.71875 C 296.71875 344.96875 345.25 296.4375 405 296.4375 C 464.75 296.4375 513.28125 344.96875 513.28125 404.71875 C 513 464.46875 464.46875 513 405 513 Z M 520.855469 314.671875 C 506.546875 314.671875 494.765625 302.890625 494.765625 288.585938 C 494.765625 274.277344 506.546875 262.496094 520.855469 262.496094 C 535.160156 262.496094 546.941406 274.277344 546.941406 288.585938 C 546.941406 303.171875 535.441406 314.671875 520.855469 314.671875 Z M 520.855469 314.671875 " fill-opacity="1" fill-rule="nonzero"/><path fill="#ffffff" d="M 405 81 C 226.027344 81 81 226.027344 81 405 C 81 583.972656 226.027344 729 405 729 C 583.972656 729 729 583.972656 729 405 C 728.71875 226.027344 583.691406 81 405 81 Z M 617.351562 501.5 C 617.351562 565.457031 565.175781 617.632812 501.21875 617.632812 L 308.5 617.632812 C 244.542969 617.632812 192.367188 565.457031 192.367188 501.5 L 192.367188 308.5 C 192.367188 244.542969 244.542969 192.367188 308.5 192.367188 L 501.5 192.367188 C 565.457031 192.367188 617.632812 244.542969 617.632812 308.5 L 617.632812 501.5 Z M 617.351562 501.5 " fill-opacity="1" fill-rule="nonzero"/></svg>