<svg xmlns="http://www.w3.org/2000/svg" xmlns:xlink="http://www.w3.org/1999/xlink" width="1080" zoomAndPan="magnify" viewBox="0 0 810 809.999993" height="1080" preserveAspectRatio="xMidYMid meet" version="1.0"><path fill="#ffffff" d="M 412.800781 182.191406 C 397.292969 181.507812 382.128906 187.097656 370.726562 197.585938 C 359.265625 208.132812 352.539062 222.785156 351.96875 238.347656 C 351.398438 253.855469 357.042969 268.960938 367.703125 280.308594 C 378.308594 291.652344 393.015625 298.265625 408.523438 298.722656 C 424.085938 299.179688 439.136719 293.417969 450.425781 282.757812 C 461.714844 272.039062 468.210938 257.273438 468.554688 241.710938 C 468.953125 226.488281 463.367188 211.667969 452.878906 200.550781 C 442.5 189.433594 428.078125 182.878906 412.800781 182.363281 Z M 377.851562 325.003906 L 320.554688 325.003906 L 320.613281 325.003906 C 316.394531 325.058594 312.289062 325.628906 308.242188 326.769531 C 303.339844 327.796875 299.632812 331.730469 298.894531 336.691406 C 297.523438 342.105469 300.261719 347.695312 305.277344 349.917969 C 311.492188 352.824219 318.105469 354.589844 324.890625 355.21875 C 342.734375 356.015625 349.917969 363.882812 347.238281 382.242188 C 342.21875 416.5625 335.492188 450.710938 329.679688 484.972656 C 325.800781 508.121094 322.496094 531.265625 318.730469 554.414062 C 313.660156 585.539062 342.675781 614.785156 365.707031 618.605469 C 379.390625 620.542969 393.1875 621.398438 406.984375 621.285156 C 436.515625 621.226562 464.734375 608.972656 484.972656 587.476562 C 488.621094 584.058594 491.414062 579.78125 493.011719 575.050781 C 493.753906 570.945312 492.839844 566.667969 490.277344 563.25 C 487.3125 561.367188 483.605469 560.96875 480.242188 562.164062 C 474.941406 563.933594 470.265625 567.523438 465.132812 569.746094 C 459.148438 572.542969 452.820312 574.707031 446.378906 576.132812 C 441.191406 577.445312 435.660156 576.359375 431.328125 573.226562 C 426.996094 570.089844 424.199219 565.1875 423.746094 559.828125 C 422.660156 553.898438 422.492188 547.742188 423.230469 541.757812 C 425.398438 526.820312 428.476562 512.054688 431.15625 497.34375 C 438.453125 457.039062 445.921875 416.734375 453.445312 376.371094 C 455.5 365.308594 458.976562 354.476562 456.640625 342.847656 C 456.296875 337.714844 453.847656 332.929688 449.96875 329.5625 C 446.035156 326.199219 440.847656 324.546875 435.71875 325.003906 Z M 402.421875 81 C 465.933594 81.058594 528.015625 99.984375 580.75 135.332031 C 633.542969 170.675781 674.648438 220.902344 698.875 279.625 C 723.105469 338.34375 729.375 402.9375 716.890625 465.25 C 704.40625 527.503906 673.675781 584.683594 628.695312 629.550781 C 583.714844 674.363281 526.421875 704.863281 464.050781 717.117188 C 401.738281 729.375 337.203125 722.878906 278.539062 698.417969 C 219.933594 674.019531 169.820312 632.742188 134.703125 579.839844 C 99.527344 526.933594 80.828125 464.792969 81 401.226562 C 81.226562 316.167969 115.207031 234.699219 175.464844 174.609375 C 235.726562 114.578125 317.363281 80.886719 402.421875 81 " fill-opacity="1" fill-rule="nonzero"/></svg>