<svg xmlns="http://www.w3.org/2000/svg" xmlns:xlink="http://www.w3.org/1999/xlink" width="1080" zoomAndPan="magnify" viewBox="0 0 810 809.999993" height="1080" preserveAspectRatio="xMidYMid meet" version="1.0"><path fill="#ffffff" d="M 729 405 C 729 410.300781 728.871094 415.601562 728.609375 420.898438 C 728.347656 426.195312 727.960938 431.480469 727.441406 436.757812 C 726.921875 442.035156 726.269531 447.296875 725.492188 452.539062 C 724.714844 457.785156 723.808594 463.007812 722.773438 468.210938 C 721.738281 473.410156 720.578125 478.582031 719.289062 483.726562 C 718 488.871094 716.585938 493.976562 715.046875 499.050781 C 713.507812 504.125 711.847656 509.160156 710.058594 514.152344 C 708.273438 519.144531 706.367188 524.089844 704.335938 528.988281 C 702.308594 533.886719 700.160156 538.734375 697.890625 543.527344 C 695.625 548.320312 693.242188 553.054688 690.742188 557.734375 C 688.242188 562.410156 685.628906 567.019531 682.902344 571.570312 C 680.179688 576.117188 677.34375 580.597656 674.394531 585.003906 C 671.449219 589.414062 668.398438 593.746094 665.238281 598.007812 C 662.082031 602.265625 658.820312 606.445312 655.457031 610.542969 C 652.089844 614.640625 648.628906 618.65625 645.066406 622.585938 C 641.507812 626.515625 637.851562 630.351562 634.101562 634.101562 C 630.351562 637.851562 626.515625 641.507812 622.585938 645.066406 C 618.65625 648.628906 614.640625 652.089844 610.542969 655.457031 C 606.445312 658.820312 602.265625 662.082031 598.007812 665.238281 C 593.746094 668.398438 589.414062 671.449219 585.003906 674.394531 C 580.597656 677.34375 576.117188 680.179688 571.570312 682.902344 C 567.019531 685.628906 562.410156 688.242188 557.734375 690.742188 C 553.054688 693.242188 548.320312 695.625 543.527344 697.890625 C 538.734375 700.160156 533.886719 702.308594 528.988281 704.335938 C 524.089844 706.367188 519.144531 708.273438 514.152344 710.058594 C 509.160156 711.847656 504.125 713.507812 499.050781 715.046875 C 493.976562 716.585938 488.867188 718 483.726562 719.289062 C 478.582031 720.578125 473.410156 721.738281 468.210938 722.773438 C 463.007812 723.808594 457.785156 724.714844 452.539062 725.492188 C 447.296875 726.269531 442.035156 726.921875 436.757812 727.441406 C 431.480469 727.960938 426.195312 728.347656 420.898438 728.609375 C 415.601562 728.871094 410.300781 729 405 729 C 399.699219 729 394.398438 728.871094 389.101562 728.609375 C 383.804688 728.347656 378.519531 727.960938 373.242188 727.441406 C 367.964844 726.921875 362.703125 726.269531 357.460938 725.492188 C 352.214844 724.714844 346.992188 723.808594 341.789062 722.773438 C 336.589844 721.738281 331.417969 720.578125 326.273438 719.289062 C 321.128906 718 316.023438 716.585938 310.949219 715.046875 C 305.875 713.507812 300.839844 711.847656 295.847656 710.058594 C 290.855469 708.273438 285.910156 706.367188 281.011719 704.335938 C 276.113281 702.308594 271.265625 700.160156 266.472656 697.890625 C 261.679688 695.625 256.945312 693.242188 252.265625 690.742188 C 247.589844 688.242188 242.980469 685.628906 238.429688 682.902344 C 233.882812 680.179688 229.402344 677.34375 224.996094 674.394531 C 220.585938 671.449219 216.253906 668.398438 211.992188 665.238281 C 207.734375 662.082031 203.554688 658.820312 199.457031 655.457031 C 195.359375 652.089844 191.34375 648.628906 187.414062 645.066406 C 183.484375 641.507812 179.648438 637.851562 175.898438 634.101562 C 172.148438 630.351562 168.492188 626.515625 164.933594 622.585938 C 161.371094 618.65625 157.910156 614.640625 154.542969 610.542969 C 151.179688 606.445312 147.917969 602.265625 144.761719 598.007812 C 141.601562 593.746094 138.550781 589.414062 135.605469 585.003906 C 132.65625 580.597656 129.820312 576.117188 127.097656 571.570312 C 124.371094 567.019531 121.757812 562.410156 119.257812 557.734375 C 116.757812 553.054688 114.375 548.320312 112.109375 543.527344 C 109.839844 538.734375 107.691406 533.886719 105.664062 528.988281 C 103.632812 524.089844 101.726562 519.144531 99.941406 514.152344 C 98.152344 509.160156 96.492188 504.125 94.953125 499.050781 C 93.410156 493.976562 92 488.871094 90.710938 483.726562 C 89.421875 478.582031 88.261719 473.410156 87.226562 468.210938 C 86.191406 463.007812 85.285156 457.785156 84.507812 452.539062 C 83.730469 447.296875 83.078125 442.035156 82.558594 436.757812 C 82.039062 431.480469 81.652344 426.195312 81.390625 420.898438 C 81.128906 415.601562 81 410.300781 81 405 C 81 399.699219 81.128906 394.398438 81.390625 389.101562 C 81.652344 383.804688 82.039062 378.519531 82.558594 373.242188 C 83.078125 367.964844 83.730469 362.703125 84.507812 357.460938 C 85.285156 352.214844 86.191406 346.992188 87.226562 341.789062 C 88.261719 336.589844 89.421875 331.417969 90.710938 326.273438 C 92 321.128906 93.410156 316.023438 94.953125 310.949219 C 96.492188 305.875 98.152344 300.839844 99.941406 295.847656 C 101.726562 290.855469 103.632812 285.910156 105.664062 281.011719 C 107.691406 276.113281 109.839844 271.265625 112.109375 266.472656 C 114.375 261.679688 116.757812 256.945312 119.257812 252.265625 C 121.757812 247.589844 124.371094 242.980469 127.097656 238.429688 C 129.820312 233.882812 132.65625 229.402344 135.605469 224.996094 C 138.550781 220.585938 141.601562 216.253906 144.761719 211.992188 C 147.917969 207.734375 151.179688 203.554688 154.542969 199.457031 C 157.910156 195.359375 161.371094 191.34375 164.933594 187.414062 C 168.492188 183.484375 172.148438 179.648438 175.898438 175.898438 C 179.648438 172.148438 183.484375 168.492188 187.414062 164.933594 C 191.34375 161.371094 195.359375 157.910156 199.457031 154.542969 C 203.554688 151.179688 207.734375 147.917969 211.992188 144.761719 C 216.253906 141.601562 220.585938 138.550781 224.996094 135.605469 C 229.402344 132.65625 233.882812 129.820312 238.429688 127.097656 C 242.980469 124.371094 247.589844 121.757812 252.265625 119.257812 C 256.945312 116.757812 261.679688 114.375 266.472656 112.109375 C 271.265625 109.839844 276.113281 107.691406 281.011719 105.664062 C 285.910156 103.632812 290.855469 101.726562 295.847656 99.941406 C 300.839844 98.152344 305.875 96.492188 310.949219 94.953125 C 316.023438 93.414062 321.128906 92 326.273438 90.710938 C 331.417969 89.421875 336.589844 88.261719 341.789062 87.226562 C 346.992188 86.191406 352.214844 85.285156 357.460938 84.507812 C 362.703125 83.730469 367.964844 83.078125 373.242188 82.558594 C 378.519531 82.039062 383.804688 81.652344 389.101562 81.390625 C 394.398438 81.128906 399.699219 81 405 81 C 410.300781 81 415.601562 81.128906 420.898438 81.390625 C 426.195312 81.652344 431.480469 82.039062 436.757812 82.558594 C 442.035156 83.078125 447.296875 83.730469 452.539062 84.507812 C 457.785156 85.285156 463.007812 86.191406 468.210938 87.226562 C 473.410156 88.261719 478.582031 89.421875 483.726562 90.710938 C 488.867188 92 493.976562 93.410156 499.050781 94.953125 C 504.125 96.492188 509.160156 98.152344 514.152344 99.941406 C 519.144531 101.726562 524.089844 103.632812 528.988281 105.664062 C 533.886719 107.691406 538.734375 109.839844 543.527344 112.109375 C 548.320312 114.375 553.054688 116.757812 557.734375 119.257812 C 562.410156 121.757812 567.019531 124.371094 571.570312 127.097656 C 576.117188 129.820312 580.597656 132.65625 585.003906 135.605469 C 589.414062 138.550781 593.746094 141.601562 598.007812 144.761719 C 602.265625 147.917969 606.445312 151.179688 610.542969 154.542969 C 614.640625 157.910156 618.65625 161.371094 622.585938 164.933594 C 626.515625 168.492188 630.351562 172.148438 634.101562 175.898438 C 637.851562 179.648438 641.507812 183.484375 645.066406 187.414062 C 648.628906 191.34375 652.089844 195.359375 655.457031 199.457031 C 658.820312 203.554688 662.082031 207.734375 665.238281 211.992188 C 668.398438 216.253906 671.449219 220.585938 674.394531 224.996094 C 677.34375 229.402344 680.179688 233.882812 682.902344 238.429688 C 685.628906 242.980469 688.242188 247.589844 690.742188 252.265625 C 693.242188 256.945312 695.625 261.679688 697.890625 266.472656 C 700.160156 271.265625 702.308594 276.113281 704.335938 281.011719 C 706.367188 285.910156 708.273438 290.855469 710.058594 295.847656 C 711.847656 300.839844 713.507812 305.875 715.046875 310.949219 C 716.585938 316.023438 718 321.128906 719.289062 326.273438 C 720.578125 331.417969 721.738281 336.589844 722.773438 341.789062 C 723.808594 346.992188 724.714844 352.214844 725.492188 357.460938 C 726.269531 362.703125 726.921875 367.964844 727.441406 373.242188 C 727.960938 378.519531 728.347656 383.804688 728.609375 389.101562 C 728.871094 394.398438 729 399.699219 729 405 Z M 729 405 " fill-opacity="1" fill-rule="nonzero"/><path fill="#252e32" d="M 438.769531 562.742188 L 214.734375 562.742188 C 211.671875 562.742188 209.183594 560.257812 209.183594 557.195312 L 209.183594 203.15625 C 209.183594 200.097656 211.671875 197.609375 214.734375 197.609375 L 511.375 197.609375 C 514.433594 197.609375 516.921875 200.097656 516.921875 203.15625 L 516.921875 414.660156 C 513.191406 412.75 508.695312 412.941406 505.15625 415.140625 C 504.296875 415.617188 503.53125 416.191406 502.667969 416.765625 C 482.867188 430.921875 460.386719 439.914062 435.800781 439.914062 C 433.507812 439.914062 431.304688 439.914062 429.011719 439.722656 C 422.601562 439.246094 416.957031 444.027344 416.191406 450.34375 C 415.425781 457.421875 415.425781 465.363281 415.617188 472.441406 C 416.097656 488.894531 418.199219 505.539062 422.3125 521.515625 C 426.140625 536.4375 431.59375 550.308594 438.769531 562.742188 Z M 305.417969 389.40625 L 327.992188 389.40625 L 327.992188 378.3125 L 305.417969 378.3125 Z M 371.230469 379.078125 C 372.953125 379.078125 374.292969 377.738281 374.292969 376.015625 L 374.292969 367.597656 C 374.292969 365.875 372.953125 364.441406 371.230469 364.441406 C 369.511719 364.441406 368.171875 365.875 368.171875 367.597656 L 368.171875 376.015625 C 368.171875 377.738281 369.511719 379.078125 371.230469 379.078125 Z M 327.992188 372.09375 L 327.992188 367.308594 C 327.992188 365.683594 329.332031 364.25 331.054688 364.25 C 332.777344 364.25 334.117188 365.683594 334.117188 367.308594 L 334.117188 389.40625 L 408.347656 389.40625 L 408.347656 367.308594 C 408.347656 365.683594 409.6875 364.25 411.410156 364.25 C 413.132812 364.25 414.46875 365.683594 414.46875 367.308594 L 414.46875 372.09375 L 437.046875 372.09375 L 437.046875 358.890625 C 437.046875 342.152344 423.367188 328.472656 406.625 328.472656 L 395.433594 328.472656 L 375.152344 349.324219 C 373.144531 351.429688 369.320312 351.429688 367.308594 349.324219 L 347.03125 328.472656 L 335.839844 328.472656 C 319.097656 328.472656 305.417969 342.152344 305.417969 358.890625 L 305.417969 372.09375 Z M 414.46875 378.3125 L 414.46875 389.40625 L 437.046875 389.40625 L 437.046875 378.3125 Z M 511.375 612.296875 C 510.800781 612.296875 510.226562 612.199219 509.652344 612.007812 C 409.496094 579.960938 422.503906 452.351562 422.695312 451.109375 C 422.984375 448.144531 425.664062 445.941406 428.53125 446.230469 C 430.921875 446.324219 433.410156 446.421875 435.800781 446.421875 C 460.003906 446.421875 483.824219 438.195312 506.496094 422.027344 C 507.453125 421.359375 508.121094 420.878906 508.503906 420.6875 C 510.226562 419.539062 512.523438 419.539062 514.242188 420.6875 C 514.625 420.878906 515.390625 421.359375 516.347656 422.027344 C 539.019531 438.195312 562.742188 446.421875 586.945312 446.421875 C 589.433594 446.421875 591.824219 446.324219 594.214844 446.230469 C 597.179688 445.941406 599.761719 448.144531 600.050781 451.109375 C 600.242188 452.351562 613.347656 579.960938 513.09375 612.007812 C 512.523438 612.199219 511.949219 612.296875 511.375 612.296875 Z M 511.375 540.167969 C 513.09375 540.167969 514.433594 538.828125 514.433594 537.105469 L 514.433594 529.070312 C 514.433594 527.347656 513.09375 526.007812 511.375 526.007812 C 509.652344 526.007812 508.3125 527.347656 508.3125 529.070312 L 508.3125 537.105469 C 508.3125 538.734375 509.652344 540.167969 511.375 540.167969 Z M 548.777344 561.308594 C 550.5 561.308594 551.835938 559.875 551.835938 558.152344 L 551.835938 507.929688 C 551.835938 506.207031 550.5 504.867188 548.777344 504.867188 L 536.722656 504.867188 L 536.722656 486.980469 C 536.722656 472.34375 525.53125 462.875 511.46875 462.875 C 497.503906 462.875 486.3125 472.34375 486.3125 486.980469 L 486.3125 504.867188 L 473.972656 504.867188 C 472.25 504.867188 470.910156 506.207031 470.910156 507.929688 L 470.910156 558.152344 C 470.910156 559.875 472.25 561.308594 473.972656 561.308594 Z M 530.601562 504.867188 L 492.433594 504.867188 L 492.433594 486.980469 C 492.433594 475.789062 500.851562 469.09375 511.46875 469.09375 C 522.183594 469.09375 530.601562 475.789062 530.601562 486.980469 Z M 477.128906 555.089844 L 477.128906 510.992188 L 545.714844 510.992188 L 545.714844 555.089844 Z M 383.191406 244.101562 C 379.074219 244.101562 374.867188 244.867188 370.847656 245.820312 L 369.894531 246.109375 L 368.9375 245.535156 C 364.632812 242.664062 358.988281 239.988281 353.726562 239.605469 L 347.507812 239.125 L 352.386719 235.300781 C 357.839844 230.996094 364.632812 228.890625 371.421875 228.890625 C 380.414062 228.890625 389.121094 232.429688 394.667969 239.605469 C 395.433594 240.5625 396.105469 241.613281 396.675781 242.664062 L 400.21875 249.074219 L 393.519531 246.109375 C 390.269531 244.675781 386.730469 244.101562 383.191406 244.101562 Z M 371.230469 315.078125 C 376.207031 315.078125 380.988281 313.933594 385.292969 311.921875 L 390.269531 324.070312 C 390.269531 324.167969 390.363281 324.261719 390.363281 324.359375 L 371.230469 344.066406 L 352.101562 324.359375 C 352.101562 324.261719 352.195312 324.167969 352.195312 324.070312 L 357.171875 311.921875 C 361.476562 313.933594 366.160156 315.078125 371.230469 315.078125 Z M 346.457031 321.96875 L 335.839844 321.96875 C 315.460938 321.96875 298.914062 338.515625 298.914062 358.890625 C 298.914062 372.378906 298.914062 381.945312 298.914062 395.914062 C 348.273438 395.914062 395.816406 395.914062 443.550781 395.914062 C 443.550781 381.945312 443.550781 372.378906 443.550781 358.890625 C 443.550781 338.515625 427 321.96875 406.625 321.96875 L 396.007812 321.96875 C 396.007812 321.871094 396.007812 321.871094 396.007812 321.777344 L 390.652344 308.765625 C 399.070312 302.738281 404.523438 292.886719 404.523438 281.789062 L 404.523438 272.320312 C 407.773438 259.882812 407.679688 246.394531 399.546875 235.875 C 392.851562 227.074219 382.328125 222.671875 371.421875 222.671875 C 360.613281 222.671875 349.613281 227.359375 342.917969 236.066406 C 334.976562 246.492188 334.691406 259.5 337.847656 271.746094 L 337.941406 281.789062 C 338.039062 292.789062 343.492188 302.644531 351.8125 308.765625 L 346.457031 321.777344 Z M 398.398438 271.265625 C 398.398438 271.457031 398.304688 271.648438 398.304688 271.839844 L 398.304688 281.789062 C 398.304688 291.453125 393.234375 299.964844 385.582031 304.84375 C 385.390625 304.941406 385.199219 305.035156 385.007812 305.132812 C 380.894531 307.523438 376.207031 308.957031 371.230469 308.957031 C 356.308594 308.957031 344.257812 296.617188 344.066406 281.789062 L 343.96875 271.9375 C 344.066406 271.746094 344.066406 271.457031 344.066406 271.171875 C 343.394531 265.242188 342.726562 252.902344 347.222656 247.925781 C 348.5625 246.300781 350.378906 245.726562 352.484375 245.726562 C 357.265625 245.726562 363.578125 249.074219 367.308594 251.945312 C 368.171875 252.519531 369.128906 252.710938 370.085938 252.421875 C 377.546875 250.316406 389.503906 248.023438 395.242188 254.910156 C 398.6875 259.023438 399.355469 266.199219 398.398438 271.265625 Z M 401.363281 470.429688 C 402.992188 470.429688 404.425781 468.996094 404.425781 467.273438 C 404.425781 465.648438 402.992188 464.214844 401.363281 464.214844 L 251.65625 464.214844 C 249.933594 464.214844 248.597656 465.648438 248.597656 467.273438 C 248.597656 468.996094 249.933594 470.429688 251.65625 470.429688 Z M 351.144531 537.585938 C 352.867188 537.585938 354.203125 536.246094 354.203125 534.523438 C 354.203125 532.800781 352.867188 531.460938 351.144531 531.460938 L 251.65625 531.460938 C 249.933594 531.460938 248.597656 532.800781 248.597656 534.523438 C 248.597656 536.246094 249.933594 537.585938 251.65625 537.585938 Z M 377.738281 504.007812 C 379.457031 504.007812 380.894531 502.667969 380.894531 500.945312 C 380.894531 499.226562 379.457031 497.789062 377.738281 497.789062 L 251.65625 497.789062 C 249.933594 497.789062 248.597656 499.226562 248.597656 500.945312 C 248.597656 502.667969 249.933594 504.007812 251.65625 504.007812 Z M 406.050781 436.757812 C 407.773438 436.757812 409.113281 435.417969 409.113281 433.699219 C 409.113281 431.976562 407.773438 430.636719 406.050781 430.636719 L 251.65625 430.636719 C 249.933594 430.636719 248.597656 431.976562 248.597656 433.699219 C 248.597656 435.417969 249.933594 436.757812 251.65625 436.757812 Z M 406.050781 436.757812 " fill-opacity="1" fill-rule="evenodd"/></svg>