<svg xmlns="http://www.w3.org/2000/svg" xmlns:xlink="http://www.w3.org/1999/xlink" width="1080" zoomAndPan="magnify" viewBox="0 0 810 809.999993" height="1080" preserveAspectRatio="xMidYMid meet" version="1.0"><defs><clipPath id="2ec3ac7a55"><path d="M 81 81 L 729 81 L 729 729 L 81 729 Z M 81 81 " clip-rule="nonzero"/></clipPath></defs><g clip-path="url(#2ec3ac7a55)"><path fill="#ffffff" d="M 567.183594 383.558594 C 563.019531 436.90625 522.746094 502.699219 405.050781 585.25 C 287.359375 502.699219 247.09375 436.90625 242.929688 383.558594 L 242.929688 365.011719 C 247.402344 309.28125 284.136719 280.199219 315.898438 277.09375 C 321.121094 276.585938 326.003906 276.339844 330.582031 276.339844 C 367.289062 276.339844 384.894531 292.203125 405.050781 316.222656 C 425.210938 292.203125 442.816406 276.339844 479.519531 276.339844 C 484.101562 276.339844 488.984375 276.585938 494.203125 277.09375 C 525.96875 280.199219 562.703125 309.28125 567.183594 365.011719 Z M 405.058594 81.023438 C 226.101562 81.023438 81.023438 226.101562 81.023438 405.058594 C 81.023438 584.015625 226.101562 729.089844 405.058594 729.089844 C 584.015625 729.089844 729.089844 584.015625 729.089844 405.058594 C 729.089844 226.101562 584.015625 81.023438 405.058594 81.023438 " fill-opacity="1" fill-rule="nonzero"/></g></svg>