<svg xmlns="http://www.w3.org/2000/svg" xmlns:xlink="http://www.w3.org/1999/xlink" width="1080" zoomAndPan="magnify" viewBox="0 0 810 809.999993" height="1080" preserveAspectRatio="xMidYMid meet" version="1.0"><path fill="#ffffff" d="M 729 405 C 729 410.300781 728.871094 415.601562 728.609375 420.898438 C 728.347656 426.195312 727.960938 431.480469 727.441406 436.757812 C 726.921875 442.035156 726.269531 447.296875 725.492188 452.539062 C 724.714844 457.785156 723.808594 463.007812 722.773438 468.210938 C 721.738281 473.410156 720.578125 478.582031 719.289062 483.726562 C 718 488.867188 716.585938 493.976562 715.046875 499.050781 C 713.507812 504.125 711.847656 509.160156 710.058594 514.152344 C 708.273438 519.144531 706.367188 524.089844 704.335938 528.988281 C 702.308594 533.886719 700.160156 538.734375 697.890625 543.527344 C 695.625 548.320312 693.242188 553.054688 690.742188 557.734375 C 688.242188 562.410156 685.628906 567.019531 682.902344 571.570312 C 680.179688 576.117188 677.34375 580.597656 674.394531 585.003906 C 671.449219 589.414062 668.398438 593.746094 665.238281 598.007812 C 662.082031 602.265625 658.820312 606.445312 655.457031 610.542969 C 652.089844 614.640625 648.628906 618.65625 645.066406 622.585938 C 641.507812 626.515625 637.851562 630.351562 634.101562 634.101562 C 630.351562 637.851562 626.515625 641.507812 622.585938 645.066406 C 618.65625 648.628906 614.640625 652.089844 610.542969 655.457031 C 606.445312 658.820312 602.265625 662.082031 598.007812 665.238281 C 593.746094 668.398438 589.414062 671.449219 585.003906 674.394531 C 580.597656 677.34375 576.117188 680.179688 571.570312 682.902344 C 567.019531 685.628906 562.410156 688.242188 557.734375 690.742188 C 553.054688 693.242188 548.320312 695.625 543.527344 697.890625 C 538.734375 700.160156 533.886719 702.308594 528.988281 704.335938 C 524.089844 706.367188 519.144531 708.273438 514.152344 710.058594 C 509.160156 711.847656 504.125 713.507812 499.050781 715.046875 C 493.976562 716.585938 488.867188 718 483.726562 719.289062 C 478.582031 720.578125 473.410156 721.738281 468.210938 722.773438 C 463.007812 723.808594 457.785156 724.714844 452.539062 725.492188 C 447.296875 726.269531 442.035156 726.921875 436.757812 727.441406 C 431.480469 727.960938 426.195312 728.347656 420.898438 728.609375 C 415.601562 728.871094 410.300781 729 405 729 C 399.699219 729 394.398438 728.871094 389.101562 728.609375 C 383.804688 728.347656 378.519531 727.960938 373.242188 727.441406 C 367.964844 726.921875 362.703125 726.269531 357.460938 725.492188 C 352.214844 724.714844 346.992188 723.808594 341.789062 722.773438 C 336.589844 721.738281 331.417969 720.578125 326.273438 719.289062 C 321.128906 718 316.023438 716.585938 310.949219 715.046875 C 305.875 713.507812 300.839844 711.847656 295.847656 710.058594 C 290.855469 708.273438 285.910156 706.367188 281.011719 704.335938 C 276.113281 702.308594 271.265625 700.160156 266.472656 697.890625 C 261.679688 695.625 256.945312 693.242188 252.265625 690.742188 C 247.589844 688.242188 242.980469 685.628906 238.429688 682.902344 C 233.882812 680.179688 229.402344 677.34375 224.996094 674.394531 C 220.585938 671.449219 216.253906 668.398438 211.992188 665.238281 C 207.734375 662.082031 203.554688 658.820312 199.457031 655.457031 C 195.359375 652.089844 191.34375 648.628906 187.414062 645.066406 C 183.484375 641.507812 179.648438 637.851562 175.898438 634.101562 C 172.148438 630.351562 168.492188 626.515625 164.933594 622.585938 C 161.371094 618.65625 157.910156 614.640625 154.542969 610.542969 C 151.179688 606.445312 147.917969 602.265625 144.761719 598.007812 C 141.601562 593.746094 138.550781 589.414062 135.605469 585.003906 C 132.65625 580.597656 129.820312 576.117188 127.097656 571.570312 C 124.371094 567.019531 121.757812 562.410156 119.257812 557.734375 C 116.757812 553.054688 114.375 548.320312 112.109375 543.527344 C 109.839844 538.734375 107.691406 533.886719 105.664062 528.988281 C 103.632812 524.089844 101.726562 519.144531 99.941406 514.152344 C 98.152344 509.160156 96.492188 504.125 94.953125 499.050781 C 93.410156 493.976562 92 488.867188 90.710938 483.726562 C 89.421875 478.582031 88.261719 473.410156 87.226562 468.210938 C 86.191406 463.007812 85.285156 457.785156 84.507812 452.539062 C 83.730469 447.296875 83.078125 442.035156 82.558594 436.757812 C 82.039062 431.480469 81.652344 426.195312 81.390625 420.898438 C 81.128906 415.601562 81 410.300781 81 405 C 81 399.699219 81.128906 394.398438 81.390625 389.101562 C 81.652344 383.804688 82.039062 378.519531 82.558594 373.242188 C 83.078125 367.964844 83.730469 362.703125 84.507812 357.460938 C 85.285156 352.214844 86.191406 346.992188 87.226562 341.789062 C 88.261719 336.589844 89.421875 331.417969 90.710938 326.273438 C 92 321.128906 93.410156 316.023438 94.953125 310.949219 C 96.492188 305.875 98.152344 300.839844 99.941406 295.847656 C 101.726562 290.855469 103.632812 285.910156 105.664062 281.011719 C 107.691406 276.113281 109.839844 271.265625 112.109375 266.472656 C 114.375 261.679688 116.757812 256.945312 119.257812 252.265625 C 121.757812 247.589844 124.371094 242.980469 127.097656 238.429688 C 129.820312 233.882812 132.65625 229.402344 135.605469 224.996094 C 138.550781 220.585938 141.601562 216.253906 144.761719 211.992188 C 147.917969 207.734375 151.179688 203.554688 154.542969 199.457031 C 157.910156 195.359375 161.371094 191.34375 164.933594 187.414062 C 168.492188 183.484375 172.148438 179.648438 175.898438 175.898438 C 179.648438 172.148438 183.484375 168.492188 187.414062 164.933594 C 191.34375 161.371094 195.359375 157.910156 199.457031 154.542969 C 203.554688 151.179688 207.734375 147.917969 211.992188 144.761719 C 216.253906 141.601562 220.585938 138.550781 224.996094 135.605469 C 229.402344 132.65625 233.882812 129.820312 238.429688 127.097656 C 242.980469 124.371094 247.589844 121.757812 252.265625 119.257812 C 256.945312 116.757812 261.679688 114.375 266.472656 112.109375 C 271.265625 109.839844 276.113281 107.691406 281.011719 105.664062 C 285.910156 103.632812 290.855469 101.726562 295.847656 99.941406 C 300.839844 98.152344 305.875 96.492188 310.949219 94.953125 C 316.023438 93.414062 321.128906 92 326.273438 90.710938 C 331.417969 89.421875 336.589844 88.261719 341.789062 87.226562 C 346.992188 86.191406 352.214844 85.285156 357.460938 84.507812 C 362.703125 83.730469 367.964844 83.078125 373.242188 82.558594 C 378.519531 82.039062 383.804688 81.652344 389.101562 81.390625 C 394.398438 81.128906 399.699219 81 405 81 C 410.300781 81 415.601562 81.128906 420.898438 81.390625 C 426.195312 81.652344 431.480469 82.039062 436.757812 82.558594 C 442.035156 83.078125 447.296875 83.730469 452.539062 84.507812 C 457.785156 85.285156 463.007812 86.191406 468.210938 87.226562 C 473.410156 88.261719 478.582031 89.421875 483.726562 90.710938 C 488.867188 92 493.976562 93.414062 499.050781 94.953125 C 504.125 96.492188 509.160156 98.152344 514.152344 99.941406 C 519.144531 101.726562 524.089844 103.632812 528.988281 105.664062 C 533.886719 107.691406 538.734375 109.839844 543.527344 112.109375 C 548.320312 114.375 553.054688 116.757812 557.734375 119.257812 C 562.410156 121.757812 567.019531 124.371094 571.570312 127.097656 C 576.117188 129.820312 580.597656 132.65625 585.003906 135.605469 C 589.414062 138.550781 593.746094 141.601562 598.007812 144.761719 C 602.265625 147.917969 606.445312 151.179688 610.542969 154.542969 C 614.640625 157.910156 618.65625 161.371094 622.585938 164.933594 C 626.515625 168.492188 630.351562 172.148438 634.101562 175.898438 C 637.851562 179.648438 641.507812 183.484375 645.066406 187.414062 C 648.628906 191.34375 652.089844 195.359375 655.457031 199.457031 C 658.820312 203.554688 662.082031 207.734375 665.238281 211.992188 C 668.398438 216.253906 671.449219 220.585938 674.394531 224.996094 C 677.34375 229.402344 680.179688 233.882812 682.902344 238.429688 C 685.628906 242.980469 688.242188 247.589844 690.742188 252.265625 C 693.242188 256.945312 695.625 261.679688 697.890625 266.472656 C 700.160156 271.265625 702.308594 276.113281 704.335938 281.011719 C 706.367188 285.910156 708.273438 290.855469 710.058594 295.847656 C 711.847656 300.839844 713.507812 305.875 715.046875 310.949219 C 716.585938 316.023438 718 321.128906 719.289062 326.273438 C 720.578125 331.417969 721.738281 336.589844 722.773438 341.789062 C 723.808594 346.992188 724.714844 352.214844 725.492188 357.460938 C 726.269531 362.703125 726.921875 367.964844 727.441406 373.242188 C 727.960938 378.519531 728.347656 383.804688 728.609375 389.101562 C 728.871094 394.398438 729 399.699219 729 405 Z M 729 405 " fill-opacity="1" fill-rule="nonzero"/><path fill="#252e32" d="M 513.890625 612.574219 L 296.351562 612.574219 C 269.371094 612.574219 247.253906 590.457031 247.253906 563.476562 L 247.253906 246.765625 C 247.253906 219.789062 269.371094 197.667969 296.351562 197.667969 L 513.890625 197.667969 C 540.871094 197.667969 562.988281 219.789062 562.988281 246.765625 L 562.988281 563.476562 C 562.988281 590.457031 540.871094 612.574219 513.890625 612.574219 Z M 508.300781 357.601562 C 511.945312 357.601562 514.863281 354.6875 514.863281 351.285156 C 514.863281 347.636719 511.945312 344.722656 508.300781 344.722656 L 301.699219 344.722656 C 298.296875 344.722656 295.378906 347.636719 295.378906 351.285156 C 295.378906 354.6875 298.296875 357.601562 301.699219 357.601562 Z M 508.300781 309.71875 C 511.945312 309.71875 514.863281 306.804688 514.863281 303.15625 C 514.863281 299.753906 511.945312 296.839844 508.300781 296.839844 L 301.699219 296.839844 C 298.296875 296.839844 295.378906 299.753906 295.378906 303.15625 C 295.378906 306.804688 298.296875 309.71875 301.699219 309.71875 Z M 478.40625 261.835938 C 482.050781 261.835938 484.96875 258.921875 484.96875 255.273438 C 484.96875 251.871094 482.050781 248.953125 478.40625 248.953125 L 331.59375 248.953125 C 328.191406 248.953125 325.277344 251.871094 325.277344 255.273438 C 325.277344 258.921875 328.191406 261.835938 331.59375 261.835938 Z M 395.765625 510.730469 C 397.464844 510.730469 398.921875 510.003906 400.140625 509.03125 L 435.867188 473.300781 C 438.300781 470.871094 438.300781 466.738281 435.867188 464.0625 C 433.195312 461.632812 429.304688 461.632812 426.632812 464.0625 L 395.765625 495.175781 L 383.367188 483.023438 C 380.9375 480.347656 376.804688 480.347656 374.375 483.023438 C 371.699219 485.453125 371.699219 489.585938 374.375 492.015625 L 391.144531 508.785156 C 392.359375 510.003906 394.0625 510.730469 395.765625 510.730469 Z M 405 561.289062 C 405.730469 561.289062 406.214844 561.289062 406.703125 561.046875 C 426.875 555.941406 443.648438 544.761719 455.3125 527.503906 C 462.605469 516.566406 468.195312 501.738281 468.683594 488.613281 C 468.683594 488.371094 468.683594 488.371094 468.683594 488.371094 L 468.683594 427.847656 C 468.683594 425.417969 467.464844 423.230469 465.277344 422.015625 C 463.335938 421.042969 460.902344 421.042969 458.960938 422.015625 C 454.097656 424.929688 448.75 426.144531 443.402344 426.144531 C 431.980469 426.144531 417.882812 420.3125 409.132812 413.265625 C 406.703125 411.320312 403.296875 411.320312 401.109375 413.265625 C 392.359375 420.3125 378.019531 426.144531 366.839844 426.144531 C 361.25 426.144531 356.144531 424.929688 351.285156 422.015625 C 349.339844 421.042969 346.910156 421.042969 344.722656 422.015625 C 342.777344 423.230469 341.5625 425.417969 341.5625 427.847656 L 341.5625 488.371094 C 341.5625 488.371094 341.5625 488.371094 341.5625 488.613281 C 342.046875 501.738281 347.636719 516.566406 354.929688 527.503906 C 366.597656 544.761719 383.367188 555.699219 403.542969 561.046875 C 404.027344 561.289062 404.515625 561.289062 405 561.289062 Z M 354.445312 487.882812 L 354.445312 437.8125 L 360.035156 438.542969 C 362.222656 439.027344 364.652344 439.027344 366.839844 439.027344 C 379.234375 439.027344 392.117188 434.167969 402.570312 427.847656 L 405 426.144531 L 407.671875 427.847656 C 418.125 434.167969 430.765625 439.027344 443.160156 439.027344 C 445.589844 439.027344 447.777344 439.027344 450.210938 438.542969 L 455.558594 437.8125 L 455.558594 487.882812 C 455.558594 495.90625 451.667969 507.328125 448.023438 514.378906 C 439.273438 531.148438 424.6875 542.328125 406.457031 547.675781 L 405 548.164062 L 403.785156 547.675781 C 385.554688 542.328125 370.726562 531.148438 361.976562 514.132812 C 358.574219 507.328125 354.445312 495.90625 354.445312 487.882812 Z M 354.445312 487.882812 " fill-opacity="1" fill-rule="evenodd"/></svg>