<svg xmlns="http://www.w3.org/2000/svg" xmlns:xlink="http://www.w3.org/1999/xlink" width="1080" zoomAndPan="magnify" viewBox="0 0 810 809.999993" height="1080" preserveAspectRatio="xMidYMid meet" version="1.0"><path fill="#ffffff" d="M 405 81 C 226.152344 81 81 226.152344 81 405 C 81 583.847656 226.152344 729 405 729 C 583.847656 729 729 583.847656 729 405 C 729 226.152344 583.847656 81 405 81 Z M 405 210.601562 C 447.550781 210.601562 482.113281 245.160156 482.113281 287.710938 C 482.113281 330.261719 447.550781 365.039062 405 365.039062 C 362.449219 365.039062 327.886719 330.261719 327.886719 287.710938 C 327.886719 245.160156 362.449219 210.601562 405 210.601562 Z M 501.765625 599.398438 L 308.234375 599.398438 C 278.207031 599.398438 253.800781 574.992188 253.800781 544.96875 C 253.800781 461.59375 321.625 393.769531 405 393.769531 C 488.375 393.769531 556.199219 461.59375 556.199219 544.96875 C 556.199219 574.992188 531.792969 599.398438 501.765625 599.398438 Z M 501.765625 599.398438 " fill-opacity="1" fill-rule="nonzero"/></svg>