<svg xmlns="http://www.w3.org/2000/svg" xmlns:xlink="http://www.w3.org/1999/xlink" width="1080" zoomAndPan="magnify" viewBox="0 0 810 809.999993" height="1080" preserveAspectRatio="xMidYMid meet" version="1.0"><defs><clipPath id="c20db4620b"><path d="M 91.507812 91.507812 L 718.507812 91.507812 L 718.507812 718.507812 L 91.507812 718.507812 Z M 91.507812 91.507812 " clip-rule="nonzero"/></clipPath></defs><g clip-path="url(#c20db4620b)"><path fill="#ffffff" d="M 404.996094 91.507812 C 231.859375 91.507812 91.507812 231.859375 91.507812 404.996094 C 91.507812 578.132812 231.859375 718.484375 404.996094 718.484375 C 578.128906 718.484375 718.484375 578.132812 718.484375 404.996094 C 718.484375 231.859375 578.128906 91.507812 404.996094 91.507812 Z M 587.285156 413.855469 C 578.351562 422.792969 565.164062 424.871094 554.238281 420.105469 L 554.238281 539.011719 C 554.238281 563.738281 534.195312 583.78125 509.46875 583.78125 L 300.527344 583.78125 C 275.796875 583.78125 255.753906 563.734375 255.753906 539.011719 L 255.753906 420.105469 C 244.832031 424.871094 231.644531 422.792969 222.707031 413.855469 C 211.050781 402.199219 211.050781 383.300781 222.707031 371.644531 L 383.890625 210.460938 C 395.546875 198.804688 414.445312 198.804688 426.101562 210.460938 L 587.285156 371.644531 C 598.941406 383.300781 598.941406 402.199219 587.285156 413.855469 Z M 587.285156 413.855469 " fill-opacity="1" fill-rule="nonzero"/></g><path fill="#ffffff" d="M 442.308594 419.613281 L 367.683594 419.613281 C 359.441406 419.613281 352.757812 426.296875 352.757812 434.539062 L 352.757812 524.085938 C 352.757812 532.328125 359.441406 539.011719 367.683594 539.011719 L 442.308594 539.011719 C 450.550781 539.011719 457.230469 532.328125 457.230469 524.085938 L 457.230469 434.539062 C 457.230469 426.296875 450.550781 419.613281 442.308594 419.613281 Z M 442.308594 419.613281 " fill-opacity="1" fill-rule="nonzero"/></svg>