<svg xmlns="http://www.w3.org/2000/svg" xmlns:xlink="http://www.w3.org/1999/xlink" width="1080" zoomAndPan="magnify" viewBox="0 0 810 809.999993" height="1080" preserveAspectRatio="xMidYMid meet" version="1.0"><path fill="#ffffff" d="M 729 405 C 729 410.300781 728.871094 415.601562 728.609375 420.898438 C 728.347656 426.195312 727.960938 431.480469 727.441406 436.757812 C 726.921875 442.035156 726.269531 447.296875 725.492188 452.539062 C 724.714844 457.785156 723.808594 463.007812 722.773438 468.210938 C 721.738281 473.410156 720.578125 478.582031 719.289062 483.726562 C 718 488.867188 716.585938 493.976562 715.046875 499.050781 C 713.507812 504.125 711.847656 509.160156 710.058594 514.152344 C 708.273438 519.144531 706.367188 524.089844 704.335938 528.988281 C 702.308594 533.886719 700.160156 538.734375 697.890625 543.527344 C 695.625 548.320312 693.242188 553.054688 690.742188 557.734375 C 688.242188 562.410156 685.628906 567.019531 682.902344 571.570312 C 680.179688 576.117188 677.34375 580.597656 674.394531 585.003906 C 671.449219 589.414062 668.398438 593.746094 665.238281 598.007812 C 662.082031 602.265625 658.820312 606.445312 655.457031 610.542969 C 652.089844 614.640625 648.628906 618.65625 645.066406 622.585938 C 641.507812 626.515625 637.851562 630.351562 634.101562 634.101562 C 630.351562 637.851562 626.515625 641.507812 622.585938 645.066406 C 618.65625 648.628906 614.640625 652.089844 610.542969 655.457031 C 606.445312 658.820312 602.265625 662.082031 598.007812 665.238281 C 593.746094 668.398438 589.414062 671.449219 585.003906 674.394531 C 580.597656 677.34375 576.117188 680.179688 571.570312 682.902344 C 567.019531 685.628906 562.410156 688.242188 557.734375 690.742188 C 553.054688 693.242188 548.320312 695.625 543.527344 697.890625 C 538.734375 700.160156 533.886719 702.308594 528.988281 704.335938 C 524.089844 706.367188 519.144531 708.273438 514.152344 710.058594 C 509.160156 711.847656 504.125 713.507812 499.050781 715.046875 C 493.976562 716.585938 488.867188 718 483.726562 719.289062 C 478.582031 720.578125 473.410156 721.738281 468.210938 722.773438 C 463.007812 723.808594 457.785156 724.714844 452.539062 725.492188 C 447.296875 726.269531 442.035156 726.921875 436.757812 727.441406 C 431.480469 727.960938 426.195312 728.347656 420.898438 728.609375 C 415.601562 728.871094 410.300781 729 405 729 C 399.699219 729 394.398438 728.871094 389.101562 728.609375 C 383.804688 728.347656 378.519531 727.960938 373.242188 727.441406 C 367.964844 726.921875 362.703125 726.269531 357.460938 725.492188 C 352.214844 724.714844 346.992188 723.808594 341.789062 722.773438 C 336.589844 721.738281 331.417969 720.578125 326.273438 719.289062 C 321.128906 718 316.023438 716.585938 310.949219 715.046875 C 305.875 713.507812 300.839844 711.847656 295.847656 710.058594 C 290.855469 708.273438 285.910156 706.367188 281.011719 704.335938 C 276.113281 702.308594 271.265625 700.160156 266.472656 697.890625 C 261.679688 695.625 256.945312 693.242188 252.265625 690.742188 C 247.589844 688.242188 242.980469 685.628906 238.429688 682.902344 C 233.882812 680.179688 229.402344 677.34375 224.996094 674.394531 C 220.585938 671.449219 216.253906 668.398438 211.992188 665.238281 C 207.734375 662.082031 203.554688 658.820312 199.457031 655.457031 C 195.359375 652.089844 191.34375 648.628906 187.414062 645.066406 C 183.484375 641.507812 179.648438 637.851562 175.898438 634.101562 C 172.148438 630.351562 168.492188 626.515625 164.933594 622.585938 C 161.371094 618.65625 157.910156 614.640625 154.542969 610.542969 C 151.179688 606.445312 147.917969 602.265625 144.761719 598.007812 C 141.601562 593.746094 138.550781 589.414062 135.605469 585.003906 C 132.65625 580.597656 129.820312 576.117188 127.097656 571.570312 C 124.371094 567.019531 121.757812 562.410156 119.257812 557.734375 C 116.757812 553.054688 114.375 548.320312 112.109375 543.527344 C 109.839844 538.734375 107.691406 533.886719 105.664062 528.988281 C 103.632812 524.089844 101.726562 519.144531 99.941406 514.152344 C 98.152344 509.160156 96.492188 504.125 94.953125 499.050781 C 93.410156 493.976562 92 488.867188 90.710938 483.726562 C 89.421875 478.582031 88.261719 473.410156 87.226562 468.210938 C 86.191406 463.007812 85.285156 457.785156 84.507812 452.539062 C 83.730469 447.296875 83.078125 442.035156 82.558594 436.757812 C 82.039062 431.480469 81.652344 426.195312 81.390625 420.898438 C 81.128906 415.601562 81 410.300781 81 405 C 81 399.699219 81.128906 394.398438 81.390625 389.101562 C 81.652344 383.804688 82.039062 378.519531 82.558594 373.242188 C 83.078125 367.964844 83.730469 362.703125 84.507812 357.460938 C 85.285156 352.214844 86.191406 346.992188 87.226562 341.789062 C 88.261719 336.589844 89.421875 331.417969 90.710938 326.273438 C 92 321.128906 93.410156 316.023438 94.953125 310.949219 C 96.492188 305.875 98.152344 300.839844 99.941406 295.847656 C 101.726562 290.855469 103.632812 285.910156 105.664062 281.011719 C 107.691406 276.113281 109.839844 271.265625 112.109375 266.472656 C 114.375 261.679688 116.757812 256.945312 119.257812 252.265625 C 121.757812 247.589844 124.371094 242.980469 127.097656 238.429688 C 129.820312 233.882812 132.65625 229.402344 135.605469 224.996094 C 138.550781 220.585938 141.601562 216.253906 144.761719 211.992188 C 147.917969 207.734375 151.179688 203.554688 154.542969 199.457031 C 157.910156 195.359375 161.371094 191.34375 164.933594 187.414062 C 168.492188 183.484375 172.148438 179.648438 175.898438 175.898438 C 179.648438 172.148438 183.484375 168.492188 187.414062 164.933594 C 191.34375 161.371094 195.359375 157.910156 199.457031 154.542969 C 203.554688 151.179688 207.734375 147.917969 211.992188 144.761719 C 216.253906 141.601562 220.585938 138.550781 224.996094 135.605469 C 229.402344 132.65625 233.882812 129.820312 238.429688 127.097656 C 242.980469 124.371094 247.589844 121.757812 252.265625 119.257812 C 256.945312 116.757812 261.679688 114.375 266.472656 112.109375 C 271.265625 109.839844 276.113281 107.691406 281.011719 105.664062 C 285.910156 103.632812 290.855469 101.726562 295.847656 99.941406 C 300.839844 98.152344 305.875 96.492188 310.949219 94.953125 C 316.023438 93.410156 321.128906 92 326.273438 90.710938 C 331.417969 89.421875 336.589844 88.261719 341.789062 87.226562 C 346.992188 86.191406 352.214844 85.285156 357.460938 84.507812 C 362.703125 83.730469 367.964844 83.078125 373.242188 82.558594 C 378.519531 82.039062 383.804688 81.652344 389.101562 81.390625 C 394.398438 81.128906 399.699219 81 405 81 C 410.300781 81 415.601562 81.128906 420.898438 81.390625 C 426.195312 81.652344 431.480469 82.039062 436.757812 82.558594 C 442.035156 83.078125 447.296875 83.730469 452.539062 84.507812 C 457.785156 85.285156 463.007812 86.191406 468.210938 87.226562 C 473.410156 88.261719 478.582031 89.421875 483.726562 90.710938 C 488.867188 92 493.976562 93.414062 499.050781 94.953125 C 504.125 96.492188 509.160156 98.152344 514.152344 99.941406 C 519.144531 101.726562 524.089844 103.632812 528.988281 105.664062 C 533.886719 107.691406 538.734375 109.839844 543.527344 112.109375 C 548.320312 114.375 553.054688 116.757812 557.734375 119.257812 C 562.410156 121.757812 567.019531 124.371094 571.570312 127.097656 C 576.117188 129.820312 580.597656 132.65625 585.003906 135.605469 C 589.414062 138.550781 593.746094 141.601562 598.007812 144.761719 C 602.265625 147.917969 606.445312 151.179688 610.542969 154.542969 C 614.640625 157.910156 618.65625 161.371094 622.585938 164.933594 C 626.515625 168.492188 630.351562 172.148438 634.101562 175.898438 C 637.851562 179.648438 641.507812 183.484375 645.066406 187.414062 C 648.628906 191.34375 652.089844 195.359375 655.457031 199.457031 C 658.820312 203.554688 662.082031 207.734375 665.238281 211.992188 C 668.398438 216.253906 671.449219 220.585938 674.394531 224.996094 C 677.34375 229.402344 680.179688 233.882812 682.902344 238.429688 C 685.628906 242.980469 688.242188 247.589844 690.742188 252.265625 C 693.242188 256.945312 695.625 261.679688 697.890625 266.472656 C 700.160156 271.265625 702.308594 276.113281 704.335938 281.011719 C 706.367188 285.910156 708.273438 290.855469 710.058594 295.847656 C 711.847656 300.839844 713.507812 305.875 715.046875 310.949219 C 716.585938 316.023438 718 321.128906 719.289062 326.273438 C 720.578125 331.417969 721.738281 336.589844 722.773438 341.789062 C 723.808594 346.992188 724.714844 352.214844 725.492188 357.460938 C 726.269531 362.703125 726.921875 367.964844 727.441406 373.242188 C 727.960938 378.519531 728.347656 383.804688 728.609375 389.101562 C 728.871094 394.398438 729 399.699219 729 405 Z M 729 405 " fill-opacity="1" fill-rule="nonzero"/><path fill="#252e32" d="M 406.53125 567 C 396.636719 565.234375 390.273438 565.351562 385.679688 565.46875 C 376.253906 565.585938 374.015625 565.703125 350.6875 540.960938 C 349.273438 539.429688 347.152344 538.839844 345.148438 539.3125 C 339.492188 540.726562 333.601562 541.433594 327.476562 541.433594 C 286.828125 541.433594 253.722656 508.328125 253.722656 467.679688 C 253.722656 432.097656 279.171875 401.699219 313.691406 395.222656 C 318.640625 409.59375 332.304688 420.082031 348.328125 420.082031 L 356.222656 420.082031 L 305.796875 503.140625 C 304.382812 505.382812 304.738281 508.328125 306.621094 510.09375 C 307.683594 511.152344 309.214844 511.742188 310.628906 511.742188 C 311.6875 511.742188 312.628906 511.507812 313.574219 510.917969 L 400.523438 458.253906 C 400.875 461.433594 401.113281 464.5 401.113281 467.679688 C 401.113281 485.117188 395.222656 501.492188 384.027344 514.925781 C 382.378906 516.925781 382.261719 519.871094 383.792969 521.992188 C 392.984375 534.363281 395.574219 541.550781 398.402344 549.210938 C 400.40625 554.511719 402.40625 559.929688 406.53125 567 Z M 406.53125 567 " fill-opacity="1" fill-rule="nonzero"/><path fill="#252e32" d="M 531.066406 243 L 348.328125 243 C 334.425781 243 323.117188 254.3125 323.117188 268.214844 L 323.117188 383.4375 C 323.117188 384.851562 323.234375 386.265625 323.46875 387.5625 C 323.46875 387.679688 323.46875 387.796875 323.46875 387.917969 C 325.589844 399.699219 335.839844 408.652344 348.210938 408.652344 L 366.238281 408.652344 C 368.359375 408.652344 370.242188 409.710938 371.1875 411.597656 C 372.246094 413.363281 372.128906 415.605469 371.066406 417.371094 L 327.476562 489.121094 L 401.699219 444.234375 L 459.078125 409.476562 C 460.019531 408.886719 460.964844 408.652344 462.023438 408.652344 L 531.066406 408.652344 C 544.96875 408.652344 556.277344 397.339844 556.277344 383.4375 L 556.277344 268.214844 C 556.277344 254.3125 544.96875 243 531.066406 243 Z M 371.65625 304.03125 L 371.65625 319.933594 L 385.914062 319.933594 C 389.09375 319.933594 391.570312 322.527344 391.570312 325.589844 C 391.570312 328.773438 388.976562 331.246094 385.914062 331.246094 L 371.65625 331.246094 L 371.65625 353.160156 C 371.65625 356.339844 369.066406 358.816406 366.003906 358.816406 C 362.820312 358.816406 360.347656 356.222656 360.347656 353.160156 L 360.347656 298.257812 C 360.347656 295.074219 362.9375 292.601562 366.003906 292.601562 L 403.703125 292.601562 C 406.886719 292.601562 409.359375 295.195312 409.359375 298.257812 C 409.359375 301.320312 406.765625 303.910156 403.703125 303.910156 Z M 446.707031 358.699219 C 446.117188 358.816406 445.648438 358.933594 445.058594 358.933594 C 442.582031 358.933594 440.34375 357.285156 439.636719 354.808594 L 435.75 341.847656 L 421.613281 341.847656 L 417.722656 354.808594 C 416.78125 357.871094 413.601562 359.523438 410.65625 358.699219 C 407.59375 357.753906 405.941406 354.574219 406.765625 351.628906 L 423.144531 296.726562 C 423.851562 294.367188 426.089844 292.71875 428.5625 292.71875 C 431.039062 292.71875 433.277344 294.367188 433.984375 296.726562 L 450.359375 351.628906 C 451.421875 354.691406 449.769531 357.871094 446.707031 358.699219 Z M 499.019531 358.933594 C 492.066406 358.933594 486.414062 354.691406 485.707031 348.917969 C 483.9375 349.390625 482.171875 349.625 480.285156 349.625 C 466.265625 349.625 454.835938 336.902344 454.835938 321.113281 C 454.835938 305.445312 466.265625 292.601562 480.285156 292.601562 C 494.304688 292.601562 505.734375 305.445312 505.734375 321.113281 C 505.734375 329.714844 502.316406 337.371094 497.015625 342.554688 L 497.015625 347.035156 C 497.371094 347.269531 498.078125 347.503906 498.902344 347.503906 C 499.84375 347.503906 500.550781 347.269531 500.902344 347.035156 C 501.257812 344.207031 503.613281 342.085938 506.558594 342.085938 C 509.742188 342.085938 512.214844 344.675781 512.214844 347.742188 C 512.332031 354.101562 506.558594 358.933594 499.019531 358.933594 Z M 499.019531 358.933594 " fill-opacity="1" fill-rule="nonzero"/><path fill="#252e32" d="M 432.332031 330.539062 L 425.027344 330.539062 L 428.679688 318.285156 Z M 432.332031 330.539062 " fill-opacity="1" fill-rule="nonzero"/><path fill="#252e32" d="M 476.164062 328.300781 C 476.164062 331.480469 478.753906 333.957031 481.816406 333.957031 C 483.9375 333.957031 485.351562 334.898438 485.707031 335.25 L 485.707031 336.902344 C 484.054688 337.726562 482.289062 338.195312 480.402344 338.195312 C 472.628906 338.195312 466.265625 330.539062 466.265625 321.113281 C 466.265625 311.6875 472.628906 304.03125 480.402344 304.03125 C 488.179688 304.03125 494.542969 311.6875 494.542969 321.113281 C 494.542969 323.234375 494.1875 325.121094 493.71875 327.003906 C 490.890625 324.292969 486.765625 322.527344 481.933594 322.527344 C 478.636719 322.527344 476.164062 325.121094 476.164062 328.300781 Z M 476.164062 328.300781 " fill-opacity="1" fill-rule="nonzero"/></svg>