<svg width="36" height="36" viewBox="0 0 36 36" fill="none" xmlns="http://www.w3.org/2000/svg">
<path d="M29.93 5H20.5881C19.9854 5 19.5197 5.49253 19.5197 6.06737C19.5197 6.64221 20.0127 7.13474 20.5881 7.13474H27.3275L20.0676 14.4148C18.4787 13.1557 16.4788 12.3894 14.3145 12.3894C9.19153 12.3894 5 16.5495 5 21.6947C5 26.84 9.16419 31 14.3145 31C19.4375 31 23.629 26.8399 23.629 21.6947C23.629 19.5327 22.862 17.5347 21.6017 15.9473L28.8621 8.69518V15.4278C28.8621 16.0299 29.3551 16.4952 29.9305 16.4952C30.5059 16.4952 30.9989 16.0027 30.9989 15.4278V6.06781C31.0262 5.49297 30.5332 5.00044 29.9305 5.00044L29.93 5ZM14.3145 28.8379C10.3695 28.8379 7.16426 25.6358 7.16426 21.6948C7.16426 17.7537 10.3695 14.5516 14.3145 14.5516C18.2595 14.5516 21.4648 17.7537 21.4648 21.6948C21.4648 25.6357 18.2595 28.8379 14.3145 28.8379Z" fill="#909196"/>
</svg>
