<?xml version="1.0" encoding="UTF-8" standalone="no"?>
<!DOCTYPE svg PUBLIC "-//W3C//DTD SVG 1.1//EN" "http://www.w3.org/Graphics/SVG/1.1/DTD/svg11.dtd">
<svg width="100%" height="100%" viewBox="0 0 1080 1080" version="1.1" xmlns="http://www.w3.org/2000/svg" xmlns:xlink="http://www.w3.org/1999/xlink" xml:space="preserve" xmlns:serif="http://www.serif.com/" style="fill-rule:evenodd;clip-rule:evenodd;stroke-linecap:round;stroke-linejoin:round;stroke-miterlimit:10;">
    <g transform="matrix(1.48438,0,0,1.48438,-236.303,-190.836)">
        <circle cx="522.983" cy="492.353" r="290.42" style="fill:white;"/>
    </g>
    <g id="food-tray--1-.svg" serif:id="food-tray (1).svg" transform="matrix(0.858059,0,0,0.858059,540,525.252)">
        <g transform="matrix(1,0,0,1,-341.333,-341.333)">
            <clipPath id="_clip1">
                <rect x="0" y="0" width="682.667" height="682.667"/>
            </clipPath>
            <g clip-path="url(#_clip1)">
                <g id="g1992" transform="matrix(1.33333,0,0,-1.33333,0,682.667)">
                    <g id="g1994">
                        <g id="g1996">
                            <g id="g2002" transform="matrix(1,0,0,1,415,76)">
                                <path id="path2004" d="M0,0L-320,0C-364.183,0 -400,35.817 -400,80L82,80C82,35.817 44.183,0 0,0Z" style="fill:none;fill-rule:nonzero;stroke:black;stroke-width:30px;"/>
                            </g>
                            <g id="g2006" transform="matrix(1,0,0,1,256,376)">
                                <path id="path2008" d="M0,0C-121.503,0 -220,-98.498 -220,-220L220,-220C220,-98.498 121.503,0 0,0Z" style="fill:none;fill-rule:nonzero;stroke:black;stroke-width:30px;"/>
                            </g>
                            <g id="g2010" transform="matrix(1,0,0,1,296,372.305)">
                                <path id="path2012" d="M0,0L0,23.695C0,45.787 -17.908,63.695 -40,63.695C-62.092,63.695 -80,45.787 -80,23.695L-80,0" style="fill:none;fill-rule:nonzero;stroke:black;stroke-width:30px;"/>
                            </g>
                        </g>
                    </g>
                </g>
            </g>
        </g>
    </g>
</svg>
