<svg width="182" height="182" viewBox="0 0 182 182" fill="none" xmlns="http://www.w3.org/2000/svg">
<path d="M45.5132 159.25H136.485C138.985 159.256 141.396 158.311 143.233 156.605C150.896 149.467 157.027 140.827 161.248 131.217C165.469 121.606 167.691 111.229 167.778 100.722C168.171 58.0022 133.651 22.851 91.1852 22.7502C48.695 22.6493 14.2188 57.2714 14.2188 99.9941C14.2067 110.628 16.383 121.148 20.6109 130.894C24.8387 140.639 31.0265 149.399 38.7845 156.621C40.6177 158.319 43.021 159.258 45.5132 159.25Z" fill="url(#paint0_linear_1678_4260)"/>
<path d="M83.9275 104.709C83.706 103.061 82.8945 101.55 81.6429 100.455C80.3913 99.3603 78.7853 98.757 77.1227 98.757H73.3157V100.78C72.2542 101.841 71.5714 103.222 71.3716 104.709L65.9795 144.864H89.3196L83.9275 104.709Z" fill="#D4D9E3"/>
<path d="M85.5132 144.864H61.1191L66.5112 104.709C66.7327 103.061 67.5442 101.55 68.7958 100.455C70.0475 99.3603 71.6535 98.757 73.3163 98.757C74.9789 98.757 76.5852 99.3603 77.8365 100.455C79.0881 101.55 79.8996 103.061 80.1211 104.709L85.5132 144.864Z" fill="#D4D9E3"/>
<path opacity="0.05" d="M85.5132 144.864H61.1191L66.5112 104.709C66.7327 103.061 67.5442 101.55 68.7958 100.455C70.0475 99.3603 71.6535 98.757 73.3163 98.757C74.9789 98.757 76.5852 99.3603 77.8365 100.455C79.0881 101.55 79.8996 103.061 80.1211 104.709L85.5132 144.864Z" fill="black"/>
<path d="M133.101 106.64C111.872 127.869 78.5636 128.979 58.7043 109.12C38.845 89.2611 39.9555 55.9522 61.1844 34.7232L133.101 106.64Z" fill="#E5E9F1"/>
<path d="M133.101 106.64C137.873 101.868 125.641 81.9014 105.782 62.0421C85.9226 42.1828 65.9556 29.9517 61.1841 34.7232C56.4127 39.4947 68.6437 59.4618 88.503 79.3211C108.362 99.1804 128.33 111.411 133.101 106.64Z" fill="#D4D9E3"/>
<path d="M72.3894 104.709C72.1679 103.061 71.3564 101.55 70.1048 100.455C68.8535 99.3603 67.2472 98.757 65.5846 98.757H61.7776V100.78C60.7161 101.841 60.0333 103.222 59.8335 104.709L54.4414 144.864H77.7815L72.3894 104.709Z" fill="#D4D9E3"/>
<path d="M73.9738 144.864H49.5801L54.9718 104.709C55.1933 103.061 56.0048 101.55 57.2564 100.455C58.508 99.3603 60.114 98.757 61.7769 98.757C63.4394 98.757 65.0458 99.3603 66.2971 100.455C67.5487 101.55 68.3602 103.061 68.5817 104.709L73.9738 144.864Z" fill="#E5E9F1"/>
<path d="M110.241 144.864H51.9336C50.6337 144.864 49.5801 145.918 49.5801 147.218V156.679C49.5801 157.978 50.6337 159.032 51.9336 159.032H110.241C111.541 159.032 112.595 157.978 112.595 156.679V147.218C112.595 145.918 111.541 144.864 110.241 144.864Z" fill="#D4D9E3"/>
<path opacity="0.05" d="M110.241 144.864H51.9336C50.6337 144.864 49.5801 145.918 49.5801 147.218V156.679C49.5801 157.978 50.6337 159.032 51.9336 159.032H110.241C111.541 159.032 112.595 157.978 112.595 156.679V147.218C112.595 145.918 111.541 144.864 110.241 144.864Z" fill="black"/>
<path d="M96.4407 144.864H38.1332C36.8333 144.864 35.7793 145.918 35.7793 147.218V156.679C35.7793 157.978 36.8333 159.032 38.1332 159.032H96.4407C97.7403 159.032 98.7943 157.978 98.7943 156.679V147.218C98.7943 145.918 97.7403 144.864 96.4407 144.864Z" fill="#D4D9E3"/>
<path d="M108.897 56.9009L85.7168 76.4823C86.6275 77.4278 87.5563 78.3741 88.503 79.3211C89.4496 80.2677 90.3958 81.1965 91.3414 82.1076L110.923 58.9275L108.897 56.9009Z" fill="#D4D9E3"/>
<path d="M108.897 56.9009L85.7168 76.4823C86.6275 77.4278 87.5563 78.3741 88.503 79.3211C89.4496 80.2677 90.3958 81.1965 91.3414 82.1076L110.923 58.9275L108.897 56.9009Z" fill="black" fill-opacity="0.05"/>
<path d="M111.766 61.6916C114.877 61.6916 117.399 59.1695 117.399 56.0585C117.399 52.9474 114.877 50.4254 111.766 50.4254C108.655 50.4254 106.133 52.9474 106.133 56.0585C106.133 59.1695 108.655 61.6916 111.766 61.6916Z" fill="#D4D9E3"/>
<path d="M129.685 58.6068C129.259 58.679 128.822 58.6559 128.405 58.5393C127.989 58.4227 127.603 58.2155 127.276 57.9325C126.949 57.6496 126.689 57.2977 126.514 56.9024C126.339 56.5071 126.253 56.0777 126.263 55.6454C126.339 52.3506 125.105 49.1599 122.832 46.7736C120.558 44.3877 117.431 43.0003 114.136 42.9168C113.359 42.8973 112.622 42.5702 112.086 42.0075C111.551 41.4448 111.26 40.6923 111.279 39.9156C111.298 39.1385 111.624 38.4013 112.187 37.8649C112.749 37.3285 113.501 37.0374 114.278 37.0555C119.127 37.1785 123.728 39.2196 127.074 42.7313C130.42 46.2426 132.236 50.938 132.125 55.7869C132.108 56.4669 131.855 57.1199 131.411 57.6346C130.966 58.149 130.356 58.4927 129.685 58.6068Z" fill="#199A8E"/>
<path d="M143.771 58.9481C143.345 59.0199 142.908 58.9968 142.492 58.8802C142.075 58.7636 141.69 58.5563 141.363 58.2734C141.036 57.9904 140.775 57.6385 140.6 57.2432C140.425 56.848 140.339 56.4186 140.349 55.9863C140.511 48.9566 137.878 42.1497 133.028 37.0587C128.178 31.9679 121.507 29.0087 114.477 28.8305C114.092 28.8212 113.713 28.7362 113.361 28.5803C113.009 28.4244 112.691 28.2008 112.425 27.922C112.16 27.6433 111.952 27.315 111.813 26.9559C111.675 26.5968 111.608 26.2138 111.617 25.829C111.627 25.4441 111.712 25.0648 111.867 24.7128C112.023 24.3608 112.247 24.043 112.526 23.7774C112.804 23.5118 113.133 23.3038 113.492 23.1651C113.851 23.0264 114.234 22.9598 114.619 22.9691C123.202 23.1866 131.349 26.7999 137.271 33.0163C143.194 39.2327 146.409 47.5446 146.211 56.1281C146.194 56.8081 145.942 57.4611 145.497 57.9755C145.052 58.4899 144.442 58.8336 143.771 58.9481Z" fill="#199A8E"/>
<path d="M61.7768 111.215C63.9349 111.215 65.6845 109.465 65.6845 107.307C65.6845 105.149 63.9349 103.399 61.7768 103.399C59.6188 103.399 57.8691 105.149 57.8691 107.307C57.8691 109.465 59.6188 111.215 61.7768 111.215Z" fill="white"/>
<defs>
<linearGradient id="paint0_linear_1678_4260" x1="91" y1="22.75" x2="91" y2="159.25" gradientUnits="userSpaceOnUse">
<stop stop-color="#FBFDFE"/>
<stop offset="1" stop-color="#F0F5FA"/>
</linearGradient>
</defs>
</svg>
