<svg xmlns="http://www.w3.org/2000/svg" xmlns:xlink="http://www.w3.org/1999/xlink" width="1080" zoomAndPan="magnify" viewBox="0 0 810 809.999993" height="1080" preserveAspectRatio="xMidYMid meet" version="1.0"><defs><clipPath id="cec04f516e"><path d="M 50.402344 267 L 759.597656 267 L 759.597656 652.082031 L 50.402344 652.082031 Z M 50.402344 267 " clip-rule="nonzero"/></clipPath></defs><g clip-path="url(#cec04f516e)"><path fill="#000000" d="M 522.421875 308.0625 C 537.910156 313.035156 553.148438 319.015625 567.878906 325.878906 C 632.917969 356.226562 690.402344 400.675781 736.238281 455.957031 C 738.191406 458.285156 738.191406 461.625 736.238281 463.953125 C 690.402344 519.234375 632.917969 563.621094 567.878906 594.03125 C 553.148438 600.894531 537.910156 606.875 522.421875 611.847656 C 606.347656 547 621.710938 426.363281 556.863281 342.5 C 546.914062 329.59375 535.328125 318.007812 522.421875 308.0625 Z M 287.511719 308.0625 C 203.585938 372.972656 188.222656 493.542969 253.074219 577.410156 C 263.019531 590.316406 274.605469 601.902344 287.511719 611.847656 C 271.960938 606.875 256.726562 600.894531 241.992188 594.03125 C 176.953125 563.621094 119.53125 519.234375 73.695312 463.953125 C 71.746094 461.625 71.746094 458.285156 73.695312 455.957031 C 119.53125 400.675781 176.953125 356.289062 241.992188 325.878906 C 256.726562 319.015625 271.960938 313.035156 287.511719 308.125 Z M 402.101562 287.722656 C 496.105469 286.152344 573.421875 361.074219 575.058594 455.011719 C 575.058594 456.648438 575.058594 458.347656 575.058594 459.988281 C 576.253906 553.925781 501.140625 631.113281 407.203125 632.375 C 313.203125 633.570312 236.011719 558.394531 234.816406 464.457031 C 234.816406 462.945312 234.816406 461.433594 234.816406 459.988281 C 233.617188 366.238281 308.417969 289.234375 402.101562 287.722656 Z M 420.046875 268.082031 C 355.511719 265.6875 291.289062 278.722656 232.800781 306.046875 C 164.863281 337.839844 104.738281 384.242188 56.886719 441.980469 C 48.261719 452.429688 48.261719 467.542969 56.886719 477.929688 C 104.738281 535.664062 164.863281 582.066406 232.800781 613.863281 C 341.910156 664.863281 468.085938 664.863281 577.261719 613.863281 C 645.132812 582.066406 705.261719 535.664062 753.113281 477.929688 C 761.738281 467.542969 761.738281 452.429688 753.113281 441.980469 C 705.261719 384.242188 645.132812 337.839844 577.261719 306.046875 C 527.898438 283.003906 474.445312 270.09375 420.046875 268.082031 " fill-opacity="1" fill-rule="nonzero"/></g><path fill="#000000" d="M 469.472656 459.988281 C 470.164062 424.351562 441.957031 394.882812 406.320312 394.128906 C 370.683594 393.375 341.21875 421.644531 340.464844 457.277344 C 340.464844 458.160156 340.464844 459.042969 340.464844 459.988281 C 339.707031 495.558594 367.976562 525.089844 403.613281 525.78125 C 439.25 526.535156 468.714844 498.265625 469.472656 462.628906 C 469.472656 461.75 469.472656 460.867188 469.472656 459.988281 " fill-opacity="1" fill-rule="nonzero"/><path fill="#000000" d="M 177.140625 236.347656 L 220.773438 272.738281 C 225.496094 276.515625 232.359375 275.761719 236.136719 271.039062 C 239.789062 266.507812 239.222656 259.832031 234.75 255.929688 L 191.121094 219.539062 C 186.398438 215.761719 179.535156 216.515625 175.757812 221.238281 C 172.042969 225.832031 172.671875 232.507812 177.140625 236.347656 " fill-opacity="1" fill-rule="nonzero"/><path fill="#000000" d="M 618.753906 219.539062 L 575.058594 255.929688 C 570.460938 259.832031 569.832031 266.757812 573.671875 271.355469 C 577.636719 276.015625 584.5 276.644531 589.160156 272.738281 L 632.792969 236.347656 C 637.324219 232.382812 637.890625 225.457031 633.863281 220.921875 C 630.023438 216.453125 623.410156 215.886719 618.753906 219.539062 " fill-opacity="1" fill-rule="nonzero"/><path fill="#000000" d="M 394.042969 168.097656 L 394.042969 224.890625 C 394.234375 230.933594 399.332031 235.65625 405.375 235.402344 C 411.105469 235.152344 415.640625 230.617188 415.890625 224.890625 L 415.890625 168.097656 C 415.640625 162.054688 410.601562 157.332031 404.496094 157.582031 C 398.828125 157.835938 394.234375 162.367188 394.042969 168.097656 " fill-opacity="1" fill-rule="nonzero"/></svg>