<svg xmlns="http://www.w3.org/2000/svg" xmlns:xlink="http://www.w3.org/1999/xlink" width="1080" zoomAndPan="magnify" viewBox="0 0 810 809.999993" height="1080" preserveAspectRatio="xMidYMid meet" version="1.0"><path fill="#ffffff" d="M 405 729 C 226.347656 729 81 583.652344 81 405 C 81 226.347656 226.347656 81 405 81 C 583.652344 81 729 226.347656 729 405 C 729 583.652344 583.652344 729 405 729 Z M 405 142.40625 C 260.207031 142.40625 142.40625 260.203125 142.40625 405 C 142.40625 549.796875 260.207031 667.59375 405 667.59375 C 549.792969 667.59375 667.59375 549.796875 667.59375 405 C 667.59375 260.203125 549.792969 142.40625 405 142.40625 Z M 405 142.40625 " fill-opacity="1" fill-rule="nonzero"/><path fill="#ffffff" d="M 406.246094 576.414062 L 403.75 576.414062 C 382.367188 576.414062 364.871094 558.917969 364.871094 537.53125 L 364.871094 272.46875 C 364.871094 251.082031 382.367188 233.585938 403.75 233.585938 L 406.246094 233.585938 C 427.632812 233.585938 445.128906 251.082031 445.128906 272.46875 L 445.128906 537.53125 C 445.128906 558.917969 427.632812 576.414062 406.246094 576.414062 Z M 406.246094 576.414062 " fill-opacity="1" fill-rule="nonzero"/><path fill="#ffffff" d="M 233.585938 404.546875 L 233.597656 407.042969 C 233.699219 428.429688 251.273438 445.84375 272.65625 445.742188 L 537.71875 444.515625 C 559.105469 444.414062 576.519531 426.839844 576.417969 405.457031 L 576.40625 402.957031 C 576.304688 381.574219 558.730469 364.160156 537.347656 364.261719 L 272.28125 365.488281 C 250.898438 365.585938 233.484375 383.164062 233.585938 404.546875 Z M 233.585938 404.546875 " fill-opacity="1" fill-rule="nonzero"/></svg>