<svg xmlns="http://www.w3.org/2000/svg" xmlns:xlink="http://www.w3.org/1999/xlink" width="1080" zoomAndPan="magnify" viewBox="0 0 810 809.999993" height="1080" preserveAspectRatio="xMidYMid meet" version="1.0"><defs><clipPath id="641a1a005e"><path d="M 163 501 L 346 501 L 346 733.5 L 163 733.5 Z M 163 501 " clip-rule="nonzero"/></clipPath><clipPath id="80b85c585a"><path d="M 161.039062 81 L 649 81 L 649 569 L 161.039062 569 Z M 161.039062 81 " clip-rule="nonzero"/></clipPath><clipPath id="9c79a696cb"><path d="M 465 500 L 648 500 L 648 733.5 L 465 733.5 Z M 465 500 " clip-rule="nonzero"/></clipPath></defs><g clip-path="url(#641a1a005e)"><path fill="#008080" d="M 215.421875 501.5625 L 163.6875 694.671875 C 163.472656 695.4375 163.765625 696.246094 164.394531 696.734375 C 165.023438 697.226562 165.867188 697.265625 166.574219 696.871094 L 236.074219 656.75 C 244.542969 651.859375 255.347656 654.765625 260.242188 663.214844 L 300.382812 732.730469 C 300.777344 733.421875 301.542969 733.792969 302.328125 733.695312 C 303.117188 733.597656 303.765625 733.027344 303.980469 732.261719 L 345.539062 577.132812 C 294.824219 565.207031 249.828125 538.40625 215.421875 501.5625 Z M 215.421875 501.5625 " fill-opacity="1" fill-rule="nonzero"/></g><g clip-path="url(#80b85c585a)"><path fill="#008080" d="M 648.445312 315.214844 L 648.367188 313.660156 C 645.164062 241.433594 610.441406 177.339844 557.628906 134.796875 C 516.226562 101.453125 463.707031 81.375 406.546875 81 L 404.976562 81 C 270.519531 81 161.347656 190.167969 161.347656 324.625 L 161.347656 326.609375 L 161.367188 327.613281 L 161.367188 328.183594 L 161.386719 329.105469 L 161.386719 329.695312 L 161.40625 330.597656 L 161.425781 331.1875 L 161.46875 332.09375 L 161.46875 332.683594 L 161.507812 333.625 L 161.527344 334.15625 L 161.585938 335.335938 L 161.585938 335.628906 L 161.664062 337.101562 L 161.683594 337.515625 L 161.742188 338.578125 L 161.761719 339.125 L 161.820312 340.050781 L 161.859375 340.640625 L 161.917969 341.523438 L 161.957031 342.113281 L 162.035156 342.996094 L 162.078125 343.585938 L 162.15625 344.511719 L 162.195312 345.0625 L 162.273438 346.101562 L 162.3125 346.515625 L 162.449219 347.96875 L 162.46875 348.183594 L 162.585938 349.421875 L 162.644531 349.914062 L 162.746094 350.878906 L 162.804688 351.425781 L 162.902344 352.332031 L 162.980469 352.902344 L 163.078125 353.785156 L 163.136719 354.375 L 163.253906 355.277344 L 163.332031 355.808594 L 163.453125 356.8125 L 163.511719 357.242188 L 163.707031 358.636719 L 163.707031 358.695312 L 163.921875 360.132812 L 163.980469 360.523438 L 164.140625 361.566406 L 164.21875 362.078125 L 164.355469 363 L 164.433594 363.550781 L 164.589844 364.453125 L 164.667969 364.984375 L 164.828125 365.90625 L 164.925781 366.417969 L 165.101562 367.402344 L 165.179688 367.832031 L 165.398438 369.050781 L 165.4375 369.269531 L 165.710938 370.703125 L 165.75 370.917969 L 165.984375 372.117188 L 166.066406 372.550781 L 166.261719 373.53125 L 166.359375 374.023438 L 166.554688 374.945312 L 166.65625 375.457031 L 166.871094 376.382812 L 166.96875 376.871094 L 167.183594 377.855469 L 167.28125 378.265625 L 167.539062 379.40625 L 167.597656 379.664062 L 167.929688 381.097656 L 168.265625 382.511719 L 168.34375 382.804688 L 168.621094 383.90625 L 168.71875 384.300781 L 168.972656 385.300781 L 169.089844 385.734375 L 169.347656 386.695312 L 169.445312 387.148438 L 169.71875 388.132812 L 169.816406 388.523438 L 170.132812 389.644531 L 170.210938 389.898438 L 170.585938 391.292969 L 170.996094 392.730469 L 171.035156 392.828125 L 171.410156 394.105469 L 171.507812 394.398438 L 171.820312 395.480469 L 171.941406 395.832031 L 172.253906 396.855469 L 172.371094 397.226562 L 172.6875 398.25 L 172.804688 398.605469 L 173.15625 399.703125 L 173.238281 399.960938 L 173.6875 401.316406 C 173.847656 401.785156 174.003906 402.257812 174.160156 402.730469 L 174.632812 404.105469 L 174.691406 404.300781 L 175.101562 405.460938 L 175.203125 405.757812 L 175.574219 406.816406 L 175.691406 407.132812 L 176.066406 408.191406 L 176.183594 408.488281 L 176.597656 409.585938 L 176.675781 409.824219 L 177.167969 411.140625 L 177.1875 411.160156 L 177.714844 412.535156 L 178.246094 413.929688 L 178.265625 413.949219 L 178.777344 415.246094 L 178.875 415.460938 L 179.308594 416.5625 L 179.425781 416.839844 L 179.859375 417.898438 L 179.976562 418.195312 L 180.449219 419.273438 L 180.546875 419.511719 L 181.058594 420.707031 L 181.097656 420.808594 L 181.6875 422.144531 C 181.882812 422.59375 182.078125 423.046875 182.273438 423.5 L 182.863281 424.816406 L 182.921875 424.972656 L 183.453125 426.113281 L 183.570312 426.367188 L 184.0625 427.410156 L 184.179688 427.683594 L 184.671875 428.726562 L 184.789062 428.980469 L 185.320312 430.101562 L 185.398438 430.257812 L 186.027344 431.554688 C 186.246094 431.988281 186.460938 432.4375 186.675781 432.871094 L 187.382812 434.285156 L 187.972656 435.425781 L 188.109375 435.679688 L 188.621094 436.683594 L 188.777344 436.976562 L 189.289062 437.941406 L 189.445312 438.253906 L 189.976562 439.238281 L 190.113281 439.511719 L 190.703125 440.613281 L 190.78125 440.75 L 191.472656 442.007812 L 192.179688 443.285156 L 192.257812 443.421875 L 192.867188 444.484375 L 193.042969 444.816406 L 193.554688 445.703125 L 193.769531 446.09375 L 194.261719 446.921875 L 194.496094 447.332031 L 194.96875 448.140625 L 195.203125 448.550781 L 195.714844 449.375 L 195.929688 449.75 L 196.519531 450.730469 L 196.65625 450.949219 L 197.386719 452.128906 L 197.601562 452.480469 L 198.113281 453.304688 L 198.40625 453.796875 L 198.839844 454.464844 L 199.171875 455.015625 L 199.566406 455.625 L 199.941406 456.214844 L 200.3125 456.785156 L 200.707031 457.375 L 201.058594 457.902344 L 201.472656 458.550781 L 201.765625 459.003906 L 202.238281 459.710938 L 202.277344 459.75 L 202.964844 460.773438 L 203.613281 461.753906 L 203.691406 461.855469 L 204.261719 462.699219 L 204.457031 462.972656 L 205.027344 463.796875 L 205.226562 464.074219 L 205.792969 464.898438 L 205.972656 465.15625 L 206.601562 466.019531 L 206.71875 466.175781 C 210.195312 471.050781 213.851562 475.765625 217.664062 480.363281 L 217.722656 480.441406 C 252.695312 522.410156 301.523438 552.472656 357.128906 563.554688 L 357.777344 563.695312 L 358.625 563.851562 L 359.234375 563.96875 L 360.136719 564.144531 L 360.6875 564.242188 L 361.628906 564.421875 L 362.160156 564.5 L 363.121094 564.675781 L 363.632812 564.773438 L 364.636719 564.929688 L 365.128906 565.011719 L 366.148438 565.1875 L 366.621094 565.265625 L 367.640625 565.421875 L 368.113281 565.480469 L 369.15625 565.636719 L 369.605469 565.71875 L 370.667969 565.855469 L 371.121094 565.933594 L 372.179688 566.070312 L 372.632812 566.128906 L 373.695312 566.265625 L 374.144531 566.328125 L 375.207031 566.464844 L 375.660156 566.523438 L 376.71875 566.640625 L 377.191406 566.699219 L 378.234375 566.816406 L 378.703125 566.855469 L 379.765625 566.976562 L 380.238281 567.015625 L 381.277344 567.132812 L 381.769531 567.171875 L 382.8125 567.269531 L 383.300781 567.308594 L 384.324219 567.40625 L 384.835938 567.445312 L 385.855469 567.523438 L 387.390625 567.644531 L 387.898438 567.683594 L 388.902344 567.742188 L 389.453125 567.78125 L 390.433594 567.839844 L 391.003906 567.878906 L 391.96875 567.917969 L 392.539062 567.957031 L 393.519531 567.996094 L 394.089844 568.035156 L 395.050781 568.074219 L 395.640625 568.09375 L 396.605469 568.113281 L 397.195312 568.132812 L 398.136719 568.171875 L 398.746094 568.191406 L 399.710938 568.210938 L 400.296875 568.210938 L 401.28125 568.230469 L 401.851562 568.25 L 403.421875 568.25 L 404.976562 568.273438 L 406.546875 568.25 C 481.566406 567.78125 548.589844 533.335938 592.976562 479.558594 L 593.035156 479.476562 C 596 475.863281 598.871094 472.167969 601.640625 468.375 L 601.679688 468.335938 L 602.347656 467.414062 L 602.464844 467.257812 L 603.113281 466.371094 L 603.25 466.15625 L 603.878906 465.292969 L 604.019531 465.09375 L 604.648438 464.191406 L 604.6875 464.152344 L 605.394531 463.128906 C 605.628906 462.796875 605.863281 462.441406 606.121094 462.089844 L 606.75 461.164062 L 606.847656 461.007812 L 607.378906 460.222656 L 607.613281 459.867188 L 608.105469 459.121094 L 608.378906 458.710938 L 608.832031 458.023438 L 609.125 457.570312 L 609.578125 456.882812 L 609.871094 456.410156 L 610.324219 455.742188 L 610.621094 455.269531 L 611.050781 454.582031 C 611.289062 454.230469 611.503906 453.855469 611.738281 453.503906 L 612.113281 452.894531 L 612.46875 452.324219 L 612.820312 451.734375 L 613.195312 451.144531 L 613.546875 450.554688 L 613.902344 449.945312 L 614.253906 449.375 L 614.628906 448.746094 L 614.960938 448.199219 L 615.335938 447.53125 L 615.648438 447 L 616.101562 446.234375 L 616.335938 445.820312 L 617.027344 444.640625 L 617.222656 444.25 L 617.691406 443.421875 L 617.96875 442.949219 L 618.382812 442.203125 L 618.65625 441.714844 L 619.050781 440.964844 L 619.324219 440.476562 L 619.71875 439.730469 L 619.992188 439.257812 L 620.40625 438.453125 L 620.640625 438.019531 L 621.152344 437.015625 L 621.289062 436.78125 L 621.917969 435.542969 L 622.054688 435.308594 L 622.761719 433.894531 L 623.195312 433.046875 L 623.410156 432.597656 L 623.804688 431.769531 L 624.039062 431.320312 L 624.433594 430.492188 L 624.648438 430.0625 L 625.082031 429.15625 L 625.257812 428.804688 L 625.789062 427.644531 L 625.847656 427.527344 L 626.457031 426.230469 L 626.535156 426.054688 L 627.027344 424.953125 L 627.203125 424.578125 L 627.617188 423.675781 L 627.792969 423.242188 L 628.1875 422.378906 L 628.382812 421.945312 L 628.753906 421.0625 L 628.933594 420.648438 L 629.34375 419.6875 L 629.484375 419.351562 L 630.011719 418.09375 L 630.03125 418.054688 L 630.582031 416.71875 L 630.660156 416.542969 L 631.113281 415.402344 L 631.25 415.050781 L 631.644531 414.085938 L 631.800781 413.675781 L 632.15625 412.769531 L 632.332031 412.339844 L 632.664062 411.414062 L 632.84375 411.003906 L 633.195312 410.019531 L 633.332031 409.6875 L 633.804688 408.390625 L 633.824219 408.371094 L 634.316406 406.992188 L 634.394531 406.796875 L 634.789062 405.65625 L 634.925781 405.285156 L 635.257812 404.320312 L 635.417969 403.890625 L 635.730469 402.984375 L 635.867188 402.515625 L 636.183594 401.609375 L 636.320312 401.175781 L 636.65625 400.175781 L 636.773438 399.820312 L 637.203125 398.484375 L 637.203125 398.464844 L 637.636719 397.089844 L 637.714844 396.835938 L 638.050781 395.734375 L 638.1875 395.324219 L 638.460938 394.378906 L 638.601562 393.90625 L 638.875 393.003906 L 639.011719 392.511719 L 639.269531 391.609375 L 639.40625 391.136719 L 639.679688 390.15625 L 639.796875 389.761719 L 640.152344 388.445312 L 640.171875 388.40625 L 640.546875 386.992188 L 640.625 386.695312 L 640.898438 385.617188 L 641.015625 385.164062 L 641.253906 384.242188 L 641.390625 383.730469 L 641.605469 382.84375 L 641.722656 382.335938 L 641.941406 381.410156 L 642.058594 380.941406 L 642.292969 379.957031 L 642.390625 379.542969 L 642.6875 378.207031 L 642.707031 378.148438 L 643.019531 376.734375 L 643.097656 376.382812 L 643.316406 375.339844 L 643.414062 374.847656 L 643.609375 373.925781 L 643.726562 373.394531 L 643.90625 372.511719 L 644.003906 371.980469 L 644.179688 371.074219 L 644.277344 370.546875 L 644.476562 369.582031 L 644.554688 369.148438 L 644.789062 367.8125 L 644.808594 367.734375 L 645.0625 366.300781 L 645.125 365.90625 L 645.300781 364.886719 L 645.378906 364.375 L 645.535156 363.453125 L 645.613281 362.902344 L 645.75 362.019531 L 645.851562 361.46875 L 645.96875 360.5625 L 646.046875 360.011719 L 646.203125 359.050781 L 646.261719 358.597656 L 646.441406 357.261719 L 646.460938 357.164062 L 646.636719 355.710938 L 646.695312 355.277344 L 646.832031 354.277344 L 646.890625 353.746094 L 646.988281 352.84375 L 647.066406 352.253906 L 647.167969 351.386719 L 647.226562 350.796875 L 647.324219 349.894531 L 647.363281 349.34375 L 647.460938 348.382812 L 647.519531 347.890625 L 647.636719 346.535156 L 647.636719 346.4375 L 647.777344 344.980469 L 647.816406 344.53125 L 647.894531 343.527344 L 647.933594 342.976562 L 647.992188 342.074219 L 648.03125 341.484375 L 648.089844 340.601562 L 648.128906 340.011719 L 648.1875 339.105469 L 648.226562 338.539062 L 648.265625 337.554688 L 648.304688 337.0625 L 648.367188 335.648438 L 648.367188 335.609375 L 648.425781 334.136719 L 648.445312 333.664062 L 648.484375 332.664062 L 648.503906 332.09375 L 648.523438 331.167969 L 648.542969 330.578125 L 648.5625 329.675781 L 648.582031 329.085938 L 648.582031 328.164062 L 648.601562 327.59375 L 648.601562 326.121094 L 648.621094 324.625 C 648.621094 321.480469 648.5625 318.359375 648.445312 315.214844 Z M 404.976562 523.628906 C 295.15625 523.628906 205.992188 434.464844 205.992188 324.625 C 205.992188 214.808594 295.15625 125.640625 404.976562 125.640625 C 514.8125 125.640625 603.976562 214.808594 603.976562 324.625 C 603.976562 434.464844 514.8125 523.628906 404.976562 523.628906 Z M 404.976562 523.628906 " fill-opacity="1" fill-rule="nonzero"/></g><path fill="#008080" d="M 404.976562 141.359375 C 303.824219 141.359375 221.710938 223.472656 221.710938 324.625 C 221.710938 425.777344 303.824219 507.910156 404.976562 507.910156 C 506.128906 507.910156 588.257812 425.777344 588.257812 324.625 C 588.257812 223.472656 506.128906 141.359375 404.976562 141.359375 Z M 502.433594 309.457031 L 449.34375 349.441406 L 469.816406 414.441406 C 470.878906 417.800781 469.738281 421.515625 466.988281 423.597656 C 464.253906 425.679688 460.523438 425.679688 457.792969 423.578125 L 405.035156 383.121094 L 352.257812 423.578125 C 349.527344 425.679688 345.8125 425.679688 343.0625 423.597656 C 340.3125 421.515625 339.171875 417.800781 340.230469 414.441406 L 360.726562 349.441406 L 307.632812 309.457031 C 304.863281 307.375 303.726562 303.679688 304.765625 300.300781 C 305.808594 296.921875 308.832031 294.640625 312.210938 294.660156 L 377.644531 294.957031 L 397.585938 229.78125 C 398.628906 226.402344 401.632812 224.101562 405.035156 224.101562 C 408.414062 224.101562 411.417969 226.402344 412.460938 229.78125 L 432.40625 294.957031 L 497.835938 294.660156 C 501.234375 294.640625 504.242188 296.921875 505.28125 300.300781 C 506.34375 303.679688 505.183594 307.375 502.433594 309.457031 Z M 502.433594 309.457031 " fill-opacity="1" fill-rule="nonzero"/><g clip-path="url(#9c79a696cb)"><path fill="#008080" d="M 595.3125 500.738281 C 561.027344 537.757812 516.089844 564.792969 465.355469 576.898438 L 506.992188 732.261719 C 507.1875 733.027344 507.835938 733.597656 508.621094 733.695312 C 509.429688 733.792969 510.195312 733.421875 510.585938 732.730469 L 550.730469 663.214844 C 555.601562 654.765625 566.429688 651.859375 574.878906 656.75 L 644.394531 696.871094 C 645.082031 697.265625 645.949219 697.226562 646.578125 696.734375 C 647.207031 696.246094 647.480469 695.4375 647.285156 694.671875 Z M 595.3125 500.738281 " fill-opacity="1" fill-rule="nonzero"/></g><path fill="#008080" d="M 355.261719 571.21875 C 355.929688 571.355469 356.601562 571.472656 357.289062 571.59375 C 356.601562 571.472656 355.929688 571.335938 355.261719 571.199219 Z M 355.261719 571.21875 " fill-opacity="1" fill-rule="nonzero"/></svg>