<svg xmlns="http://www.w3.org/2000/svg" xmlns:xlink="http://www.w3.org/1999/xlink" width="1080" zoomAndPan="magnify" viewBox="0 0 810 809.999993" height="1080" preserveAspectRatio="xMidYMid meet" version="1.0"><defs><clipPath id="4b198d6778"><path d="M 86.976562 86.976562 L 722.976562 86.976562 L 722.976562 722.976562 L 86.976562 722.976562 Z M 86.976562 86.976562 " clip-rule="nonzero"/></clipPath></defs><g clip-path="url(#4b198d6778)"><path fill="#57a29d" d="M 680.183594 338.742188 L 632.667969 338.742188 C 631.828125 338.761719 630.992188 338.71875 630.160156 338.613281 C 629.324219 338.507812 628.503906 338.34375 627.695312 338.117188 C 626.890625 337.886719 626.101562 337.601562 625.335938 337.253906 C 624.570312 336.910156 623.835938 336.507812 623.132812 336.050781 C 622.425781 335.597656 621.757812 335.089844 621.128906 334.535156 C 620.5 333.976562 619.917969 333.378906 619.375 332.734375 C 618.835938 332.089844 618.347656 331.410156 617.910156 330.695312 C 617.472656 329.976562 617.09375 329.230469 616.765625 328.457031 C 614.355469 321.859375 611.707031 315.417969 608.816406 309.136719 C 608.507812 308.378906 608.261719 307.601562 608.070312 306.804688 C 607.878906 306.011719 607.75 305.203125 607.679688 304.390625 C 607.613281 303.574219 607.605469 302.757812 607.660156 301.941406 C 607.710938 301.125 607.828125 300.316406 608 299.515625 C 608.175781 298.71875 608.410156 297.933594 608.703125 297.171875 C 608.996094 296.40625 609.34375 295.667969 609.75 294.957031 C 610.152344 294.246094 610.605469 293.566406 611.113281 292.921875 C 611.617188 292.28125 612.167969 291.679688 612.765625 291.117188 L 646.421875 257.25 C 647.414062 256.253906 648.351562 255.21875 649.238281 254.132812 C 650.128906 253.046875 650.960938 251.921875 651.738281 250.753906 C 652.515625 249.589844 653.234375 248.386719 653.894531 247.152344 C 654.554688 245.914062 655.152344 244.648438 655.6875 243.351562 C 656.222656 242.054688 656.691406 240.738281 657.097656 239.394531 C 657.503906 238.054688 657.84375 236.695312 658.117188 235.320312 C 658.390625 233.945312 658.597656 232.5625 658.734375 231.164062 C 658.871094 229.769531 658.9375 228.371094 658.9375 226.96875 C 658.9375 225.570312 658.871094 224.171875 658.734375 222.773438 C 658.597656 221.378906 658.390625 219.996094 658.117188 218.621094 C 657.84375 217.246094 657.503906 215.886719 657.097656 214.542969 C 656.691406 213.203125 656.222656 211.882812 655.6875 210.589844 C 655.152344 209.292969 654.554688 208.027344 653.894531 206.789062 C 653.234375 205.554688 652.515625 204.351562 651.738281 203.183594 C 650.960938 202.019531 650.128906 200.894531 649.238281 199.808594 C 648.351562 198.722656 647.414062 197.683594 646.421875 196.691406 L 613.296875 163.566406 C 612.300781 162.578125 611.261719 161.636719 610.179688 160.75 C 609.09375 159.863281 607.96875 159.03125 606.800781 158.253906 C 605.632812 157.476562 604.433594 156.761719 603.195312 156.101562 C 601.957031 155.441406 600.691406 154.84375 599.398438 154.308594 C 598.101562 153.773438 596.78125 153.304688 595.441406 152.898438 C 594.101562 152.492188 592.742188 152.152344 591.367188 151.878906 C 589.992188 151.609375 588.605469 151.402344 587.210938 151.265625 C 585.816406 151.128906 584.417969 151.058594 583.019531 151.058594 C 581.617188 151.058594 580.21875 151.128906 578.824219 151.265625 C 577.429688 151.402344 576.042969 151.609375 574.667969 151.878906 C 573.292969 152.152344 571.933594 152.492188 570.59375 152.898438 C 569.253906 153.304688 567.933594 153.773438 566.636719 154.308594 C 565.34375 154.84375 564.078125 155.441406 562.839844 156.101562 C 561.601562 156.761719 560.402344 157.476562 559.234375 158.253906 C 558.066406 159.03125 556.941406 159.863281 555.855469 160.75 C 554.773438 161.636719 553.734375 162.578125 552.738281 163.566406 L 518.949219 197.40625 C 518.390625 198.003906 517.789062 198.554688 517.144531 199.058594 C 516.503906 199.5625 515.828125 200.015625 515.117188 200.417969 C 514.40625 200.820312 513.667969 201.167969 512.90625 201.460938 C 512.140625 201.753906 511.363281 201.988281 510.5625 202.164062 C 509.765625 202.339844 508.957031 202.453125 508.144531 202.507812 C 507.328125 202.5625 506.511719 202.554688 505.699219 202.484375 C 504.882812 202.417969 504.078125 202.289062 503.285156 202.097656 C 502.488281 201.910156 501.714844 201.664062 500.957031 201.355469 C 494.675781 198.390625 488.207031 195.738281 481.582031 193.40625 C 480.8125 193.078125 480.066406 192.695312 479.351562 192.257812 C 478.636719 191.820312 477.957031 191.328125 477.316406 190.789062 C 476.675781 190.25 476.078125 189.664062 475.523438 189.035156 C 474.96875 188.40625 474.464844 187.738281 474.007812 187.035156 C 473.554688 186.328125 473.15625 185.59375 472.808594 184.828125 C 472.464844 184.066406 472.179688 183.277344 471.953125 182.472656 C 471.722656 181.664062 471.558594 180.84375 471.453125 180.011719 C 471.347656 179.179688 471.308594 178.34375 471.328125 177.503906 L 471.328125 129.804688 C 471.324219 128.398438 471.253906 127 471.117188 125.601562 C 470.976562 124.203125 470.769531 122.820312 470.492188 121.441406 C 470.21875 120.066406 469.875 118.707031 469.46875 117.363281 C 469.058594 116.019531 468.585938 114.699219 468.046875 113.402344 C 467.507812 112.109375 466.90625 110.839844 466.242188 109.601562 C 465.582031 108.367188 464.859375 107.164062 464.078125 105.996094 C 463.296875 104.832031 462.460938 103.707031 461.566406 102.621094 C 460.675781 101.539062 459.734375 100.5 458.738281 99.507812 C 457.746094 98.515625 456.707031 97.574219 455.621094 96.6875 C 454.535156 95.796875 453.40625 94.960938 452.238281 94.183594 C 451.070312 93.402344 449.867188 92.683594 448.628906 92.023438 C 447.390625 91.363281 446.125 90.765625 444.828125 90.226562 C 443.527344 89.691406 442.207031 89.21875 440.863281 88.8125 C 439.519531 88.40625 438.160156 88.066406 436.785156 87.792969 C 435.40625 87.523438 434.019531 87.316406 432.621094 87.179688 C 431.226562 87.042969 429.824219 86.976562 428.421875 86.976562 L 381.566406 86.976562 C 380.164062 86.976562 378.765625 87.046875 377.371094 87.1875 C 375.976562 87.328125 374.589844 87.535156 373.214844 87.808594 C 371.839844 88.082031 370.480469 88.425781 369.140625 88.832031 C 367.800781 89.242188 366.480469 89.714844 365.1875 90.25 C 363.890625 90.789062 362.625 91.386719 361.390625 92.050781 C 360.152344 92.710938 358.953125 93.429688 357.785156 94.210938 C 356.621094 94.988281 355.496094 95.824219 354.414062 96.714844 C 353.328125 97.605469 352.289062 98.542969 351.300781 99.535156 C 350.308594 100.527344 349.367188 101.566406 348.476562 102.648438 C 347.589844 103.730469 346.753906 104.855469 345.972656 106.023438 C 345.195312 107.1875 344.472656 108.390625 343.8125 109.625 C 343.152344 110.863281 342.550781 112.128906 342.015625 113.421875 C 341.476562 114.71875 341.003906 116.035156 340.597656 117.378906 C 340.1875 118.71875 339.847656 120.078125 339.570312 121.453125 C 339.296875 122.828125 339.089844 124.210938 338.953125 125.605469 C 338.8125 127.003906 338.742188 128.402344 338.742188 129.804688 L 338.742188 177.320312 C 338.765625 178.164062 338.726562 179.007812 338.625 179.84375 C 338.523438 180.683594 338.359375 181.511719 338.132812 182.324219 C 337.90625 183.136719 337.621094 183.929688 337.277344 184.703125 C 336.933594 185.472656 336.53125 186.214844 336.078125 186.925781 C 335.621094 187.636719 335.113281 188.308594 334.558594 188.945312 C 334 189.578125 333.398438 190.167969 332.753906 190.714844 C 332.105469 191.257812 331.425781 191.753906 330.703125 192.195312 C 329.984375 192.636719 329.234375 193.023438 328.457031 193.351562 C 321.859375 195.738281 315.394531 198.390625 309.136719 201.304688 C 308.378906 201.613281 307.601562 201.863281 306.808594 202.054688 C 306.011719 202.246094 305.203125 202.378906 304.390625 202.449219 C 303.574219 202.519531 302.757812 202.527344 301.941406 202.472656 C 301.121094 202.417969 300.3125 202.304688 299.515625 202.128906 C 298.714844 201.953125 297.933594 201.71875 297.167969 201.425781 C 296.402344 201.132812 295.664062 200.785156 294.953125 200.378906 C 294.242188 199.976562 293.5625 199.519531 292.921875 199.011719 C 292.277344 198.503906 291.675781 197.953125 291.117188 197.355469 L 257.25 163.566406 C 256.253906 162.578125 255.214844 161.636719 254.132812 160.75 C 253.046875 159.863281 251.921875 159.03125 250.753906 158.253906 C 249.585938 157.476562 248.386719 156.761719 247.148438 156.101562 C 245.910156 155.441406 244.644531 154.84375 243.351562 154.308594 C 242.054688 153.773438 240.734375 153.304688 239.394531 152.898438 C 238.054688 152.492188 236.695312 152.152344 235.320312 151.878906 C 233.945312 151.605469 232.558594 151.402344 231.164062 151.265625 C 229.769531 151.128906 228.371094 151.058594 226.96875 151.058594 C 225.570312 151.058594 224.171875 151.128906 222.777344 151.265625 C 221.382812 151.402344 219.996094 151.605469 218.621094 151.878906 C 217.246094 152.152344 215.886719 152.492188 214.546875 152.898438 C 213.207031 153.304688 211.886719 153.773438 210.589844 154.308594 C 209.296875 154.84375 208.03125 155.441406 206.792969 156.101562 C 205.554688 156.761719 204.355469 157.476562 203.1875 158.253906 C 202.019531 159.03125 200.894531 159.863281 199.808594 160.75 C 198.726562 161.636719 197.6875 162.578125 196.691406 163.566406 L 163.566406 196.691406 C 162.574219 197.683594 161.636719 198.722656 160.75 199.808594 C 159.859375 200.894531 159.027344 202.019531 158.25 203.183594 C 157.472656 204.351562 156.753906 205.554688 156.09375 206.789062 C 155.433594 208.027344 154.835938 209.292969 154.300781 210.589844 C 153.765625 211.882812 153.296875 213.203125 152.890625 214.542969 C 152.484375 215.886719 152.144531 217.246094 151.871094 218.621094 C 151.597656 219.996094 151.390625 221.378906 151.253906 222.773438 C 151.117188 224.171875 151.050781 225.570312 151.050781 226.96875 C 151.050781 228.371094 151.117188 229.769531 151.253906 231.167969 C 151.390625 232.5625 151.597656 233.945312 151.871094 235.320312 C 152.144531 236.695312 152.484375 238.054688 152.890625 239.394531 C 153.296875 240.738281 153.765625 242.054688 154.300781 243.351562 C 154.835938 244.648438 155.433594 245.914062 156.09375 247.152344 C 156.753906 248.386719 157.472656 249.589844 158.25 250.753906 C 159.027344 251.921875 159.859375 253.046875 160.75 254.132812 C 161.636719 255.21875 162.574219 256.253906 163.566406 257.25 L 197.40625 291.039062 C 198.003906 291.597656 198.554688 292.199219 199.058594 292.839844 C 199.566406 293.484375 200.019531 294.160156 200.421875 294.871094 C 200.828125 295.582031 201.175781 296.316406 201.46875 297.082031 C 201.757812 297.84375 201.992188 298.625 202.167969 299.421875 C 202.34375 300.222656 202.457031 301.027344 202.511719 301.84375 C 202.566406 302.660156 202.558594 303.476562 202.488281 304.289062 C 202.421875 305.105469 202.292969 305.910156 202.101562 306.703125 C 201.910156 307.5 201.664062 308.273438 201.355469 309.03125 C 198.390625 315.3125 195.738281 321.753906 193.40625 328.378906 C 193.078125 329.152344 192.695312 329.894531 192.257812 330.609375 C 191.820312 331.324219 191.328125 332.003906 190.789062 332.644531 C 190.25 333.285156 189.664062 333.886719 189.035156 334.4375 C 188.40625 334.992188 187.738281 335.5 187.035156 335.953125 C 186.328125 336.40625 185.59375 336.808594 184.828125 337.152344 C 184.066406 337.496094 183.277344 337.78125 182.472656 338.011719 C 181.664062 338.238281 180.84375 338.402344 180.011719 338.507812 C 179.179688 338.613281 178.34375 338.65625 177.503906 338.632812 L 129.804688 338.632812 C 128.398438 338.636719 126.996094 338.707031 125.601562 338.847656 C 124.203125 338.984375 122.816406 339.191406 121.4375 339.46875 C 120.0625 339.746094 118.703125 340.085938 117.359375 340.496094 C 116.015625 340.90625 114.695312 341.378906 113.398438 341.917969 C 112.101562 342.457031 110.832031 343.058594 109.597656 343.722656 C 108.359375 344.386719 107.15625 345.109375 105.988281 345.890625 C 104.824219 346.671875 103.695312 347.507812 102.613281 348.402344 C 101.527344 349.292969 100.488281 350.238281 99.5 351.230469 C 98.507812 352.226562 97.566406 353.265625 96.675781 354.351562 C 95.785156 355.4375 94.953125 356.566406 94.171875 357.734375 C 93.394531 358.902344 92.675781 360.109375 92.015625 361.347656 C 91.355469 362.585938 90.757812 363.855469 90.21875 365.152344 C 89.683594 366.453125 89.214844 367.773438 88.808594 369.117188 C 88.402344 370.460938 88.0625 371.824219 87.789062 373.199219 C 87.519531 374.578125 87.3125 375.964844 87.179688 377.363281 C 87.042969 378.761719 86.976562 380.164062 86.976562 381.566406 L 86.976562 428.421875 C 86.976562 429.824219 87.046875 431.222656 87.1875 432.617188 C 87.328125 434.011719 87.535156 435.398438 87.808594 436.773438 C 88.082031 438.148438 88.425781 439.507812 88.832031 440.847656 C 89.242188 442.1875 89.714844 443.507812 90.25 444.800781 C 90.789062 446.097656 91.386719 447.363281 92.050781 448.597656 C 92.710938 449.835938 93.429688 451.035156 94.210938 452.203125 C 94.988281 453.367188 95.824219 454.492188 96.714844 455.574219 C 97.605469 456.660156 98.542969 457.695312 99.535156 458.6875 C 100.527344 459.679688 101.566406 460.621094 102.648438 461.511719 C 103.730469 462.398438 104.855469 463.234375 106.023438 464.015625 C 107.1875 464.792969 108.390625 465.515625 109.625 466.175781 C 110.863281 466.835938 112.128906 467.4375 113.421875 467.972656 C 114.71875 468.511719 116.035156 468.984375 117.378906 469.390625 C 118.71875 469.800781 120.078125 470.140625 121.453125 470.417969 C 122.828125 470.691406 124.210938 470.898438 125.605469 471.035156 C 127.003906 471.175781 128.402344 471.246094 129.804688 471.246094 L 177.320312 471.246094 C 178.160156 471.226562 178.996094 471.269531 179.828125 471.375 C 180.664062 471.480469 181.484375 471.644531 182.292969 471.871094 C 183.097656 472.101562 183.886719 472.386719 184.652344 472.734375 C 185.417969 473.078125 186.152344 473.480469 186.855469 473.9375 C 187.5625 474.390625 188.230469 474.898438 188.859375 475.453125 C 189.488281 476.007812 190.070312 476.609375 190.613281 477.253906 C 191.152344 477.898438 191.640625 478.578125 192.078125 479.292969 C 192.515625 480.011719 192.894531 480.757812 193.222656 481.53125 C 195.605469 488.136719 198.257812 494.578125 201.171875 500.851562 C 201.480469 501.609375 201.726562 502.386719 201.917969 503.183594 C 202.109375 503.976562 202.238281 504.785156 202.308594 505.597656 C 202.375 506.414062 202.382812 507.230469 202.328125 508.046875 C 202.277344 508.863281 202.160156 509.671875 201.988281 510.472656 C 201.8125 511.269531 201.578125 512.054688 201.285156 512.816406 C 200.992188 513.582031 200.644531 514.320312 200.238281 515.03125 C 199.835938 515.742188 199.382812 516.421875 198.875 517.066406 C 198.371094 517.707031 197.820312 518.308594 197.222656 518.871094 L 163.539062 552.714844 C 162.550781 553.707031 161.613281 554.746094 160.722656 555.832031 C 159.835938 556.917969 159.003906 558.042969 158.226562 559.210938 C 157.449219 560.378906 156.730469 561.582031 156.074219 562.816406 C 155.414062 564.054688 154.816406 565.324219 154.28125 566.617188 C 153.746094 567.914062 153.277344 569.234375 152.871094 570.574219 C 152.464844 571.917969 152.125 573.277344 151.851562 574.652344 C 151.578125 576.027344 151.375 577.414062 151.238281 578.808594 C 151.101562 580.203125 151.03125 581.601562 151.03125 583.003906 C 151.03125 584.40625 151.101562 585.804688 151.238281 587.199219 C 151.375 588.597656 151.578125 589.980469 151.851562 591.355469 C 152.125 592.730469 152.464844 594.089844 152.871094 595.433594 C 153.277344 596.773438 153.746094 598.09375 154.28125 599.390625 C 154.816406 600.6875 155.414062 601.953125 156.074219 603.191406 C 156.730469 604.429688 157.449219 605.628906 158.226562 606.796875 C 159.003906 607.964844 159.835938 609.089844 160.722656 610.175781 C 161.613281 611.261719 162.550781 612.300781 163.539062 613.296875 L 196.667969 646.421875 C 197.660156 647.410156 198.699219 648.351562 199.785156 649.238281 C 200.867188 650.125 201.992188 650.957031 203.160156 651.734375 C 204.328125 652.511719 205.527344 653.226562 206.765625 653.886719 C 208.003906 654.546875 209.269531 655.144531 210.566406 655.679688 C 211.859375 656.214844 213.179688 656.683594 214.519531 657.089844 C 215.863281 657.496094 217.21875 657.835938 218.59375 658.109375 C 219.96875 658.378906 221.355469 658.585938 222.75 658.722656 C 224.144531 658.859375 225.542969 658.929688 226.945312 658.929688 C 228.34375 658.929688 229.742188 658.859375 231.140625 658.722656 C 232.535156 658.585938 233.917969 658.378906 235.292969 658.109375 C 236.667969 657.835938 238.027344 657.496094 239.367188 657.089844 C 240.710938 656.683594 242.027344 656.214844 243.324219 655.679688 C 244.617188 655.144531 245.886719 654.546875 247.121094 653.886719 C 248.359375 653.226562 249.5625 652.511719 250.726562 651.734375 C 251.894531 650.957031 253.019531 650.125 254.105469 649.238281 C 255.191406 648.351562 256.230469 647.410156 257.222656 646.421875 L 291.039062 612.582031 C 291.597656 611.984375 292.199219 611.433594 292.839844 610.925781 C 293.480469 610.421875 294.15625 609.964844 294.867188 609.5625 C 295.578125 609.15625 296.316406 608.808594 297.078125 608.515625 C 297.84375 608.222656 298.625 607.988281 299.421875 607.8125 C 300.222656 607.640625 301.027344 607.523438 301.84375 607.472656 C 302.660156 607.417969 303.476562 607.425781 304.289062 607.496094 C 305.105469 607.5625 305.910156 607.695312 306.703125 607.882812 C 307.5 608.074219 308.273438 608.324219 309.03125 608.632812 C 315.3125 611.597656 321.78125 614.25 328.40625 616.582031 C 329.175781 616.910156 329.921875 617.292969 330.636719 617.730469 C 331.351562 618.167969 332.03125 618.660156 332.671875 619.199219 C 333.3125 619.738281 333.910156 620.324219 334.464844 620.953125 C 335.019531 621.582031 335.523438 622.25 335.980469 622.953125 C 336.433594 623.660156 336.832031 624.394531 337.179688 625.160156 C 337.523438 625.921875 337.808594 626.710938 338.035156 627.515625 C 338.265625 628.324219 338.429688 629.144531 338.535156 629.976562 C 338.640625 630.808594 338.679688 631.644531 338.660156 632.484375 L 338.660156 680 C 338.65625 681.40625 338.722656 682.8125 338.855469 684.214844 C 338.988281 685.613281 339.191406 687.007812 339.460938 688.386719 C 339.734375 689.769531 340.070312 691.132812 340.476562 692.480469 C 340.882812 693.828125 341.351562 695.152344 341.890625 696.457031 C 342.425781 697.757812 343.023438 699.03125 343.683594 700.273438 C 344.347656 701.515625 345.066406 702.722656 345.847656 703.894531 C 346.625 705.066406 347.460938 706.195312 348.355469 707.285156 C 349.246094 708.375 350.1875 709.417969 351.183594 710.414062 C 352.175781 711.410156 353.21875 712.355469 354.304688 713.25 C 355.390625 714.144531 356.519531 714.984375 357.691406 715.765625 C 358.859375 716.550781 360.066406 717.273438 361.304688 717.9375 C 362.546875 718.601562 363.820312 719.203125 365.117188 719.742188 C 366.417969 720.28125 367.742188 720.753906 369.089844 721.164062 C 370.4375 721.574219 371.800781 721.914062 373.179688 722.1875 C 374.5625 722.464844 375.953125 722.667969 377.355469 722.808594 C 378.753906 722.945312 380.160156 723.011719 381.566406 723.011719 L 428.421875 723.011719 C 429.824219 723.011719 431.222656 722.941406 432.617188 722.800781 C 434.011719 722.660156 435.398438 722.453125 436.773438 722.179688 C 438.148438 721.90625 439.507812 721.5625 440.847656 721.15625 C 442.1875 720.746094 443.507812 720.273438 444.800781 719.738281 C 446.097656 719.199219 447.363281 718.601562 448.597656 717.9375 C 449.835938 717.277344 451.035156 716.558594 452.203125 715.777344 C 453.367188 715 454.492188 714.164062 455.574219 713.273438 C 456.660156 712.382812 457.695312 711.445312 458.6875 710.453125 C 459.679688 709.460938 460.621094 708.421875 461.511719 707.339844 C 462.398438 706.257812 463.234375 705.132812 464.015625 703.964844 C 464.792969 702.800781 465.515625 701.597656 466.175781 700.363281 C 466.835938 699.125 467.4375 697.859375 467.972656 696.566406 C 468.511719 695.269531 468.984375 693.953125 469.390625 692.609375 C 469.800781 691.269531 470.140625 689.910156 470.417969 688.535156 C 470.691406 687.160156 470.898438 685.777344 471.035156 684.382812 C 471.175781 682.984375 471.246094 681.585938 471.246094 680.183594 L 471.246094 632.667969 C 471.222656 631.824219 471.261719 630.980469 471.363281 630.144531 C 471.464844 629.304688 471.628906 628.476562 471.855469 627.664062 C 472.082031 626.851562 472.367188 626.058594 472.710938 625.285156 C 473.054688 624.515625 473.457031 623.773438 473.910156 623.0625 C 474.367188 622.351562 474.875 621.679688 475.433594 621.042969 C 475.988281 620.410156 476.589844 619.820312 477.234375 619.273438 C 477.882812 618.730469 478.5625 618.234375 479.285156 617.792969 C 480.003906 617.351562 480.753906 616.964844 481.53125 616.636719 C 488.128906 614.25 494.59375 611.597656 500.851562 608.683594 C 501.609375 608.378906 502.386719 608.128906 503.183594 607.9375 C 503.976562 607.746094 504.785156 607.617188 505.597656 607.550781 C 506.414062 607.480469 507.230469 607.472656 508.046875 607.527344 C 508.863281 607.578125 509.671875 607.695312 510.472656 607.867188 C 511.269531 608.042969 512.054688 608.277344 512.816406 608.570312 C 513.582031 608.863281 514.320312 609.210938 515.03125 609.617188 C 515.742188 610.019531 516.421875 610.472656 517.066406 610.980469 C 517.707031 611.484375 518.308594 612.035156 518.871094 612.632812 L 552.738281 646.476562 C 553.734375 647.464844 554.773438 648.402344 555.855469 649.289062 C 556.941406 650.175781 558.066406 651.007812 559.234375 651.785156 C 560.402344 652.5625 561.601562 653.28125 562.839844 653.941406 C 564.078125 654.601562 565.34375 655.195312 566.636719 655.730469 C 567.933594 656.265625 569.253906 656.738281 570.59375 657.144531 C 571.933594 657.550781 573.292969 657.886719 574.667969 658.160156 C 576.042969 658.433594 577.429688 658.640625 578.824219 658.777344 C 580.21875 658.914062 581.617188 658.980469 583.019531 658.980469 C 584.417969 658.980469 585.816406 658.914062 587.210938 658.777344 C 588.605469 658.640625 589.992188 658.433594 591.367188 658.160156 C 592.742188 657.886719 594.101562 657.550781 595.441406 657.144531 C 596.78125 656.738281 598.101562 656.265625 599.398438 655.730469 C 600.691406 655.195312 601.957031 654.601562 603.195312 653.941406 C 604.433594 653.28125 605.632812 652.5625 606.800781 651.785156 C 607.96875 651.007812 609.09375 650.175781 610.179688 649.289062 C 611.261719 648.402344 612.300781 647.464844 613.296875 646.476562 L 646.421875 613.347656 C 647.414062 612.355469 648.351562 611.316406 649.238281 610.230469 C 650.128906 609.144531 650.960938 608.019531 651.738281 606.851562 C 652.515625 605.6875 653.234375 604.484375 653.894531 603.246094 C 654.554688 602.007812 655.152344 600.742188 655.6875 599.445312 C 656.222656 598.148438 656.695312 596.832031 657.101562 595.488281 C 657.507812 594.144531 657.847656 592.785156 658.121094 591.410156 C 658.394531 590.035156 658.597656 588.648438 658.734375 587.253906 C 658.871094 585.859375 658.941406 584.460938 658.941406 583.058594 C 658.941406 581.65625 658.871094 580.257812 658.734375 578.859375 C 658.597656 577.464844 658.394531 576.078125 658.121094 574.703125 C 657.847656 573.328125 657.507812 571.96875 657.101562 570.625 C 656.695312 569.285156 656.222656 567.964844 655.6875 566.667969 C 655.152344 565.375 654.554688 564.105469 653.894531 562.867188 C 653.234375 561.632812 652.515625 560.429688 651.738281 559.261719 C 650.960938 558.09375 650.128906 556.96875 649.238281 555.882812 C 648.351562 554.796875 647.414062 553.757812 646.421875 552.765625 L 612.582031 518.949219 C 611.984375 518.390625 611.433594 517.789062 610.929688 517.148438 C 610.421875 516.503906 609.96875 515.828125 609.566406 515.117188 C 609.160156 514.40625 608.8125 513.667969 608.519531 512.90625 C 608.226562 512.144531 607.996094 511.363281 607.820312 510.566406 C 607.644531 509.765625 607.53125 508.960938 607.476562 508.144531 C 607.421875 507.328125 607.429688 506.511719 607.5 505.699219 C 607.566406 504.882812 607.695312 504.078125 607.886719 503.285156 C 608.078125 502.488281 608.324219 501.714844 608.632812 500.957031 C 611.597656 494.683594 614.25 488.234375 616.582031 481.609375 C 616.910156 480.835938 617.292969 480.09375 617.730469 479.378906 C 618.167969 478.664062 618.660156 477.984375 619.199219 477.34375 C 619.738281 476.703125 620.324219 476.101562 620.953125 475.550781 C 621.582031 474.996094 622.25 474.488281 622.953125 474.035156 C 623.660156 473.582031 624.394531 473.179688 625.160156 472.835938 C 625.921875 472.492188 626.710938 472.207031 627.515625 471.976562 C 628.324219 471.75 629.144531 471.585938 629.976562 471.480469 C 630.808594 471.375 631.644531 471.332031 632.484375 471.355469 L 680 471.355469 C 681.40625 471.359375 682.8125 471.292969 684.214844 471.160156 C 685.617188 471.023438 687.007812 470.824219 688.390625 470.550781 C 689.773438 470.28125 691.136719 469.941406 692.484375 469.535156 C 693.835938 469.128906 695.160156 468.660156 696.460938 468.121094 C 697.765625 467.585938 699.035156 466.988281 700.28125 466.324219 C 701.523438 465.664062 702.730469 464.941406 703.902344 464.164062 C 705.074219 463.382812 706.207031 462.546875 707.296875 461.652344 C 708.382812 460.761719 709.429688 459.816406 710.425781 458.824219 C 711.421875 457.828125 712.367188 456.785156 713.261719 455.699219 C 714.15625 454.609375 714.992188 453.480469 715.777344 452.3125 C 716.558594 451.140625 717.28125 449.933594 717.945312 448.691406 C 718.609375 447.449219 719.210938 446.179688 719.75 444.878906 C 720.289062 443.578125 720.761719 442.253906 721.171875 440.902344 C 721.578125 439.554688 721.917969 438.191406 722.195312 436.808594 C 722.46875 435.429688 722.671875 434.039062 722.808594 432.636719 C 722.945312 431.234375 723.011719 429.828125 723.011719 428.421875 L 723.011719 381.566406 C 723.011719 380.164062 722.941406 378.765625 722.800781 377.371094 C 722.660156 375.976562 722.453125 374.589844 722.179688 373.214844 C 721.90625 371.839844 721.5625 370.480469 721.15625 369.140625 C 720.746094 367.800781 720.273438 366.480469 719.738281 365.1875 C 719.199219 363.890625 718.601562 362.625 717.9375 361.390625 C 717.277344 360.152344 716.558594 358.953125 715.777344 357.785156 C 715 356.621094 714.164062 355.496094 713.273438 354.414062 C 712.382812 353.328125 711.445312 352.292969 710.453125 351.300781 C 709.460938 350.308594 708.421875 349.367188 707.339844 348.476562 C 706.257812 347.589844 705.132812 346.753906 703.964844 345.972656 C 702.800781 345.195312 701.597656 344.472656 700.363281 343.8125 C 699.125 343.152344 697.859375 342.550781 696.566406 342.015625 C 695.269531 341.476562 693.953125 341.003906 692.609375 340.597656 C 691.269531 340.1875 689.910156 339.847656 688.535156 339.570312 C 687.160156 339.296875 685.777344 339.089844 684.382812 338.953125 C 682.984375 338.8125 681.585938 338.742188 680.183594 338.742188 Z M 696.511719 428.421875 C 696.511719 428.957031 696.484375 429.488281 696.429688 430.023438 C 696.378906 430.554688 696.300781 431.082031 696.195312 431.605469 C 696.09375 432.128906 695.960938 432.648438 695.808594 433.160156 C 695.652344 433.671875 695.472656 434.175781 695.265625 434.667969 C 695.0625 435.164062 694.835938 435.644531 694.582031 436.117188 C 694.332031 436.589844 694.054688 437.046875 693.757812 437.492188 C 693.460938 437.9375 693.144531 438.363281 692.804688 438.777344 C 692.464844 439.191406 692.105469 439.585938 691.730469 439.964844 C 691.351562 440.34375 690.953125 440.703125 690.542969 441.039062 C 690.128906 441.378906 689.699219 441.699219 689.253906 441.996094 C 688.808594 442.292969 688.351562 442.566406 687.878906 442.820312 C 687.410156 443.070312 686.925781 443.300781 686.433594 443.503906 C 685.9375 443.707031 685.4375 443.886719 684.925781 444.042969 C 684.414062 444.199219 683.894531 444.328125 683.371094 444.433594 C 682.847656 444.535156 682.316406 444.617188 681.785156 444.667969 C 681.253906 444.71875 680.71875 444.746094 680.183594 444.746094 L 632.667969 444.746094 C 630.46875 444.714844 628.28125 444.851562 626.101562 445.15625 C 623.921875 445.457031 621.78125 445.925781 619.671875 446.554688 C 617.566406 447.1875 615.519531 447.972656 613.53125 448.917969 C 611.546875 449.863281 609.644531 450.949219 607.824219 452.1875 C 606.003906 453.421875 604.285156 454.785156 602.675781 456.285156 C 601.0625 457.78125 599.574219 459.390625 598.210938 461.117188 C 596.84375 462.839844 595.617188 464.65625 594.53125 466.570312 C 593.445312 468.480469 592.507812 470.464844 591.722656 472.519531 C 589.628906 478.351562 587.269531 483.996094 584.648438 489.558594 C 583.765625 491.542969 583.035156 493.578125 582.460938 495.671875 C 581.890625 497.765625 581.480469 499.886719 581.230469 502.042969 C 580.980469 504.199219 580.898438 506.359375 580.976562 508.527344 C 581.058594 510.695312 581.304688 512.84375 581.710938 514.976562 C 582.121094 517.105469 582.6875 519.195312 583.414062 521.238281 C 584.144531 523.28125 585.019531 525.257812 586.050781 527.167969 C 587.078125 529.078125 588.246094 530.902344 589.550781 532.632812 C 590.859375 534.363281 592.289062 535.988281 593.84375 537.5 L 627.605469 571.449219 C 627.984375 571.828125 628.34375 572.226562 628.683594 572.636719 C 629.023438 573.050781 629.339844 573.480469 629.636719 573.925781 C 629.933594 574.371094 630.207031 574.832031 630.460938 575.300781 C 630.710938 575.773438 630.941406 576.257812 631.144531 576.753906 C 631.351562 577.246094 631.53125 577.75 631.683594 578.261719 C 631.839844 578.773438 631.96875 579.292969 632.074219 579.816406 C 632.179688 580.34375 632.257812 580.871094 632.308594 581.402344 C 632.363281 581.9375 632.386719 582.46875 632.386719 583.003906 C 632.386719 583.539062 632.363281 584.074219 632.308594 584.605469 C 632.257812 585.136719 632.179688 585.667969 632.074219 586.191406 C 631.96875 586.714844 631.839844 587.234375 631.683594 587.746094 C 631.53125 588.257812 631.351562 588.761719 631.144531 589.257812 C 630.941406 589.75 630.710938 590.234375 630.460938 590.707031 C 630.207031 591.179688 629.933594 591.636719 629.636719 592.082031 C 629.339844 592.527344 629.023438 592.957031 628.683594 593.371094 C 628.34375 593.785156 627.984375 594.179688 627.605469 594.558594 L 594.480469 627.6875 C 594.101562 628.066406 593.707031 628.425781 593.292969 628.765625 C 592.882812 629.105469 592.453125 629.425781 592.007812 629.722656 C 591.566406 630.023438 591.109375 630.296875 590.636719 630.550781 C 590.164062 630.804688 589.683594 631.035156 589.1875 631.238281 C 588.695312 631.445312 588.191406 631.625 587.679688 631.78125 C 587.167969 631.9375 586.648438 632.066406 586.125 632.171875 C 585.601562 632.277344 585.070312 632.355469 584.539062 632.410156 C 584.007812 632.460938 583.472656 632.488281 582.9375 632.488281 C 582.402344 632.488281 581.871094 632.460938 581.335938 632.410156 C 580.804688 632.355469 580.277344 632.277344 579.75 632.171875 C 579.226562 632.066406 578.707031 631.9375 578.195312 631.78125 C 577.683594 631.625 577.183594 631.445312 576.6875 631.238281 C 576.195312 631.035156 575.710938 630.804688 575.238281 630.550781 C 574.769531 630.296875 574.3125 630.023438 573.867188 629.722656 C 573.421875 629.425781 572.996094 629.105469 572.582031 628.765625 C 572.167969 628.425781 571.773438 628.066406 571.398438 627.6875 L 537.5 593.84375 C 535.984375 592.285156 534.355469 590.847656 532.621094 589.539062 C 530.882812 588.226562 529.058594 587.058594 527.140625 586.023438 C 525.226562 584.992188 523.242188 584.113281 521.191406 583.382812 C 519.144531 582.65625 517.050781 582.085938 514.914062 581.679688 C 512.773438 581.269531 510.621094 581.027344 508.445312 580.945312 C 506.269531 580.867188 504.101562 580.953125 501.941406 581.203125 C 499.78125 581.457031 497.652344 581.871094 495.554688 582.449219 C 493.457031 583.023438 491.414062 583.757812 489.429688 584.648438 C 483.898438 587.28125 478.226562 589.636719 472.414062 591.722656 C 470.363281 592.511719 468.382812 593.449219 466.476562 594.539062 C 464.570312 595.628906 462.757812 596.859375 461.039062 598.226562 C 459.316406 599.59375 457.710938 601.082031 456.21875 602.695312 C 454.726562 604.304688 453.367188 606.023438 452.136719 607.84375 C 450.90625 609.664062 449.824219 611.566406 448.882812 613.550781 C 447.945312 615.535156 447.160156 617.582031 446.535156 619.6875 C 445.90625 621.792969 445.445312 623.933594 445.144531 626.109375 C 444.84375 628.285156 444.710938 630.472656 444.746094 632.667969 L 444.746094 680.183594 C 444.746094 680.71875 444.71875 681.253906 444.667969 681.785156 C 444.617188 682.316406 444.535156 682.84375 444.433594 683.371094 C 444.328125 683.894531 444.199219 684.414062 444.042969 684.925781 C 443.886719 685.4375 443.707031 685.9375 443.503906 686.433594 C 443.300781 686.925781 443.070312 687.410156 442.820312 687.878906 C 442.566406 688.351562 442.292969 688.808594 441.996094 689.253906 C 441.699219 689.699219 441.378906 690.128906 441.039062 690.542969 C 440.703125 690.953125 440.34375 691.351562 439.964844 691.730469 C 439.585938 692.105469 439.191406 692.464844 438.777344 692.804688 C 438.363281 693.144531 437.9375 693.460938 437.492188 693.757812 C 437.046875 694.054688 436.589844 694.332031 436.117188 694.582031 C 435.644531 694.835938 435.164062 695.0625 434.667969 695.265625 C 434.175781 695.472656 433.671875 695.652344 433.160156 695.808594 C 432.648438 695.960938 432.128906 696.09375 431.605469 696.195312 C 431.082031 696.300781 430.554688 696.378906 430.023438 696.429688 C 429.488281 696.484375 428.957031 696.511719 428.421875 696.511719 L 381.566406 696.511719 C 381.03125 696.511719 380.5 696.484375 379.964844 696.429688 C 379.433594 696.378906 378.90625 696.300781 378.382812 696.195312 C 377.859375 696.09375 377.339844 695.960938 376.828125 695.808594 C 376.316406 695.652344 375.8125 695.472656 375.320312 695.265625 C 374.824219 695.0625 374.34375 694.835938 373.871094 694.582031 C 373.398438 694.332031 372.941406 694.054688 372.496094 693.757812 C 372.050781 693.460938 371.625 693.144531 371.210938 692.804688 C 370.796875 692.464844 370.402344 692.105469 370.023438 691.730469 C 369.644531 691.351562 369.285156 690.953125 368.949219 690.542969 C 368.609375 690.128906 368.289062 689.699219 367.992188 689.253906 C 367.695312 688.808594 367.421875 688.351562 367.167969 687.878906 C 366.917969 687.410156 366.6875 686.925781 366.484375 686.433594 C 366.28125 685.9375 366.101562 685.4375 365.945312 684.925781 C 365.789062 684.414062 365.660156 683.894531 365.554688 683.371094 C 365.453125 682.84375 365.371094 682.316406 365.320312 681.785156 C 365.269531 681.253906 365.242188 680.71875 365.242188 680.183594 L 365.242188 632.667969 C 365.273438 630.46875 365.140625 628.28125 364.839844 626.105469 C 364.539062 623.929688 364.070312 621.785156 363.441406 619.679688 C 362.8125 617.574219 362.027344 615.527344 361.085938 613.542969 C 360.140625 611.554688 359.054688 609.652344 357.820312 607.835938 C 356.585938 606.015625 355.222656 604.300781 353.726562 602.6875 C 352.230469 601.078125 350.621094 599.589844 348.894531 598.226562 C 347.171875 596.863281 345.355469 595.636719 343.441406 594.550781 C 341.53125 593.464844 339.550781 592.53125 337.496094 591.75 C 331.664062 589.628906 325.992188 587.269531 320.429688 584.648438 C 314.984375 582.109375 309.261719 580.84375 303.253906 580.859375 C 300.390625 580.882812 297.554688 581.183594 294.75 581.765625 C 291.945312 582.34375 289.226562 583.191406 286.585938 584.304688 C 283.945312 585.417969 281.441406 586.777344 279.070312 588.382812 C 276.695312 589.988281 274.503906 591.808594 272.488281 593.84375 L 238.511719 627.605469 C 238.136719 627.984375 237.738281 628.347656 237.328125 628.6875 C 236.914062 629.027344 236.484375 629.347656 236.042969 629.644531 C 235.597656 629.941406 235.140625 630.21875 234.667969 630.472656 C 234.199219 630.726562 233.714844 630.953125 233.222656 631.160156 C 232.726562 631.363281 232.222656 631.546875 231.710938 631.703125 C 231.199219 631.859375 230.683594 631.988281 230.15625 632.09375 C 229.632812 632.199219 229.105469 632.277344 228.570312 632.328125 C 228.039062 632.382812 227.503906 632.40625 226.96875 632.40625 C 226.4375 632.40625 225.902344 632.382812 225.371094 632.328125 C 224.835938 632.277344 224.308594 632.199219 223.785156 632.09375 C 223.257812 631.988281 222.742188 631.859375 222.230469 631.703125 C 221.71875 631.546875 221.214844 631.363281 220.71875 631.160156 C 220.226562 630.953125 219.742188 630.726562 219.273438 630.472656 C 218.800781 630.21875 218.34375 629.941406 217.898438 629.644531 C 217.453125 629.347656 217.027344 629.027344 216.613281 628.6875 C 216.203125 628.347656 215.804688 627.984375 215.429688 627.605469 L 182.382812 594.558594 C 182.003906 594.179688 181.644531 593.785156 181.304688 593.371094 C 180.964844 592.957031 180.648438 592.527344 180.351562 592.082031 C 180.054688 591.636719 179.78125 591.179688 179.527344 590.707031 C 179.277344 590.234375 179.046875 589.75 178.84375 589.257812 C 178.636719 588.761719 178.457031 588.257812 178.304688 587.746094 C 178.148438 587.234375 178.019531 586.714844 177.914062 586.191406 C 177.808594 585.667969 177.730469 585.136719 177.679688 584.605469 C 177.625 584.074219 177.601562 583.539062 177.601562 583.003906 C 177.601562 582.46875 177.625 581.9375 177.679688 581.402344 C 177.730469 580.871094 177.808594 580.34375 177.914062 579.816406 C 178.019531 579.292969 178.148438 578.773438 178.304688 578.261719 C 178.457031 577.75 178.636719 577.246094 178.84375 576.753906 C 179.046875 576.257812 179.277344 575.773438 179.527344 575.300781 C 179.78125 574.832031 180.054688 574.371094 180.351562 573.925781 C 180.648438 573.480469 180.964844 573.050781 181.304688 572.636719 C 181.644531 572.226562 182.003906 571.828125 182.382812 571.449219 L 216.222656 537.632812 C 217.785156 536.117188 219.21875 534.488281 220.527344 532.753906 C 221.839844 531.015625 223.011719 529.191406 224.042969 527.273438 C 225.074219 525.359375 225.953125 523.375 226.683594 521.324219 C 227.410156 519.273438 227.980469 517.183594 228.390625 515.042969 C 228.796875 512.90625 229.042969 510.753906 229.121094 508.578125 C 229.199219 506.402344 229.113281 504.234375 228.863281 502.074219 C 228.613281 499.914062 228.195312 497.785156 227.621094 495.6875 C 227.042969 493.589844 226.308594 491.546875 225.421875 489.558594 C 222.769531 483.996094 220.4375 478.351562 218.34375 472.546875 C 217.5625 470.488281 216.625 468.5 215.535156 466.582031 C 214.449219 464.664062 213.222656 462.84375 211.855469 461.113281 C 210.484375 459.386719 208.996094 457.773438 207.378906 456.273438 C 205.765625 454.773438 204.046875 453.40625 202.222656 452.167969 C 200.398438 450.933594 198.488281 449.84375 196.496094 448.898438 C 194.507812 447.953125 192.453125 447.167969 190.34375 446.539062 C 188.230469 445.910156 186.082031 445.445312 183.898438 445.144531 C 181.71875 444.84375 179.523438 444.710938 177.320312 444.746094 L 129.804688 444.746094 C 129.269531 444.746094 128.734375 444.71875 128.203125 444.667969 C 127.671875 444.617188 127.140625 444.535156 126.617188 444.433594 C 126.09375 444.328125 125.574219 444.199219 125.0625 444.042969 C 124.550781 443.886719 124.050781 443.707031 123.554688 443.503906 C 123.0625 443.300781 122.578125 443.070312 122.109375 442.820312 C 121.636719 442.566406 121.179688 442.292969 120.734375 441.996094 C 120.289062 441.699219 119.859375 441.378906 119.445312 441.039062 C 119.035156 440.703125 118.636719 440.34375 118.257812 439.964844 C 117.882812 439.585938 117.523438 439.191406 117.183594 438.777344 C 116.84375 438.363281 116.527344 437.9375 116.230469 437.492188 C 115.933594 437.046875 115.65625 436.589844 115.40625 436.117188 C 115.152344 435.644531 114.925781 435.164062 114.722656 434.667969 C 114.515625 434.175781 114.335938 433.671875 114.179688 433.160156 C 114.027344 432.648438 113.894531 432.128906 113.792969 431.605469 C 113.6875 431.082031 113.609375 430.554688 113.558594 430.023438 C 113.503906 429.488281 113.476562 428.957031 113.476562 428.421875 L 113.476562 381.566406 C 113.476562 381.03125 113.503906 380.5 113.558594 379.964844 C 113.609375 379.433594 113.6875 378.90625 113.792969 378.382812 C 113.894531 377.859375 114.027344 377.339844 114.179688 376.828125 C 114.335938 376.316406 114.515625 375.8125 114.722656 375.320312 C 114.925781 374.824219 115.152344 374.34375 115.40625 373.871094 C 115.65625 373.398438 115.933594 372.941406 116.230469 372.496094 C 116.527344 372.050781 116.84375 371.625 117.183594 371.210938 C 117.523438 370.796875 117.882812 370.402344 118.257812 370.023438 C 118.636719 369.644531 119.035156 369.285156 119.445312 368.949219 C 119.859375 368.609375 120.289062 368.289062 120.734375 367.992188 C 121.179688 367.695312 121.636719 367.421875 122.109375 367.167969 C 122.578125 366.917969 123.0625 366.6875 123.554688 366.484375 C 124.050781 366.28125 124.550781 366.101562 125.0625 365.945312 C 125.574219 365.789062 126.09375 365.660156 126.617188 365.554688 C 127.140625 365.453125 127.671875 365.371094 128.203125 365.320312 C 128.734375 365.269531 129.269531 365.242188 129.804688 365.242188 L 177.320312 365.242188 C 179.519531 365.273438 181.707031 365.136719 183.886719 364.832031 C 186.066406 364.53125 188.207031 364.0625 190.316406 363.433594 C 192.421875 362.800781 194.46875 362.015625 196.457031 361.070312 C 198.441406 360.125 200.34375 359.039062 202.164062 357.800781 C 203.984375 356.566406 205.703125 355.203125 207.3125 353.703125 C 208.925781 352.207031 210.414062 350.597656 211.777344 348.871094 C 213.144531 347.148438 214.371094 345.332031 215.457031 343.417969 C 216.542969 341.507812 217.480469 339.523438 218.265625 337.46875 C 220.359375 331.636719 222.71875 325.992188 225.339844 320.429688 C 226.222656 318.445312 226.953125 316.410156 227.527344 314.316406 C 228.097656 312.222656 228.507812 310.101562 228.757812 307.945312 C 229.007812 305.789062 229.089844 303.628906 229.011719 301.460938 C 228.929688 299.292969 228.683594 297.144531 228.277344 295.011719 C 227.867188 292.882812 227.300781 290.792969 226.570312 288.75 C 225.84375 286.707031 224.96875 284.730469 223.9375 282.820312 C 222.910156 280.910156 221.742188 279.085938 220.4375 277.355469 C 219.128906 275.625 217.699219 274 216.144531 272.488281 L 182.382812 238.511719 C 182.003906 238.132812 181.644531 237.738281 181.304688 237.324219 C 180.964844 236.914062 180.644531 236.484375 180.347656 236.039062 C 180.050781 235.597656 179.777344 235.136719 179.523438 234.667969 C 179.269531 234.195312 179.042969 233.710938 178.835938 233.21875 C 178.632812 232.726562 178.453125 232.222656 178.296875 231.710938 C 178.140625 231.199219 178.011719 230.679688 177.90625 230.15625 C 177.800781 229.632812 177.722656 229.101562 177.671875 228.570312 C 177.617188 228.039062 177.589844 227.503906 177.589844 226.96875 C 177.589844 226.4375 177.617188 225.902344 177.671875 225.371094 C 177.722656 224.839844 177.800781 224.308594 177.90625 223.785156 C 178.011719 223.261719 178.140625 222.742188 178.296875 222.230469 C 178.453125 221.71875 178.632812 221.214844 178.835938 220.722656 C 179.042969 220.230469 179.269531 219.746094 179.523438 219.273438 C 179.777344 218.804688 180.050781 218.34375 180.347656 217.902344 C 180.644531 217.457031 180.964844 217.027344 181.304688 216.613281 C 181.644531 216.203125 182.003906 215.808594 182.382812 215.429688 L 215.429688 182.382812 C 215.808594 182.003906 216.203125 181.648438 216.617188 181.308594 C 217.03125 180.96875 217.460938 180.652344 217.90625 180.355469 C 218.347656 180.0625 218.808594 179.785156 219.277344 179.535156 C 219.75 179.285156 220.234375 179.054688 220.726562 178.851562 C 221.21875 178.648438 221.722656 178.46875 222.234375 178.3125 C 222.746094 178.160156 223.265625 178.03125 223.789062 177.925781 C 224.3125 177.820312 224.839844 177.742188 225.371094 177.691406 C 225.902344 177.640625 226.4375 177.613281 226.96875 177.613281 C 227.503906 177.613281 228.039062 177.640625 228.570312 177.691406 C 229.101562 177.742188 229.628906 177.820312 230.152344 177.925781 C 230.675781 178.03125 231.195312 178.160156 231.707031 178.3125 C 232.21875 178.46875 232.71875 178.648438 233.214844 178.851562 C 233.707031 179.054688 234.191406 179.285156 234.664062 179.535156 C 235.132812 179.785156 235.59375 180.0625 236.035156 180.355469 C 236.480469 180.652344 236.910156 180.96875 237.324219 181.308594 C 237.738281 181.648438 238.132812 182.003906 238.511719 182.382812 L 272.488281 216.144531 C 274.003906 217.703125 275.628906 219.140625 277.367188 220.453125 C 279.101562 221.761719 280.929688 222.933594 282.84375 223.96875 C 284.761719 225 286.742188 225.878906 288.792969 226.609375 C 290.84375 227.339844 292.9375 227.90625 295.074219 228.316406 C 297.210938 228.722656 299.367188 228.96875 301.542969 229.046875 C 303.71875 229.125 305.886719 229.039062 308.046875 228.789062 C 310.207031 228.535156 312.335938 228.121094 314.433594 227.542969 C 316.53125 226.964844 318.574219 226.230469 320.558594 225.339844 C 326.089844 222.707031 331.761719 220.347656 337.574219 218.265625 C 339.625 217.476562 341.605469 216.539062 343.511719 215.449219 C 345.417969 214.359375 347.230469 213.128906 348.949219 211.761719 C 350.671875 210.394531 352.277344 208.90625 353.769531 207.292969 C 355.261719 205.683594 356.621094 203.964844 357.851562 202.144531 C 359.082031 200.324219 360.164062 198.421875 361.105469 196.4375 C 362.042969 194.453125 362.828125 192.40625 363.453125 190.300781 C 364.082031 188.195312 364.542969 186.054688 364.84375 183.878906 C 365.144531 181.703125 365.277344 179.515625 365.242188 177.320312 L 365.242188 129.804688 C 365.242188 129.269531 365.269531 128.734375 365.320312 128.203125 C 365.371094 127.671875 365.453125 127.140625 365.554688 126.617188 C 365.660156 126.09375 365.789062 125.574219 365.945312 125.0625 C 366.101562 124.550781 366.28125 124.050781 366.484375 123.554688 C 366.6875 123.0625 366.917969 122.578125 367.167969 122.109375 C 367.421875 121.636719 367.695312 121.179688 367.992188 120.734375 C 368.289062 120.289062 368.609375 119.859375 368.949219 119.445312 C 369.285156 119.035156 369.644531 118.636719 370.023438 118.257812 C 370.402344 117.882812 370.796875 117.523438 371.210938 117.183594 C 371.625 116.84375 372.050781 116.527344 372.496094 116.230469 C 372.941406 115.933594 373.398438 115.65625 373.871094 115.40625 C 374.34375 115.152344 374.824219 114.925781 375.320312 114.71875 C 375.8125 114.515625 376.316406 114.335938 376.828125 114.179688 C 377.339844 114.027344 377.859375 113.894531 378.382812 113.792969 C 378.90625 113.6875 379.433594 113.609375 379.964844 113.558594 C 380.5 113.503906 381.03125 113.476562 381.566406 113.476562 L 428.421875 113.476562 C 428.957031 113.476562 429.488281 113.503906 430.023438 113.558594 C 430.554688 113.609375 431.082031 113.6875 431.605469 113.792969 C 432.128906 113.894531 432.648438 114.027344 433.160156 114.179688 C 433.671875 114.335938 434.175781 114.515625 434.667969 114.71875 C 435.164062 114.925781 435.644531 115.152344 436.117188 115.40625 C 436.589844 115.65625 437.046875 115.933594 437.492188 116.230469 C 437.9375 116.527344 438.363281 116.84375 438.777344 117.183594 C 439.191406 117.523438 439.585938 117.882812 439.964844 118.257812 C 440.34375 118.636719 440.703125 119.035156 441.039062 119.445312 C 441.378906 119.859375 441.699219 120.289062 441.996094 120.734375 C 442.292969 121.179688 442.566406 121.636719 442.820312 122.109375 C 443.070312 122.578125 443.300781 123.0625 443.503906 123.554688 C 443.707031 124.050781 443.886719 124.550781 444.042969 125.0625 C 444.199219 125.574219 444.328125 126.09375 444.433594 126.617188 C 444.535156 127.140625 444.617188 127.671875 444.667969 128.203125 C 444.71875 128.734375 444.746094 129.269531 444.746094 129.804688 L 444.746094 177.320312 C 444.714844 179.519531 444.847656 181.707031 445.148438 183.882812 C 445.449219 186.058594 445.917969 188.203125 446.546875 190.308594 C 447.175781 192.414062 447.960938 194.460938 448.902344 196.445312 C 449.847656 198.433594 450.933594 200.335938 452.167969 202.152344 C 453.402344 203.972656 454.765625 205.6875 456.261719 207.300781 C 457.757812 208.910156 459.367188 210.398438 461.09375 211.761719 C 462.816406 213.125 464.632812 214.351562 466.546875 215.4375 C 468.457031 216.523438 470.4375 217.457031 472.492188 218.238281 C 478.324219 220.359375 483.996094 222.71875 489.558594 225.339844 C 491.542969 226.226562 493.578125 226.953125 495.671875 227.527344 C 497.761719 228.101562 499.886719 228.511719 502.042969 228.761719 C 504.199219 229.011719 506.359375 229.097656 508.527344 229.015625 C 510.695312 228.933594 512.847656 228.691406 514.976562 228.28125 C 517.109375 227.871094 519.195312 227.304688 521.238281 226.578125 C 523.285156 225.851562 525.261719 224.972656 527.171875 223.941406 C 529.082031 222.914062 530.902344 221.746094 532.632812 220.4375 C 534.367188 219.128906 535.988281 217.699219 537.5 216.144531 L 571.476562 182.382812 C 571.855469 182.003906 572.25 181.648438 572.664062 181.308594 C 573.078125 180.96875 573.507812 180.652344 573.953125 180.355469 C 574.394531 180.0625 574.855469 179.785156 575.324219 179.535156 C 575.796875 179.285156 576.28125 179.054688 576.773438 178.851562 C 577.269531 178.648438 577.769531 178.46875 578.28125 178.3125 C 578.792969 178.160156 579.3125 178.03125 579.835938 177.925781 C 580.359375 177.820312 580.886719 177.742188 581.417969 177.691406 C 581.949219 177.640625 582.484375 177.613281 583.019531 177.613281 C 583.550781 177.613281 584.085938 177.640625 584.617188 177.691406 C 585.148438 177.742188 585.675781 177.820312 586.199219 177.925781 C 586.722656 178.03125 587.242188 178.160156 587.753906 178.3125 C 588.265625 178.46875 588.769531 178.648438 589.261719 178.851562 C 589.753906 179.054688 590.238281 179.285156 590.710938 179.535156 C 591.179688 179.785156 591.640625 180.0625 592.082031 180.355469 C 592.527344 180.652344 592.957031 180.96875 593.371094 181.308594 C 593.785156 181.648438 594.179688 182.003906 594.558594 182.382812 L 627.6875 215.507812 C 628.066406 215.886719 628.421875 216.28125 628.761719 216.695312 C 629.101562 217.109375 629.421875 217.535156 629.71875 217.980469 C 630.015625 218.425781 630.292969 218.882812 630.542969 219.355469 C 630.796875 219.824219 631.027344 220.308594 631.230469 220.800781 C 631.4375 221.296875 631.617188 221.796875 631.773438 222.308594 C 631.925781 222.820312 632.058594 223.339844 632.160156 223.863281 C 632.265625 224.390625 632.34375 224.917969 632.398438 225.449219 C 632.449219 225.980469 632.476562 226.515625 632.476562 227.050781 C 632.476562 227.585938 632.449219 228.117188 632.398438 228.652344 C 632.34375 229.183594 632.265625 229.710938 632.160156 230.234375 C 632.058594 230.761719 631.925781 231.277344 631.773438 231.789062 C 631.617188 232.300781 631.4375 232.804688 631.230469 233.296875 C 631.027344 233.792969 630.796875 234.273438 630.542969 234.746094 C 630.292969 235.21875 630.015625 235.675781 629.71875 236.121094 C 629.421875 236.5625 629.101562 236.992188 628.761719 237.40625 C 628.421875 237.820312 628.066406 238.214844 627.6875 238.589844 L 593.84375 272.488281 C 592.285156 274.003906 590.847656 275.632812 589.539062 277.367188 C 588.226562 279.105469 587.058594 280.929688 586.023438 282.847656 C 584.992188 284.761719 584.113281 286.746094 583.382812 288.796875 C 582.65625 290.84375 582.085938 292.9375 581.679688 295.074219 C 581.269531 297.214844 581.027344 299.367188 580.945312 301.542969 C 580.867188 303.71875 580.953125 305.886719 581.203125 308.046875 C 581.457031 310.207031 581.871094 312.335938 582.449219 314.433594 C 583.023438 316.53125 583.757812 318.574219 584.648438 320.558594 C 587.296875 326.125 589.628906 331.769531 591.722656 337.574219 C 592.511719 339.625 593.449219 341.605469 594.539062 343.511719 C 595.628906 345.417969 596.859375 347.230469 598.226562 348.949219 C 599.59375 350.671875 601.082031 352.277344 602.695312 353.769531 C 604.304688 355.261719 606.023438 356.621094 607.84375 357.851562 C 609.664062 359.082031 611.566406 360.164062 613.550781 361.105469 C 615.535156 362.042969 617.582031 362.828125 619.6875 363.453125 C 621.792969 364.082031 623.933594 364.542969 626.109375 364.84375 C 628.285156 365.144531 630.472656 365.277344 632.667969 365.242188 L 680.183594 365.242188 C 680.71875 365.242188 681.253906 365.269531 681.785156 365.320312 C 682.316406 365.371094 682.847656 365.453125 683.371094 365.554688 C 683.894531 365.660156 684.414062 365.789062 684.925781 365.945312 C 685.4375 366.101562 685.9375 366.28125 686.433594 366.484375 C 686.925781 366.6875 687.410156 366.917969 687.878906 367.167969 C 688.351562 367.421875 688.808594 367.695312 689.253906 367.992188 C 689.699219 368.289062 690.128906 368.609375 690.542969 368.949219 C 690.953125 369.285156 691.351562 369.644531 691.730469 370.023438 C 692.105469 370.402344 692.464844 370.796875 692.804688 371.210938 C 693.144531 371.625 693.460938 372.050781 693.757812 372.496094 C 694.054688 372.941406 694.332031 373.398438 694.582031 373.871094 C 694.835938 374.34375 695.0625 374.824219 695.265625 375.320312 C 695.472656 375.8125 695.652344 376.316406 695.808594 376.828125 C 695.960938 377.339844 696.09375 377.859375 696.195312 378.382812 C 696.300781 378.90625 696.378906 379.433594 696.429688 379.964844 C 696.484375 380.5 696.511719 381.03125 696.511719 381.566406 Z M 404.996094 312.238281 C 403.476562 312.238281 401.960938 312.277344 400.441406 312.351562 C 398.925781 312.425781 397.414062 312.535156 395.902344 312.6875 C 394.390625 312.835938 392.886719 313.019531 391.382812 313.242188 C 389.882812 313.464844 388.386719 313.726562 386.898438 314.019531 C 385.410156 314.316406 383.929688 314.648438 382.457031 315.019531 C 380.984375 315.386719 379.519531 315.792969 378.070312 316.234375 C 376.617188 316.671875 375.175781 317.148438 373.746094 317.660156 C 372.316406 318.171875 370.902344 318.71875 369.5 319.300781 C 368.097656 319.878906 366.707031 320.496094 365.335938 321.144531 C 363.964844 321.792969 362.609375 322.476562 361.269531 323.191406 C 359.929688 323.90625 358.609375 324.65625 357.308594 325.433594 C 356.007812 326.214844 354.722656 327.027344 353.460938 327.871094 C 352.199219 328.714844 350.960938 329.589844 349.738281 330.492188 C 348.519531 331.398438 347.324219 332.332031 346.152344 333.292969 C 344.976562 334.257812 343.828125 335.246094 342.703125 336.265625 C 341.578125 337.285156 340.480469 338.332031 339.40625 339.40625 C 338.332031 340.480469 337.285156 341.578125 336.265625 342.703125 C 335.246094 343.828125 334.257812 344.976562 333.292969 346.152344 C 332.332031 347.324219 331.398438 348.519531 330.492188 349.738281 C 329.589844 350.960938 328.714844 352.199219 327.871094 353.460938 C 327.027344 354.722656 326.214844 356.007812 325.433594 357.308594 C 324.65625 358.609375 323.90625 359.929688 323.191406 361.269531 C 322.476562 362.609375 321.792969 363.964844 321.144531 365.335938 C 320.496094 366.707031 319.878906 368.097656 319.300781 369.5 C 318.71875 370.902344 318.171875 372.316406 317.660156 373.746094 C 317.148438 375.175781 316.671875 376.617188 316.234375 378.070312 C 315.792969 379.519531 315.386719 380.984375 315.019531 382.457031 C 314.648438 383.929688 314.316406 385.410156 314.019531 386.898438 C 313.726562 388.386719 313.464844 389.882812 313.242188 391.382812 C 313.019531 392.886719 312.835938 394.390625 312.6875 395.902344 C 312.535156 397.414062 312.425781 398.925781 312.351562 400.441406 C 312.277344 401.960938 312.238281 403.476562 312.238281 404.996094 C 312.238281 406.511719 312.277344 408.027344 312.351562 409.546875 C 312.425781 411.0625 312.535156 412.574219 312.6875 414.085938 C 312.835938 415.597656 313.019531 417.101562 313.242188 418.605469 C 313.464844 420.105469 313.726562 421.601562 314.019531 423.089844 C 314.316406 424.578125 314.648438 426.058594 315.019531 427.53125 C 315.386719 429.003906 315.792969 430.46875 316.234375 431.917969 C 316.671875 433.371094 317.148438 434.8125 317.660156 436.242188 C 318.171875 437.671875 318.71875 439.085938 319.300781 440.488281 C 319.878906 441.890625 320.496094 443.28125 321.144531 444.652344 C 321.792969 446.023438 322.476562 447.378906 323.191406 448.71875 C 323.90625 450.058594 324.65625 451.378906 325.433594 452.679688 C 326.214844 453.980469 327.027344 455.265625 327.871094 456.527344 C 328.714844 457.789062 329.589844 459.027344 330.492188 460.25 C 331.398438 461.46875 332.332031 462.664062 333.292969 463.835938 C 334.257812 465.011719 335.246094 466.160156 336.265625 467.285156 C 337.285156 468.410156 338.332031 469.507812 339.40625 470.582031 C 340.480469 471.65625 341.578125 472.703125 342.703125 473.722656 C 343.828125 474.742188 344.976562 475.730469 346.152344 476.695312 C 347.324219 477.65625 348.519531 478.589844 349.738281 479.496094 C 350.960938 480.398438 352.199219 481.273438 353.460938 482.117188 C 354.722656 482.960938 356.007812 483.773438 357.308594 484.554688 C 358.609375 485.332031 359.929688 486.082031 361.269531 486.796875 C 362.609375 487.511719 363.964844 488.195312 365.335938 488.84375 C 366.707031 489.492188 368.097656 490.109375 369.5 490.6875 C 370.902344 491.269531 372.316406 491.816406 373.746094 492.328125 C 375.175781 492.839844 376.617188 493.316406 378.070312 493.753906 C 379.519531 494.195312 380.984375 494.601562 382.457031 494.96875 C 383.929688 495.339844 385.410156 495.671875 386.898438 495.96875 C 388.386719 496.261719 389.882812 496.523438 391.382812 496.746094 C 392.886719 496.96875 394.390625 497.152344 395.902344 497.300781 C 397.414062 497.453125 398.925781 497.5625 400.441406 497.636719 C 401.960938 497.710938 403.476562 497.75 404.996094 497.75 C 406.511719 497.75 408.027344 497.710938 409.546875 497.636719 C 411.0625 497.5625 412.574219 497.453125 414.085938 497.300781 C 415.597656 497.152344 417.101562 496.96875 418.605469 496.746094 C 420.105469 496.523438 421.601562 496.261719 423.089844 495.96875 C 424.578125 495.671875 426.058594 495.339844 427.53125 494.96875 C 429.003906 494.601562 430.46875 494.195312 431.917969 493.753906 C 433.371094 493.316406 434.8125 492.839844 436.242188 492.328125 C 437.671875 491.816406 439.085938 491.269531 440.488281 490.6875 C 441.890625 490.109375 443.28125 489.492188 444.652344 488.84375 C 446.023438 488.195312 447.378906 487.511719 448.71875 486.796875 C 450.058594 486.082031 451.378906 485.332031 452.679688 484.554688 C 453.980469 483.773438 455.265625 482.960938 456.527344 482.117188 C 457.789062 481.273438 459.027344 480.398438 460.25 479.496094 C 461.46875 478.589844 462.664062 477.65625 463.835938 476.695312 C 465.011719 475.730469 466.160156 474.742188 467.285156 473.722656 C 468.410156 472.703125 469.507812 471.65625 470.582031 470.582031 C 471.65625 469.507812 472.703125 468.410156 473.722656 467.285156 C 474.742188 466.160156 475.730469 465.011719 476.695312 463.835938 C 477.65625 462.664062 478.589844 461.46875 479.496094 460.25 C 480.398438 459.027344 481.273438 457.789062 482.117188 456.527344 C 482.960938 455.265625 483.773438 453.980469 484.554688 452.679688 C 485.332031 451.378906 486.082031 450.058594 486.796875 448.71875 C 487.511719 447.378906 488.195312 446.023438 488.84375 444.652344 C 489.492188 443.28125 490.109375 441.890625 490.6875 440.488281 C 491.269531 439.085938 491.816406 437.671875 492.328125 436.242188 C 492.839844 434.8125 493.316406 433.371094 493.753906 431.917969 C 494.195312 430.46875 494.601562 429.003906 494.96875 427.53125 C 495.339844 426.058594 495.671875 424.578125 495.96875 423.089844 C 496.261719 421.601562 496.523438 420.105469 496.746094 418.605469 C 496.96875 417.101562 497.152344 415.597656 497.300781 414.085938 C 497.453125 412.574219 497.5625 411.0625 497.636719 409.546875 C 497.710938 408.027344 497.75 406.511719 497.75 404.992188 C 497.75 403.476562 497.710938 401.960938 497.636719 400.441406 C 497.5625 398.925781 497.453125 397.414062 497.300781 395.902344 C 497.152344 394.390625 496.96875 392.886719 496.746094 391.382812 C 496.523438 389.882812 496.261719 388.386719 495.96875 386.898438 C 495.671875 385.410156 495.339844 383.929688 494.96875 382.457031 C 494.601562 380.984375 494.195312 379.519531 493.753906 378.070312 C 493.316406 376.617188 492.839844 375.175781 492.328125 373.746094 C 491.816406 372.316406 491.269531 370.902344 490.6875 369.5 C 490.109375 368.097656 489.492188 366.707031 488.84375 365.335938 C 488.195312 363.964844 487.511719 362.609375 486.796875 361.269531 C 486.082031 359.929688 485.332031 358.609375 484.554688 357.308594 C 483.773438 356.007812 482.960938 354.722656 482.117188 353.460938 C 481.273438 352.199219 480.398438 350.960938 479.496094 349.738281 C 478.589844 348.519531 477.65625 347.324219 476.695312 346.152344 C 475.730469 344.976562 474.742188 343.828125 473.722656 342.703125 C 472.703125 341.578125 471.65625 340.480469 470.582031 339.40625 C 469.507812 338.332031 468.410156 337.285156 467.285156 336.265625 C 466.160156 335.246094 465.011719 334.257812 463.835938 333.292969 C 462.664062 332.332031 461.46875 331.398438 460.25 330.492188 C 459.027344 329.589844 457.789062 328.714844 456.527344 327.871094 C 455.265625 327.027344 453.980469 326.214844 452.679688 325.433594 C 451.378906 324.65625 450.058594 323.90625 448.71875 323.191406 C 447.378906 322.476562 446.023438 321.792969 444.652344 321.144531 C 443.28125 320.496094 441.890625 319.878906 440.488281 319.300781 C 439.085938 318.71875 437.671875 318.171875 436.242188 317.660156 C 434.8125 317.148438 433.371094 316.671875 431.917969 316.234375 C 430.46875 315.792969 429.003906 315.386719 427.53125 315.019531 C 426.058594 314.648438 424.578125 314.316406 423.089844 314.019531 C 421.601562 313.726562 420.105469 313.464844 418.605469 313.242188 C 417.101562 313.019531 415.597656 312.835938 414.085938 312.6875 C 412.574219 312.535156 411.0625 312.425781 409.546875 312.351562 C 408.027344 312.277344 406.511719 312.238281 404.996094 312.238281 Z M 404.996094 471.246094 C 403.910156 471.246094 402.828125 471.222656 401.742188 471.167969 C 400.660156 471.113281 399.578125 471.035156 398.5 470.929688 C 397.421875 470.824219 396.34375 470.691406 395.273438 470.53125 C 394.199219 470.371094 393.132812 470.1875 392.070312 469.976562 C 391.003906 469.761719 389.949219 469.527344 388.894531 469.261719 C 387.84375 469 386.800781 468.710938 385.761719 468.394531 C 384.722656 468.082031 383.695312 467.738281 382.675781 467.375 C 381.652344 467.007812 380.640625 466.621094 379.640625 466.203125 C 378.636719 465.789062 377.648438 465.351562 376.667969 464.886719 C 375.6875 464.421875 374.71875 463.9375 373.761719 463.425781 C 372.804688 462.914062 371.863281 462.378906 370.933594 461.820312 C 370.003906 461.265625 369.085938 460.683594 368.183594 460.082031 C 367.285156 459.480469 366.398438 458.855469 365.527344 458.210938 C 364.65625 457.5625 363.800781 456.898438 362.964844 456.207031 C 362.125 455.519531 361.304688 454.8125 360.5 454.085938 C 359.699219 453.355469 358.914062 452.609375 358.144531 451.84375 C 357.378906 451.074219 356.632812 450.289062 355.902344 449.488281 C 355.175781 448.683594 354.46875 447.863281 353.78125 447.023438 C 353.089844 446.1875 352.425781 445.332031 351.777344 444.460938 C 351.132812 443.589844 350.507812 442.703125 349.90625 441.800781 C 349.304688 440.902344 348.722656 439.984375 348.167969 439.054688 C 347.609375 438.125 347.074219 437.183594 346.5625 436.226562 C 346.050781 435.269531 345.566406 434.300781 345.101562 433.320312 C 344.636719 432.339844 344.199219 431.351562 343.785156 430.347656 C 343.367188 429.347656 342.980469 428.335938 342.613281 427.3125 C 342.25 426.292969 341.90625 425.265625 341.59375 424.226562 C 341.277344 423.1875 340.988281 422.144531 340.726562 421.09375 C 340.460938 420.039062 340.226562 418.984375 340.011719 417.917969 C 339.800781 416.855469 339.617188 415.789062 339.457031 414.714844 C 339.296875 413.644531 339.164062 412.566406 339.058594 411.488281 C 338.953125 410.410156 338.875 409.328125 338.820312 408.246094 C 338.765625 407.160156 338.742188 406.078125 338.742188 404.992188 C 338.742188 403.910156 338.765625 402.828125 338.820312 401.742188 C 338.875 400.660156 338.953125 399.578125 339.058594 398.5 C 339.164062 397.421875 339.296875 396.34375 339.457031 395.273438 C 339.617188 394.199219 339.800781 393.132812 340.011719 392.070312 C 340.226562 391.003906 340.460938 389.949219 340.726562 388.894531 C 340.988281 387.84375 341.277344 386.800781 341.59375 385.761719 C 341.90625 384.722656 342.25 383.695312 342.613281 382.675781 C 342.980469 381.652344 343.367188 380.640625 343.785156 379.640625 C 344.199219 378.636719 344.636719 377.648438 345.101562 376.667969 C 345.566406 375.6875 346.050781 374.71875 346.5625 373.761719 C 347.074219 372.804688 347.609375 371.863281 348.167969 370.933594 C 348.722656 370.003906 349.304688 369.085938 349.90625 368.183594 C 350.507812 367.285156 351.132812 366.398438 351.777344 365.527344 C 352.425781 364.65625 353.089844 363.800781 353.78125 362.964844 C 354.46875 362.125 355.175781 361.304688 355.902344 360.5 C 356.632812 359.699219 357.378906 358.914062 358.144531 358.144531 C 358.914062 357.378906 359.699219 356.632812 360.5 355.902344 C 361.304688 355.175781 362.125 354.46875 362.964844 353.78125 C 363.800781 353.089844 364.65625 352.425781 365.527344 351.777344 C 366.398438 351.132812 367.285156 350.507812 368.183594 349.90625 C 369.085938 349.304688 370.003906 348.722656 370.933594 348.167969 C 371.863281 347.609375 372.804688 347.074219 373.761719 346.5625 C 374.71875 346.050781 375.6875 345.566406 376.667969 345.101562 C 377.648438 344.636719 378.636719 344.199219 379.640625 343.785156 C 380.640625 343.367188 381.652344 342.980469 382.675781 342.613281 C 383.695312 342.25 384.722656 341.90625 385.761719 341.59375 C 386.800781 341.277344 387.84375 340.988281 388.894531 340.726562 C 389.949219 340.460938 391.003906 340.226562 392.070312 340.011719 C 393.132812 339.800781 394.199219 339.617188 395.273438 339.457031 C 396.34375 339.296875 397.421875 339.164062 398.5 339.058594 C 399.578125 338.953125 400.660156 338.875 401.742188 338.820312 C 402.828125 338.765625 403.910156 338.742188 404.996094 338.742188 C 406.078125 338.742188 407.160156 338.765625 408.246094 338.820312 C 409.328125 338.875 410.410156 338.953125 411.488281 339.058594 C 412.566406 339.164062 413.644531 339.296875 414.714844 339.457031 C 415.789062 339.617188 416.855469 339.800781 417.917969 340.011719 C 418.984375 340.226562 420.039062 340.460938 421.09375 340.726562 C 422.144531 340.988281 423.1875 341.277344 424.226562 341.59375 C 425.265625 341.90625 426.292969 342.25 427.3125 342.613281 C 428.335938 342.980469 429.347656 343.367188 430.347656 343.785156 C 431.351562 344.199219 432.339844 344.636719 433.320312 345.101562 C 434.300781 345.566406 435.269531 346.050781 436.226562 346.5625 C 437.183594 347.074219 438.125 347.609375 439.054688 348.167969 C 439.984375 348.722656 440.902344 349.304688 441.800781 349.90625 C 442.703125 350.507812 443.589844 351.132812 444.460938 351.777344 C 445.332031 352.425781 446.1875 353.089844 447.023438 353.78125 C 447.863281 354.46875 448.683594 355.175781 449.488281 355.902344 C 450.289062 356.632812 451.074219 357.378906 451.84375 358.144531 C 452.609375 358.914062 453.355469 359.699219 454.085938 360.5 C 454.8125 361.304688 455.519531 362.125 456.207031 362.964844 C 456.898438 363.800781 457.5625 364.65625 458.210938 365.527344 C 458.855469 366.398438 459.480469 367.285156 460.082031 368.183594 C 460.683594 369.085938 461.265625 370.003906 461.820312 370.933594 C 462.378906 371.863281 462.914062 372.804688 463.425781 373.761719 C 463.9375 374.71875 464.421875 375.6875 464.886719 376.667969 C 465.351562 377.648438 465.789062 378.636719 466.203125 379.640625 C 466.621094 380.640625 467.007812 381.652344 467.375 382.675781 C 467.738281 383.695312 468.082031 384.722656 468.394531 385.761719 C 468.710938 386.800781 469 387.84375 469.261719 388.894531 C 469.527344 389.949219 469.761719 391.003906 469.976562 392.070312 C 470.1875 393.132812 470.371094 394.199219 470.53125 395.273438 C 470.691406 396.34375 470.824219 397.421875 470.929688 398.5 C 471.035156 399.578125 471.113281 400.660156 471.167969 401.742188 C 471.222656 402.828125 471.246094 403.910156 471.246094 404.992188 C 471.246094 406.078125 471.222656 407.160156 471.167969 408.246094 C 471.113281 409.328125 471.035156 410.410156 470.929688 411.488281 C 470.824219 412.566406 470.691406 413.644531 470.53125 414.714844 C 470.371094 415.789062 470.1875 416.855469 469.976562 417.917969 C 469.761719 418.984375 469.527344 420.039062 469.261719 421.09375 C 469 422.144531 468.710938 423.1875 468.394531 424.226562 C 468.082031 425.265625 467.738281 426.292969 467.375 427.3125 C 467.007812 428.335938 466.621094 429.347656 466.203125 430.347656 C 465.789062 431.351562 465.351562 432.339844 464.886719 433.320312 C 464.421875 434.300781 463.9375 435.269531 463.425781 436.226562 C 462.914062 437.183594 462.378906 438.125 461.820312 439.054688 C 461.265625 439.984375 460.683594 440.902344 460.082031 441.800781 C 459.480469 442.703125 458.855469 443.589844 458.210938 444.460938 C 457.5625 445.332031 456.898438 446.1875 456.207031 447.023438 C 455.519531 447.863281 454.8125 448.683594 454.085938 449.488281 C 453.355469 450.289062 452.609375 451.074219 451.84375 451.84375 C 451.074219 452.609375 450.289062 453.355469 449.488281 454.085938 C 448.683594 454.8125 447.863281 455.519531 447.023438 456.207031 C 446.1875 456.898438 445.332031 457.5625 444.460938 458.210938 C 443.589844 458.855469 442.703125 459.480469 441.800781 460.082031 C 440.902344 460.683594 439.984375 461.265625 439.054688 461.820312 C 438.125 462.378906 437.183594 462.914062 436.226562 463.425781 C 435.269531 463.9375 434.300781 464.421875 433.320312 464.886719 C 432.339844 465.351562 431.351562 465.789062 430.347656 466.203125 C 429.347656 466.621094 428.335938 467.007812 427.3125 467.375 C 426.292969 467.738281 425.265625 468.082031 424.226562 468.394531 C 423.1875 468.710938 422.144531 469 421.09375 469.261719 C 420.039062 469.527344 418.984375 469.761719 417.917969 469.976562 C 416.855469 470.1875 415.789062 470.371094 414.714844 470.53125 C 413.644531 470.691406 412.566406 470.824219 411.488281 470.929688 C 410.410156 471.035156 409.328125 471.113281 408.246094 471.167969 C 407.160156 471.222656 406.078125 471.246094 404.996094 471.246094 Z M 404.996094 471.246094 " fill-opacity="1" fill-rule="nonzero"/></g></svg>