<svg xmlns="http://www.w3.org/2000/svg" xmlns:xlink="http://www.w3.org/1999/xlink" width="1080" zoomAndPan="magnify" viewBox="0 0 810 809.999993" height="1080" preserveAspectRatio="xMidYMid meet" version="1.0"><defs><clipPath id="9ac7e379b9"><path d="M 223 83.0625 L 554 83.0625 L 554 411 L 223 411 Z M 223 83.0625 " clip-rule="nonzero"/></clipPath><clipPath id="12ab046231"><path d="M 83.0625 436 L 434 436 L 434 696 L 83.0625 696 Z M 83.0625 436 " clip-rule="nonzero"/></clipPath></defs><g clip-path="url(#9ac7e379b9)"><path fill="#ffffff" d="M 553.234375 246.273438 C 553.234375 248.96875 553.167969 251.664062 553.035156 254.355469 C 552.902344 257.050781 552.703125 259.738281 552.441406 262.417969 C 552.175781 265.101562 551.84375 267.777344 551.449219 270.441406 C 551.054688 273.109375 550.59375 275.765625 550.066406 278.40625 C 549.542969 281.050781 548.953125 283.679688 548.296875 286.296875 C 547.640625 288.910156 546.921875 291.507812 546.140625 294.085938 C 545.359375 296.667969 544.511719 299.226562 543.605469 301.761719 C 542.695312 304.300781 541.726562 306.816406 540.695312 309.304688 C 539.664062 311.796875 538.570312 314.261719 537.417969 316.695312 C 536.265625 319.132812 535.054688 321.539062 533.785156 323.917969 C 532.511719 326.296875 531.183594 328.640625 529.800781 330.953125 C 528.414062 333.265625 526.972656 335.539062 525.472656 337.78125 C 523.976562 340.023438 522.425781 342.226562 520.820312 344.390625 C 519.214844 346.558594 517.554688 348.679688 515.84375 350.765625 C 514.136719 352.847656 512.375 354.890625 510.566406 356.886719 C 508.753906 358.882812 506.898438 360.835938 504.992188 362.742188 C 503.085938 364.648438 501.132812 366.507812 499.136719 368.316406 C 497.136719 370.125 495.097656 371.886719 493.015625 373.597656 C 490.929688 375.308594 488.804688 376.964844 486.640625 378.570312 C 484.476562 380.175781 482.273438 381.726562 480.03125 383.226562 C 477.789062 384.722656 475.511719 386.164062 473.199219 387.550781 C 470.890625 388.9375 468.542969 390.265625 466.167969 391.535156 C 463.789062 392.804688 461.382812 394.015625 458.945312 395.171875 C 456.507812 396.324219 454.046875 397.414062 451.554688 398.445312 C 449.066406 399.476562 446.550781 400.449219 444.011719 401.355469 C 441.472656 402.265625 438.914062 403.109375 436.335938 403.890625 C 433.757812 404.675781 431.160156 405.394531 428.542969 406.046875 C 425.929688 406.703125 423.300781 407.292969 420.65625 407.820312 C 418.011719 408.34375 415.359375 408.804688 412.691406 409.199219 C 410.023438 409.597656 407.351562 409.925781 404.667969 410.191406 C 401.984375 410.453125 399.296875 410.652344 396.605469 410.785156 C 393.914062 410.917969 391.21875 410.984375 388.523438 410.984375 C 385.828125 410.984375 383.132812 410.917969 380.441406 410.785156 C 377.75 410.652344 375.0625 410.453125 372.378906 410.191406 C 369.695312 409.925781 367.023438 409.597656 364.355469 409.199219 C 361.6875 408.804688 359.035156 408.34375 356.390625 407.820312 C 353.746094 407.292969 351.117188 406.703125 348.503906 406.046875 C 345.886719 405.394531 343.289062 404.675781 340.710938 403.890625 C 338.132812 403.109375 335.574219 402.265625 333.035156 401.355469 C 330.496094 400.449219 327.980469 399.476562 325.492188 398.445312 C 323 397.414062 320.539062 396.324219 318.101562 395.171875 C 315.664062 394.015625 313.257812 392.804688 310.878906 391.535156 C 308.503906 390.265625 306.15625 388.9375 303.847656 387.550781 C 301.535156 386.164062 299.257812 384.722656 297.015625 383.226562 C 294.773438 381.726562 292.570312 380.175781 290.40625 378.570312 C 288.242188 376.964844 286.117188 375.308594 284.03125 373.597656 C 281.949219 371.886719 279.910156 370.125 277.910156 368.316406 C 275.914062 366.507812 273.960938 364.648438 272.054688 362.742188 C 270.152344 360.835938 268.292969 358.882812 266.480469 356.886719 C 264.671875 354.890625 262.910156 352.847656 261.203125 350.765625 C 259.492188 348.679688 257.832031 346.558594 256.226562 344.390625 C 254.621094 342.226562 253.070312 340.023438 251.574219 337.78125 C 250.074219 335.539062 248.632812 333.265625 247.246094 330.953125 C 245.863281 328.640625 244.535156 326.296875 243.261719 323.917969 C 241.992188 321.539062 240.78125 319.132812 239.628906 316.695312 C 238.476562 314.261719 237.382812 311.796875 236.351562 309.304688 C 235.320312 306.816406 234.351562 304.300781 233.441406 301.761719 C 232.535156 299.226562 231.6875 296.667969 230.90625 294.085938 C 230.125 291.507812 229.40625 288.910156 228.75 286.296875 C 228.09375 283.679688 227.503906 281.050781 226.980469 278.40625 C 226.453125 275.765625 225.992188 273.109375 225.597656 270.441406 C 225.203125 267.777344 224.871094 265.101562 224.609375 262.417969 C 224.34375 259.738281 224.144531 257.050781 224.011719 254.355469 C 223.878906 251.664062 223.8125 248.96875 223.8125 246.273438 C 223.8125 243.578125 223.878906 240.886719 224.011719 238.191406 C 224.144531 235.5 224.34375 232.8125 224.609375 230.128906 C 224.871094 227.449219 225.203125 224.773438 225.597656 222.105469 C 225.992188 219.441406 226.453125 216.785156 226.980469 214.140625 C 227.503906 211.496094 228.09375 208.867188 228.75 206.253906 C 229.40625 203.640625 230.125 201.042969 230.90625 198.460938 C 231.6875 195.882812 232.535156 193.324219 233.441406 190.785156 C 234.351562 188.246094 235.320312 185.734375 236.351562 183.242188 C 237.382812 180.753906 238.476562 178.289062 239.628906 175.851562 C 240.78125 173.414062 241.992188 171.007812 243.261719 168.632812 C 244.535156 166.253906 245.863281 163.910156 247.246094 161.597656 C 248.632812 159.285156 250.074219 157.007812 251.574219 154.765625 C 253.070312 152.527344 254.621094 150.324219 256.226562 148.15625 C 257.832031 145.992188 259.492188 143.867188 261.203125 141.785156 C 262.910156 139.699219 264.671875 137.660156 266.480469 135.664062 C 268.292969 133.664062 270.152344 131.714844 272.054688 129.808594 C 273.960938 127.902344 275.914062 126.042969 277.910156 124.234375 C 279.910156 122.421875 281.949219 120.664062 284.03125 118.953125 C 286.117188 117.242188 288.242188 115.585938 290.40625 113.980469 C 292.570312 112.375 294.773438 110.820312 297.015625 109.324219 C 299.257812 107.828125 301.535156 106.382812 303.847656 105 C 306.15625 103.613281 308.503906 102.285156 310.878906 101.015625 C 313.257812 99.742188 315.664062 98.53125 318.101562 97.378906 C 320.539062 96.226562 323 95.136719 325.492188 94.101562 C 327.980469 93.070312 330.496094 92.101562 333.035156 91.195312 C 335.574219 90.285156 338.132812 89.441406 340.710938 88.65625 C 343.289062 87.875 345.886719 87.15625 348.503906 86.5 C 351.117188 85.847656 353.746094 85.257812 356.390625 84.730469 C 359.035156 84.203125 361.6875 83.742188 364.355469 83.347656 C 367.023438 82.953125 369.695312 82.621094 372.378906 82.359375 C 375.0625 82.09375 377.75 81.894531 380.441406 81.765625 C 383.132812 81.632812 385.828125 81.566406 388.523438 81.566406 C 391.21875 81.566406 393.914062 81.632812 396.605469 81.765625 C 399.296875 81.894531 401.984375 82.09375 404.667969 82.359375 C 407.351562 82.621094 410.023438 82.953125 412.691406 83.347656 C 415.359375 83.742188 418.011719 84.203125 420.65625 84.730469 C 423.300781 85.257812 425.929688 85.847656 428.542969 86.5 C 431.160156 87.15625 433.757812 87.875 436.335938 88.65625 C 438.914062 89.441406 441.472656 90.285156 444.011719 91.195312 C 446.550781 92.101562 449.066406 93.070312 451.554688 94.101562 C 454.046875 95.136719 456.507812 96.226562 458.945312 97.378906 C 461.382812 98.53125 463.789062 99.742188 466.167969 101.015625 C 468.542969 102.285156 470.890625 103.613281 473.199219 105 C 475.511719 106.382812 477.789062 107.828125 480.03125 109.324219 C 482.273438 110.820312 484.476562 112.375 486.640625 113.980469 C 488.804688 115.585938 490.929688 117.242188 493.015625 118.953125 C 495.097656 120.664062 497.136719 122.421875 499.136719 124.234375 C 501.132812 126.042969 503.085938 127.902344 504.992188 129.808594 C 506.898438 131.714844 508.753906 133.664062 510.566406 135.664062 C 512.375 137.660156 514.136719 139.699219 515.84375 141.785156 C 517.554688 143.867188 519.214844 145.992188 520.820312 148.15625 C 522.425781 150.324219 523.976562 152.527344 525.472656 154.765625 C 526.972656 157.007812 528.414062 159.285156 529.800781 161.597656 C 531.183594 163.910156 532.511719 166.253906 533.785156 168.632812 C 535.054688 171.007812 536.265625 173.414062 537.417969 175.851562 C 538.570312 178.289062 539.664062 180.753906 540.695312 183.242188 C 541.726562 185.734375 542.695312 188.246094 543.605469 190.785156 C 544.511719 193.324219 545.359375 195.882812 546.140625 198.460938 C 546.921875 201.042969 547.640625 203.640625 548.296875 206.253906 C 548.953125 208.867188 549.542969 211.496094 550.066406 214.140625 C 550.59375 216.785156 551.054688 219.441406 551.449219 222.105469 C 551.84375 224.773438 552.175781 227.449219 552.441406 230.128906 C 552.703125 232.8125 552.902344 235.5 553.035156 238.191406 C 553.167969 240.886719 553.234375 243.578125 553.234375 246.273438 Z M 553.234375 246.273438 " fill-opacity="1" fill-rule="nonzero"/></g><g clip-path="url(#12ab046231)"><path fill="#ffffff" d="M 431.378906 695.839844 C 400.144531 662.421875 381.035156 617.527344 381.035156 568.207031 C 381.035156 517.863281 400.953125 472.164062 433.292969 438.503906 C 418.710938 437.398438 403.738281 436.796875 388.523438 436.796875 C 289.039062 436.796875 200.964844 461.683594 146.28125 498.96875 C 104.566406 527.417969 81.566406 563.566406 81.566406 601.507812 C 81.566406 601.507812 81.566406 644.960938 81.566406 644.960938 C 81.566406 658.4375 86.925781 671.402344 96.480469 680.957031 C 106.03125 690.480469 118.96875 695.871094 132.476562 695.871094 Z M 431.378906 695.839844 " fill-opacity="1" fill-rule="evenodd"/></g><path fill="#ffffff" d="M 568.207031 410.984375 C 481.417969 410.984375 410.984375 481.417969 410.984375 568.207031 C 410.984375 654.992188 481.417969 725.429688 568.207031 725.429688 C 654.992188 725.429688 725.429688 654.992188 725.429688 568.207031 C 725.429688 481.417969 654.992188 410.984375 568.207031 410.984375 Z M 590.667969 545.746094 L 590.667969 515.800781 C 590.667969 503.402344 580.605469 493.339844 568.207031 493.339844 C 555.808594 493.339844 545.746094 503.402344 545.746094 515.800781 L 545.746094 545.746094 L 515.796875 545.746094 C 503.402344 545.746094 493.339844 555.808594 493.339844 568.207031 C 493.339844 580.605469 503.402344 590.667969 515.796875 590.667969 L 545.746094 590.667969 L 545.746094 620.613281 C 545.746094 633.011719 555.808594 643.074219 568.207031 643.074219 C 580.605469 643.074219 590.667969 633.011719 590.667969 620.613281 L 590.667969 590.667969 L 620.613281 590.667969 C 633.011719 590.667969 643.074219 580.605469 643.074219 568.207031 C 643.074219 555.808594 633.011719 545.746094 620.613281 545.746094 Z M 590.667969 545.746094 " fill-opacity="1" fill-rule="evenodd"/></svg>