<svg xmlns="http://www.w3.org/2000/svg" xmlns:xlink="http://www.w3.org/1999/xlink" width="1080" zoomAndPan="magnify" viewBox="0 0 810 809.999993" height="1080" preserveAspectRatio="xMidYMid meet" version="1.0"><defs><clipPath id="45dd8f5312"><path d="M 81 81 L 729 81 L 729 729 L 81 729 Z M 81 81 " clip-rule="nonzero"/></clipPath></defs><g clip-path="url(#45dd8f5312)"><path fill="#ffffff" d="M 433.945312 149.847656 L 433.945312 82.285156 C 424.4375 81.449219 414.765625 81 405.03125 81 C 226.085938 81 81 226.085938 81 405.03125 C 81 583.980469 226.054688 729.0625 405.03125 729.0625 C 583.980469 729.0625 729.0625 583.980469 729.0625 405.03125 C 729.0625 287.320312 666.289062 184.257812 572.382812 127.519531 L 572.382812 295.574219 C 622.433594 372.261719 614.210938 475.839844 547.675781 543.660156 C 469.605469 623.238281 341.386719 623.207031 263.351562 543.5625 C 187.53125 466.167969 187.53125 342.351562 263.351562 264.957031 C 293.808594 233.890625 333.613281 213.460938 377.082031 207.226562 L 377.082031 264.925781 C 356.070312 269.199219 336.761719 278.097656 320.21875 290.53125 C 285.679688 316.492188 263.351562 357.773438 263.351562 404.292969 C 263.351562 483.710938 327.863281 546.488281 405.546875 546.488281 C 436.644531 546.488281 466.332031 536.464844 490.8125 518.117188 C 524.09375 493.15625 546.070312 453.929688 547.675781 409.53125 L 547.675781 191.421875 C 530.070312 179.660156 510.988281 170.023438 490.8125 162.921875 L 490.8125 408.375 C 488.660156 454.347656 450.621094 489.65625 405.546875 489.65625 C 359.058594 489.65625 320.21875 452.097656 320.21875 404.324219 C 320.21875 344.699219 379.296875 304.539062 433.945312 323.816406 Z M 405.640625 366.867188 C 426.203125 366.867188 442.84375 383.539062 442.84375 404.066406 C 442.84375 424.628906 426.171875 441.269531 405.640625 441.269531 C 385.082031 441.269531 368.441406 424.597656 368.441406 404.066406 C 368.441406 383.507812 385.113281 366.867188 405.640625 366.867188 Z M 519.242188 89.320312 C 503.5 89.320312 490.777344 102.074219 490.777344 117.785156 C 490.777344 133.527344 503.535156 146.25 519.242188 146.25 C 534.984375 146.25 547.707031 133.496094 547.707031 117.785156 C 547.707031 102.042969 534.953125 89.320312 519.242188 89.320312 Z M 519.242188 89.320312 " fill-opacity="1" fill-rule="evenodd"/></g></svg>