<svg xmlns="http://www.w3.org/2000/svg" xmlns:xlink="http://www.w3.org/1999/xlink" width="1080" zoomAndPan="magnify" viewBox="0 0 810 809.999993" height="1080" preserveAspectRatio="xMidYMid meet" version="1.0"><defs><clipPath id="861f39bb42"><path d="M 81 81 L 729 81 L 729 728.25 L 81 728.25 Z M 81 81 " clip-rule="nonzero"/></clipPath></defs><g clip-path="url(#861f39bb42)"><path fill="#ffffff" d="M 728.75 404.574219 C 728.75 409.871094 728.621094 415.164062 728.359375 420.453125 C 728.101562 425.742188 727.710938 431.023438 727.191406 436.292969 C 726.671875 441.5625 726.023438 446.816406 725.246094 452.054688 C 724.46875 457.292969 723.5625 462.507812 722.53125 467.703125 C 721.496094 472.894531 720.335938 478.0625 719.046875 483.199219 C 717.761719 488.335938 716.347656 493.4375 714.808594 498.503906 C 713.269531 503.574219 711.609375 508.597656 709.824219 513.585938 C 708.039062 518.570312 706.132812 523.511719 704.105469 528.402344 C 702.078125 533.296875 699.929688 538.136719 697.667969 542.921875 C 695.402344 547.710938 693.019531 552.4375 690.523438 557.109375 C 688.023438 561.777344 685.414062 566.386719 682.6875 570.925781 C 679.964844 575.46875 677.132812 579.941406 674.1875 584.34375 C 671.242188 588.75 668.195312 593.078125 665.039062 597.328125 C 661.882812 601.582031 658.621094 605.757812 655.261719 609.851562 C 651.898438 613.945312 648.441406 617.953125 644.882812 621.875 C 641.324219 625.800781 637.671875 629.632812 633.925781 633.378906 C 630.175781 637.125 626.339844 640.773438 622.414062 644.328125 C 618.488281 647.886719 614.476562 651.34375 610.382812 654.703125 C 606.285156 658.0625 602.109375 661.320312 597.855469 664.472656 C 593.597656 667.628906 589.269531 670.675781 584.863281 673.621094 C 580.457031 676.5625 575.980469 679.394531 571.4375 682.117188 C 566.894531 684.839844 562.285156 687.449219 557.609375 689.945312 C 552.9375 692.441406 548.207031 694.820312 543.417969 697.085938 C 538.628906 699.347656 533.785156 701.496094 528.890625 703.519531 C 523.996094 705.546875 519.050781 707.453125 514.0625 709.238281 C 509.074219 711.019531 504.046875 712.679688 498.976562 714.21875 C 493.90625 715.753906 488.800781 717.167969 483.660156 718.453125 C 478.519531 719.742188 473.351562 720.902344 468.15625 721.933594 C 462.957031 722.96875 457.738281 723.871094 452.496094 724.648438 C 447.257812 725.425781 442 726.074219 436.726562 726.59375 C 431.453125 727.113281 426.171875 727.503906 420.878906 727.761719 C 415.585938 728.023438 410.292969 728.152344 404.992188 728.152344 C 399.695312 728.152344 394.398438 728.023438 389.105469 727.761719 C 383.816406 727.503906 378.53125 727.113281 373.257812 726.59375 C 367.984375 726.074219 362.730469 725.425781 357.488281 724.648438 C 352.246094 723.871094 347.027344 722.96875 341.832031 721.933594 C 336.632812 720.902344 331.464844 719.742188 326.328125 718.453125 C 321.1875 717.167969 316.082031 715.753906 311.011719 714.21875 C 305.941406 712.679688 300.910156 711.019531 295.921875 709.238281 C 290.933594 707.453125 285.992188 705.546875 281.097656 703.519531 C 276.203125 701.496094 271.359375 699.347656 266.570312 697.085938 C 261.777344 694.820312 257.046875 692.441406 252.375 689.945312 C 247.703125 687.449219 243.09375 684.839844 238.546875 682.117188 C 234.003906 679.394531 229.527344 676.5625 225.125 673.621094 C 220.71875 670.675781 216.386719 667.628906 212.132812 664.472656 C 207.875 661.320312 203.699219 658.0625 199.601562 654.703125 C 195.507812 651.34375 191.496094 647.886719 187.570312 644.328125 C 183.644531 640.773438 179.808594 637.125 176.0625 633.378906 C 172.316406 629.632812 168.664062 625.800781 165.105469 621.875 C 161.546875 617.953125 158.085938 613.945312 154.726562 609.851562 C 151.363281 605.757812 148.105469 601.582031 144.949219 597.328125 C 141.792969 593.078125 138.742188 588.75 135.796875 584.34375 C 132.855469 579.941406 130.019531 575.46875 127.296875 570.925781 C 124.574219 566.386719 121.960938 561.777344 119.464844 557.109375 C 116.964844 552.4375 114.585938 547.710938 112.320312 542.921875 C 110.054688 538.136719 107.90625 533.296875 105.878906 528.402344 C 103.851562 523.511719 101.945312 518.570312 100.160156 513.585938 C 98.375 508.597656 96.714844 503.574219 95.175781 498.503906 C 93.636719 493.4375 92.226562 488.335938 90.9375 483.199219 C 89.652344 478.0625 88.492188 472.894531 87.457031 467.703125 C 86.421875 462.507812 85.515625 457.292969 84.738281 452.054688 C 83.960938 446.816406 83.3125 441.5625 82.792969 436.292969 C 82.273438 431.023438 81.886719 425.742188 81.625 420.453125 C 81.367188 415.164062 81.234375 409.871094 81.234375 404.574219 C 81.234375 399.28125 81.367188 393.988281 81.625 388.699219 C 81.886719 383.410156 82.273438 378.128906 82.792969 372.859375 C 83.3125 367.589844 83.960938 362.335938 84.738281 357.097656 C 85.515625 351.859375 86.421875 346.644531 87.457031 341.449219 C 88.492188 336.253906 89.652344 331.089844 90.9375 325.953125 C 92.226562 320.816406 93.636719 315.714844 95.175781 310.648438 C 96.714844 305.578125 98.375 300.550781 100.160156 295.566406 C 101.945312 290.582031 103.851562 285.640625 105.878906 280.75 C 107.90625 275.855469 110.054688 271.015625 112.320312 266.230469 C 114.585938 261.441406 116.964844 256.714844 119.464844 252.042969 C 121.960938 247.371094 124.574219 242.765625 127.296875 238.226562 C 130.019531 233.683594 132.855469 229.210938 135.796875 224.808594 C 138.742188 220.402344 141.792969 216.074219 144.949219 211.820312 C 148.105469 207.570312 151.363281 203.394531 154.726562 199.300781 C 158.085938 195.207031 161.546875 191.199219 165.105469 187.277344 C 168.664062 183.351562 172.316406 179.519531 176.0625 175.773438 C 179.808594 172.027344 183.644531 168.378906 187.570312 164.820312 C 191.496094 161.265625 195.507812 157.808594 199.601562 154.449219 C 203.699219 151.089844 207.875 147.832031 212.132812 144.675781 C 216.386719 141.523438 220.71875 138.472656 225.125 135.53125 C 229.527344 132.589844 234.003906 129.757812 238.546875 127.035156 C 243.09375 124.3125 247.703125 121.703125 252.375 119.207031 C 257.046875 116.710938 261.777344 114.332031 266.570312 112.066406 C 271.359375 109.800781 276.203125 107.65625 281.097656 105.628906 C 285.992188 103.605469 290.933594 101.699219 295.921875 99.914062 C 300.910156 98.132812 305.941406 96.46875 311.011719 94.933594 C 316.082031 93.394531 321.1875 91.984375 326.328125 90.695312 C 331.464844 89.410156 336.632812 88.25 341.832031 87.21875 C 347.027344 86.183594 352.246094 85.277344 357.488281 84.503906 C 362.730469 83.726562 367.984375 83.078125 373.257812 82.558594 C 378.53125 82.039062 383.816406 81.648438 389.105469 81.390625 C 394.398438 81.128906 399.695312 81 404.992188 81 C 410.292969 81 415.585938 81.128906 420.878906 81.390625 C 426.171875 81.648438 431.453125 82.039062 436.726562 82.558594 C 442 83.078125 447.257812 83.726562 452.496094 84.503906 C 457.738281 85.277344 462.957031 86.183594 468.15625 87.21875 C 473.351562 88.25 478.519531 89.410156 483.660156 90.695312 C 488.800781 91.984375 493.90625 93.394531 498.976562 94.933594 C 504.046875 96.46875 509.074219 98.132812 514.0625 99.914062 C 519.050781 101.699219 523.996094 103.605469 528.890625 105.628906 C 533.785156 107.65625 538.628906 109.800781 543.417969 112.066406 C 548.207031 114.332031 552.9375 116.710938 557.609375 119.207031 C 562.285156 121.703125 566.894531 124.3125 571.4375 127.035156 C 575.980469 129.757812 580.457031 132.589844 584.863281 135.53125 C 589.269531 138.472656 593.597656 141.523438 597.855469 144.675781 C 602.109375 147.832031 606.285156 151.089844 610.382812 154.449219 C 614.476562 157.808594 618.488281 161.265625 622.414062 164.820312 C 626.339844 168.378906 630.175781 172.027344 633.925781 175.773438 C 637.671875 179.519531 641.324219 183.351562 644.882812 187.277344 C 648.441406 191.199219 651.898438 195.207031 655.261719 199.300781 C 658.621094 203.394531 661.882812 207.570312 665.039062 211.820312 C 668.195312 216.074219 671.242188 220.402344 674.1875 224.808594 C 677.132812 229.210938 679.964844 233.683594 682.6875 238.226562 C 685.414062 242.765625 688.023438 247.371094 690.523438 252.042969 C 693.019531 256.714844 695.402344 261.441406 697.667969 266.230469 C 699.929688 271.015625 702.078125 275.855469 704.105469 280.75 C 706.132812 285.640625 708.039062 290.582031 709.824219 295.566406 C 711.609375 300.550781 713.269531 305.578125 714.808594 310.648438 C 716.347656 315.714844 717.761719 320.816406 719.046875 325.953125 C 720.335938 331.089844 721.496094 336.253906 722.53125 341.449219 C 723.5625 346.644531 724.46875 351.859375 725.246094 357.097656 C 726.023438 362.335938 726.671875 367.589844 727.191406 372.859375 C 727.710938 378.128906 728.101562 383.410156 728.359375 388.699219 C 728.621094 393.988281 728.75 399.28125 728.75 404.574219 Z M 728.75 404.574219 " fill-opacity="1" fill-rule="nonzero"/></g><path fill="#161e21" d="M 444.910156 374.175781 L 603.25 191.753906 L 565.960938 191.753906 L 428.167969 350.113281 L 320.707031 195.777344 L 198.292969 195.777344 L 360.464844 427.925781 L 195.71875 617.242188 L 233.929688 617.242188 L 377.328125 452.042969 L 492.832031 617.402344 L 614.296875 617.402344 Z M 394.738281 431.976562 L 377.902344 407.878906 L 247.726562 221.527344 L 307.234375 221.527344 L 410.722656 370.148438 L 427.476562 394.238281 L 564.933594 591.628906 L 506.261719 591.628906 Z M 394.738281 431.976562 " fill-opacity="1" fill-rule="nonzero"/></svg>