<svg xmlns="http://www.w3.org/2000/svg" xmlns:xlink="http://www.w3.org/1999/xlink" width="1080" zoomAndPan="magnify" viewBox="0 0 810 809.999993" height="1080" preserveAspectRatio="xMidYMid meet" version="1.0"><defs><clipPath id="1f3b2747cd"><path d="M 81 151.46875 L 729 151.46875 L 729 658.46875 L 81 658.46875 Z M 81 151.46875 " clip-rule="nonzero"/></clipPath></defs><g clip-path="url(#1f3b2747cd)"><path fill="#ffffff" d="M 279.558594 288.003906 C 288.460938 226.71875 341.246094 179.640625 405 179.640625 C 468.753906 179.640625 521.535156 226.71875 530.441406 288.003906 C 531.050781 292.203125 533.523438 295.90625 537.171875 298.078125 C 540.820312 300.25 545.253906 300.664062 549.238281 299.199219 C 561.335938 294.753906 574.417969 292.320312 588.105469 292.320312 C 650.335938 292.320312 700.785156 342.769531 700.785156 405 C 700.785156 467.230469 650.335938 517.679688 588.105469 517.679688 L 489.507812 517.679688 C 481.730469 517.679688 475.425781 523.984375 475.425781 531.765625 C 475.425781 539.542969 481.730469 545.847656 489.507812 545.847656 L 588.105469 545.847656 C 665.894531 545.847656 728.953125 482.789062 728.953125 405 C 728.953125 327.210938 665.894531 264.148438 588.105469 264.148438 C 576.765625 264.148438 565.726562 265.492188 555.144531 268.03125 C 538.0625 201.019531 477.328125 151.46875 405 151.46875 C 332.671875 151.46875 271.9375 201.019531 254.855469 268.03125 C 244.273438 265.492188 233.234375 264.148438 221.894531 264.148438 C 144.105469 264.148438 81.046875 327.210938 81.046875 405 C 81.046875 482.789062 144.105469 545.847656 221.894531 545.847656 L 320.488281 545.847656 C 328.269531 545.847656 334.574219 539.542969 334.574219 531.765625 C 334.574219 523.984375 328.269531 517.679688 320.488281 517.679688 L 221.894531 517.679688 C 159.664062 517.679688 109.214844 467.230469 109.214844 405 C 109.214844 342.769531 159.664062 292.320312 221.894531 292.320312 C 235.582031 292.320312 248.664062 294.753906 260.761719 299.199219 C 264.746094 300.664062 269.179688 300.25 272.828125 298.078125 C 276.476562 295.90625 278.949219 292.203125 279.558594 288.003906 Z M 499.46875 409.125 L 414.960938 324.613281 C 409.460938 319.113281 400.539062 319.113281 395.039062 324.613281 L 310.53125 409.125 C 305.03125 414.625 305.03125 423.542969 310.53125 429.046875 C 316.03125 434.542969 324.949219 434.542969 330.449219 429.046875 L 390.914062 368.578125 L 390.914062 644.445312 C 390.914062 652.222656 397.222656 658.527344 405 658.527344 C 412.777344 658.527344 419.085938 652.222656 419.085938 644.445312 L 419.085938 368.578125 L 479.550781 429.046875 C 485.050781 434.542969 493.96875 434.542969 499.46875 429.046875 C 504.96875 423.542969 504.96875 414.625 499.46875 409.125 Z M 499.46875 409.125 " fill-opacity="1" fill-rule="evenodd"/></g></svg>