<svg xmlns="http://www.w3.org/2000/svg" xmlns:xlink="http://www.w3.org/1999/xlink" width="1080" zoomAndPan="magnify" viewBox="0 0 810 809.999993" height="1080" preserveAspectRatio="xMidYMid meet" version="1.0"><defs><clipPath id="a755aa9621"><path d="M 132.121094 132.121094 L 678 132.121094 L 678 678 L 132.121094 678 Z M 132.121094 132.121094 " clip-rule="nonzero"/></clipPath></defs><g clip-path="url(#a755aa9621)"><path fill="#008080" d="M 632.671875 177.277344 L 632.671875 631.992188 L 359.453125 631.992188 L 359.453125 473.121094 C 359.453125 460.71875 349.28125 450.542969 336.875 450.542969 L 177.328125 450.542969 L 177.328125 177.328125 Z M 188.226562 473.121094 L 336.875 473.121094 L 336.875 621.042969 Z M 132.121094 154.699219 L 132.121094 473.121094 L 336.875 677.875 L 655.296875 677.875 C 667.652344 677.875 677.875 667.652344 677.875 655.296875 L 677.875 154.699219 C 677.875 142.34375 667.652344 132.121094 655.296875 132.121094 L 154.699219 132.121094 C 142.34375 132.121094 132.121094 142.34375 132.121094 154.699219 " fill-opacity="1" fill-rule="nonzero"/></g><path fill="#008080" d="M 541.632812 405.386719 L 541.632812 268.367188 L 404.613281 268.367188 L 452.722656 320.839844 L 388.621094 387.121094 L 422.878906 422.152344 L 489.160156 356.546875 L 541.632812 405.386719 " fill-opacity="1" fill-rule="nonzero"/></svg>