<svg xmlns="http://www.w3.org/2000/svg" xmlns:xlink="http://www.w3.org/1999/xlink" width="1080" zoomAndPan="magnify" viewBox="0 0 810 809.999993" height="1080" preserveAspectRatio="xMidYMid meet" version="1.0"><defs><clipPath id="e25ceef10d"><path d="M 81 81 L 729 81 L 729 729 L 81 729 Z M 81 81 " clip-rule="nonzero"/></clipPath></defs><g clip-path="url(#e25ceef10d)"><path fill="#ffffff" d="M 729.988281 405.292969 C 729.988281 410.605469 729.859375 415.914062 729.597656 421.222656 C 729.335938 426.527344 728.945312 431.828125 728.425781 437.113281 C 727.902344 442.402344 727.253906 447.671875 726.472656 452.929688 C 725.695312 458.183594 724.785156 463.417969 723.75 468.628906 C 722.710938 473.839844 721.550781 479.023438 720.257812 484.175781 C 718.96875 489.332031 717.550781 494.449219 716.007812 499.535156 C 714.464844 504.621094 712.800781 509.664062 711.007812 514.664062 C 709.21875 519.667969 707.308594 524.625 705.273438 529.53125 C 703.242188 534.441406 701.089844 539.296875 698.816406 544.101562 C 696.546875 548.902344 694.15625 553.648438 691.652344 558.335938 C 689.148438 563.019531 686.53125 567.640625 683.796875 572.199219 C 681.066406 576.757812 678.222656 581.246094 675.273438 585.660156 C 672.320312 590.082031 669.261719 594.421875 666.097656 598.691406 C 662.933594 602.957031 659.664062 607.144531 656.292969 611.253906 C 652.921875 615.359375 649.453125 619.382812 645.886719 623.320312 C 642.316406 627.257812 638.65625 631.101562 634.898438 634.859375 C 631.140625 638.617188 627.292969 642.28125 623.355469 645.847656 C 619.417969 649.414062 615.398438 652.886719 611.289062 656.257812 C 607.183594 659.628906 602.996094 662.894531 598.726562 666.058594 C 594.460938 669.226562 590.117188 672.28125 585.699219 675.234375 C 581.28125 678.1875 576.792969 681.03125 572.238281 683.761719 C 567.679688 686.492188 563.058594 689.109375 558.371094 691.613281 C 553.6875 694.121094 548.941406 696.507812 544.136719 698.78125 C 539.335938 701.050781 534.480469 703.203125 529.570312 705.238281 C 524.660156 707.269531 519.707031 709.183594 514.703125 710.972656 C 509.699219 712.761719 504.65625 714.429688 499.574219 715.972656 C 494.488281 717.511719 489.367188 718.929688 484.214844 720.222656 C 479.058594 721.511719 473.878906 722.675781 468.667969 723.714844 C 463.453125 724.75 458.222656 725.660156 452.964844 726.4375 C 447.710938 727.214844 442.4375 727.867188 437.152344 728.390625 C 431.863281 728.910156 426.566406 729.300781 421.257812 729.558594 C 415.953125 729.820312 410.640625 729.953125 405.328125 729.953125 C 400.015625 729.953125 394.707031 729.820312 389.398438 729.558594 C 384.09375 729.300781 378.792969 728.910156 373.507812 728.386719 C 368.21875 727.867188 362.949219 727.214844 357.691406 726.4375 C 352.4375 725.65625 347.203125 724.75 341.992188 723.710938 C 336.78125 722.675781 331.597656 721.511719 326.445312 720.222656 C 321.289062 718.929688 316.171875 717.511719 311.085938 715.96875 C 306 714.425781 300.957031 712.761719 295.953125 710.972656 C 290.953125 709.183594 285.996094 707.269531 281.085938 705.238281 C 276.179688 703.203125 271.324219 701.050781 266.519531 698.78125 C 261.714844 696.507812 256.972656 694.121094 252.285156 691.617188 C 247.601562 689.109375 242.976562 686.492188 238.421875 683.761719 C 233.863281 681.03125 229.375 678.1875 224.957031 675.234375 C 220.539062 672.28125 216.199219 669.226562 211.929688 666.058594 C 207.660156 662.894531 203.476562 659.628906 199.367188 656.257812 C 195.261719 652.886719 191.238281 649.414062 187.300781 645.847656 C 183.363281 642.28125 179.519531 638.617188 175.761719 634.859375 C 172.003906 631.101562 168.339844 627.257812 164.773438 623.320312 C 161.203125 619.382812 157.734375 615.363281 154.363281 611.253906 C 150.992188 607.148438 147.726562 602.960938 144.5625 598.691406 C 141.394531 594.425781 138.335938 590.082031 135.382812 585.664062 C 132.433594 581.246094 129.589844 576.757812 126.859375 572.199219 C 124.128906 567.640625 121.511719 563.019531 119.003906 558.335938 C 116.5 553.648438 114.113281 548.902344 111.839844 544.101562 C 109.570312 539.296875 107.417969 534.441406 105.382812 529.53125 C 103.351562 524.625 101.4375 519.667969 99.648438 514.664062 C 97.859375 509.664062 96.191406 504.621094 94.648438 499.535156 C 93.105469 494.449219 91.691406 489.332031 90.398438 484.175781 C 89.109375 479.023438 87.945312 473.839844 86.90625 468.628906 C 85.871094 463.417969 84.964844 458.183594 84.183594 452.929688 C 83.40625 447.671875 82.753906 442.402344 82.234375 437.113281 C 81.710938 431.828125 81.320312 426.527344 81.0625 421.222656 C 80.800781 415.914062 80.671875 410.605469 80.671875 405.292969 C 80.671875 399.980469 80.800781 394.667969 81.0625 389.363281 C 81.320312 384.054688 81.710938 378.757812 82.234375 373.46875 C 82.753906 368.183594 83.40625 362.910156 84.183594 357.65625 C 84.964844 352.398438 85.871094 347.164062 86.90625 341.953125 C 87.945312 336.742188 89.109375 331.558594 90.398438 326.40625 C 91.691406 321.253906 93.105469 316.132812 94.648438 311.046875 C 96.191406 305.964844 97.859375 300.917969 99.648438 295.917969 C 101.4375 290.914062 103.351562 285.957031 105.382812 281.050781 C 107.417969 276.140625 109.570312 271.285156 111.839844 266.480469 C 114.113281 261.679688 116.5 256.933594 119.003906 252.25 C 121.511719 247.5625 124.128906 242.941406 126.859375 238.382812 C 129.589844 233.824219 132.433594 229.339844 135.382812 224.921875 C 138.335938 220.503906 141.394531 216.160156 144.5625 211.894531 C 147.726562 207.625 150.992188 203.4375 154.363281 199.332031 C 157.734375 195.222656 161.203125 191.199219 164.773438 187.265625 C 168.339844 183.328125 172.003906 179.480469 175.761719 175.722656 C 179.519531 171.964844 183.363281 168.304688 187.300781 164.734375 C 191.238281 161.167969 195.261719 157.699219 199.367188 154.328125 C 203.476562 150.957031 207.664062 147.6875 211.929688 144.523438 C 216.199219 141.359375 220.539062 138.300781 224.957031 135.347656 C 229.375 132.394531 233.863281 129.554688 238.421875 126.820312 C 242.976562 124.089844 247.601562 121.472656 252.285156 118.96875 C 256.972656 116.464844 261.714844 114.074219 266.519531 111.804688 C 271.324219 109.53125 276.179688 107.378906 281.085938 105.347656 C 285.996094 103.3125 290.953125 101.402344 295.953125 99.609375 C 300.957031 97.820312 306 96.15625 311.085938 94.613281 C 316.171875 93.070312 321.289062 91.652344 326.441406 90.363281 C 331.597656 89.070312 336.78125 87.90625 341.992188 86.871094 C 347.203125 85.835938 352.433594 84.925781 357.691406 84.148438 C 362.945312 83.367188 368.21875 82.71875 373.507812 82.195312 C 378.792969 81.675781 384.09375 81.285156 389.398438 81.023438 C 394.707031 80.761719 400.015625 80.632812 405.328125 80.632812 C 410.640625 80.632812 415.953125 80.761719 421.257812 81.023438 C 426.566406 81.285156 431.863281 81.675781 437.152344 82.195312 C 442.4375 82.71875 447.710938 83.367188 452.964844 84.148438 C 458.222656 84.925781 463.457031 85.835938 468.667969 86.871094 C 473.878906 87.90625 479.058594 89.070312 484.214844 90.363281 C 489.367188 91.652344 494.488281 93.070312 499.574219 94.613281 C 504.65625 96.15625 509.699219 97.820312 514.703125 99.609375 C 519.707031 101.402344 524.660156 103.3125 529.570312 105.347656 C 534.480469 107.378906 539.335938 109.53125 544.136719 111.804688 C 548.941406 114.074219 553.6875 116.464844 558.371094 118.96875 C 563.058594 121.472656 567.679688 124.089844 572.238281 126.824219 C 576.792969 129.554688 581.28125 132.394531 585.699219 135.347656 C 590.117188 138.300781 594.460938 141.359375 598.726562 144.523438 C 602.996094 147.6875 607.183594 150.957031 611.289062 154.328125 C 615.398438 157.699219 619.417969 161.167969 623.355469 164.734375 C 627.292969 168.304688 631.140625 171.964844 634.898438 175.722656 C 638.65625 179.480469 642.316406 183.328125 645.886719 187.265625 C 649.453125 191.199219 652.921875 195.222656 656.292969 199.332031 C 659.664062 203.4375 662.933594 207.625 666.097656 211.894531 C 669.261719 216.160156 672.320312 220.503906 675.273438 224.921875 C 678.222656 229.339844 681.066406 233.824219 683.796875 238.382812 C 686.527344 242.941406 689.148438 247.5625 691.652344 252.25 C 694.15625 256.933594 696.542969 261.679688 698.816406 266.480469 C 701.089844 271.285156 703.242188 276.140625 705.273438 281.050781 C 707.308594 285.957031 709.21875 290.914062 711.007812 295.917969 C 712.800781 300.917969 714.464844 305.964844 716.007812 311.050781 C 717.550781 316.132812 718.96875 321.253906 720.257812 326.40625 C 721.550781 331.558594 722.710938 336.742188 723.75 341.953125 C 724.785156 347.164062 725.695312 352.398438 726.472656 357.65625 C 727.253906 362.910156 727.902344 368.183594 728.425781 373.46875 C 728.945312 378.757812 729.335938 384.054688 729.597656 389.363281 C 729.859375 394.667969 729.988281 399.980469 729.988281 405.292969 Z M 729.988281 405.292969 " fill-opacity="1" fill-rule="nonzero"/></g><path fill="#161e21" d="M 302.097656 578.667969 L 604.621094 405.296875 L 302.097656 231.921875 Z M 302.097656 578.667969 " fill-opacity="1" fill-rule="nonzero"/></svg>